<?xml version="1.0" encoding="UTF-8" standalone="no"?>
<svg
   width="232"
   height="232"
   xml:space="preserve"
   overflow="hidden"
   version="1.1"
   id="svg12"
   sodipodi:docname="1.1_no_programming_required.svg"
   inkscape:version="1.3 (0e150ed6c4, 2023-07-21)"
   xmlns:inkscape="http://www.inkscape.org/namespaces/inkscape"
   xmlns:sodipodi="http://sodipodi.sourceforge.net/DTD/sodipodi-0.dtd"
   xmlns="http://www.w3.org/2000/svg"
   xmlns:svg="http://www.w3.org/2000/svg"><sodipodi:namedview
     id="namedview12"
     pagecolor="#505050"
     bordercolor="#eeeeee"
     borderopacity="1"
     inkscape:showpageshadow="0"
     inkscape:pageopacity="0"
     inkscape:pagecheckerboard="0"
     inkscape:deskcolor="#505050"
     inkscape:zoom="5.6568544"
     inkscape:cx="203.91191"
     inkscape:cy="37.9186"
     inkscape:window-width="1920"
     inkscape:window-height="986"
     inkscape:window-x="-11"
     inkscape:window-y="-11"
     inkscape:window-maximized="1"
     inkscape:current-layer="layer4" /><defs
     id="defs1"><clipPath
       id="clip0"><rect
         x="170"
         y="537"
         width="232"
         height="232"
         id="rect1" /></clipPath></defs><g
     inkscape:groupmode="layer"
     id="layer3"
     inkscape:label="tree"
     style="display:inline" /><g
     inkscape:groupmode="layer"
     id="layer1"
     inkscape:label="bonk1"
     style="display:inline" /><g
     inkscape:groupmode="layer"
     id="layer4"
     inkscape:label="frame"
     style="display:inline"><g
       id="g1"
       transform="matrix(1.1155777,0,0,1.1155777,-6.8246131,-19.678507)"><path
         style="display:inline;fill:#f9f6f1;fill-opacity:1;stroke-width:1.31407"
         d="m 108.32779,212.41943 c -1.23968,2.47938 3.46255,-3.453 4.62063,-6.54345 l 35.81988,-0.46262 30.24667,-0.0962 1.83842,-0.83073 c 2.26158,-1.02195 4.2982,-3.26114 5.36435,-5.89789 l 0.79389,-1.96338 v -82.05264 c 0,-79.867645 -0.0177,-82.098286 -0.66262,-83.770547 -0.87825,-2.277154 -2.93242,-4.445757 -5.169,-5.456967 l -1.81735,-0.821662 -58.0467,-0.091 c -50.860859,-0.07975 -58.269732,-0.02613 -59.848321,0.432793 -2.376613,0.690902 -4.994873,3.042242 -6.092707,5.471567 l -0.829487,1.835546 -0.173847,35.265875 -0.295981,46.000305 c -0.0073,1.1485 -3.595182,0.92755 -6.914431,2.07559 l 0.33742,-48.658399 0.09325,-36.458231 1.315005,-2.660522 c 2.375888,-4.806938 6.273641,-8.122314 10.999406,-9.355945 2.117982,-0.552891 6.672936,-0.598803 61.243793,-0.617352 53.22375,-0.01813 59.1392,0.03437 60.84402,0.539829 2.80529,0.831699 4.21475,1.650149 6.52488,3.788942 2.53436,2.346365 4.08714,4.69489 4.96141,7.503936 0.6387,2.05213 0.65871,4.625966 0.65871,84.753942 0,79.42323 -0.0251,82.72801 -0.64509,84.96391 -1.25827,4.53772 -4.60561,8.62815 -8.9579,10.94649 -4.23429,2.2555 -3.0087,2.18385 -37.353,2.18385 -29.74991,0 -38.306,0.58184 -38.85529,-0.025 z m 19.76048,-31.93475 c -0.74968,-0.74958 -1.0163,-1.34714 -1.0163,-2.27718 0,-1.42665 0.76226,-3.1303 1.53291,-3.42602 0.28357,-0.10875 14.19735,-0.22398 24.16347,-0.25587 l 18.1202,-0.0582 0.84184,0.79087 c 1.12041,1.05255 1.41306,2.7363 0.71142,4.09312 -1.15862,2.24053 -0.31291,2.14942 -19.95465,2.14942 h -23.3826 z m -2.00309,-21.24907 c 0,2.12809 -2.58739,-4.34516 -0.99171,-6.04368 l 0.78448,-0.83501 26.80068,-0.0611 h 18.21933 l 1.05984,1.0598 c 0.93285,0.93286 1.03688,1.23094 0.86825,2.48822 -0.12548,0.93486 -0.53087,1.76167 -1.1735,2.39298 l -0.9819,0.96459 -17.66622,0.11083 c -9.71641,0.0611 -26.54981,0.06 -26.91925,-0.0767 z m -8.0751,-23.60169 c -1.35383,-1.35384 -1.43401,-3.67436 -0.17744,-5.13563 l 0.83887,-0.97551 33.73772,-0.0996 18.13185,-0.0996 1.23921,1.23923 c 1.13026,1.13024 1.22193,1.36829 1.04239,2.70715 -0.14066,1.04885 -0.50233,1.74089 -1.26684,2.42406 l -1.07001,0.95612 h -17.92678 -33.53268 z m -5.57571,-27.5364 c -1.28058,-0.51065 -2.43429,-1.71517 -2.43127,-2.53837 0.004,-1.08693 0.9134,-3.82134 5.38561,-16.193439 2.24648,-6.214779 6.10139,-16.932029 8.56646,-23.816098 2.46507,-6.884058 4.76956,-12.907629 5.12109,-13.385684 0.83969,-1.141919 2.21159,-1.619475 3.42573,-1.192494 1.17547,0.413406 2.53143,2.367351 2.53143,3.647869 0,0.528992 -0.79478,3.12649 -1.76621,5.772225 -0.97143,2.645721 -5.02141,13.818976 -8.99999,24.829446 -3.97858,11.010462 -7.49673,20.527485 -7.81809,21.148965 -0.34066,0.65878 -1.07743,1.33596 -1.76693,1.62406 -0.65044,0.27177 -1.22675,0.4842 -1.2807,0.47209 -0.054,-0.0124 -0.48916,-0.17797 -0.96713,-0.36857 z M 98.1275,101.08425 c -0.506557,-0.23043 -5.31759,-4.735114 -10.691176,-10.010452 -9.578385,-9.403282 -9.770145,-9.618915 -9.770145,-10.986682 0,-0.993661 0.289097,-1.785373 1.004585,-2.751121 1.919622,-2.591085 18.60152,-18.856537 19.588654,-19.099659 1.937132,-0.477105 4.740582,2.068982 4.283472,3.890229 -0.161,0.641502 -3.017813,3.770655 -8.215769,8.998975 -4.382914,4.40852 -7.96893,8.18755 -7.96893,8.39786 0,0.210296 3.755744,4.114524 8.346125,8.676067 7.786724,7.737815 8.346004,8.376691 8.344324,9.531935 -0.003,1.440611 -0.92775,2.601358 -2.64748,3.319908 -1.347083,0.56285 -1.115956,0.5595 -2.27366,0.0329 z m 42.2602,-1.07952 c -1.28628,-1.286291 -1.45283,-2.16681 -0.68386,-3.615754 0.27405,-0.516382 3.80425,-4.224432 7.8449,-8.240145 4.04066,-4.015702 7.5066,-7.589934 7.70212,-7.942742 0.30562,-0.551441 -0.77079,-1.774448 -7.67104,-8.71583 -7.63172,-7.677182 -8.02655,-8.13905 -8.02655,-9.389119 0,-1.873808 1.81352,-3.678969 3.69599,-3.678969 1.2807,0 1.70859,0.37682 11.16054,9.828776 9.61401,9.614015 9.8285,9.859 9.81645,11.212678 -0.007,0.761163 -0.20241,1.696837 -0.43473,2.079281 -0.23233,0.382457 -4.73663,4.9588 -10.00957,10.169658 -9.14196,9.034296 -9.64813,9.474276 -10.89966,9.474276 -1.02905,0 -1.56775,-0.25527 -2.49459,-1.18211 z"
         id="path1-0"
         sodipodi:nodetypes="sccsscscscssscccsccssssssssssccssccsssccsssccsssccsscscccsssccccscssssssssscsssssssssssssssssssssscssssss" /><circle
         style="display:inline;fill:none;stroke:#f9f6f1;stroke-width:11.2336;stroke-miterlimit:4.3;stroke-dasharray:none;stroke-opacity:1;paint-order:fill markers stroke"
         id="path2"
         cx="63.410667"
         cy="172.18552"
         r="47.522053" /><path
         style="display:inline;fill:none;stroke:#f9f6f1;stroke-width:11.2336;stroke-miterlimit:4.3;stroke-dasharray:none;stroke-opacity:1;paint-order:fill markers stroke"
         d="m 29.387638,135.89643 69.279377,69.60771"
         id="path3" /></g></g></svg>
