<?xml version="1.0" encoding="UTF-8" standalone="no"?>
<svg
   width="232"
   height="232"
   xml:space="preserve"
   overflow="hidden"
   version="1.1"
   id="svg12"
   sodipodi:docname="1.2_avoid_errors.svg"
   inkscape:version="1.3 (0e150ed6c4, 2023-07-21)"
   xmlns:inkscape="http://www.inkscape.org/namespaces/inkscape"
   xmlns:sodipodi="http://sodipodi.sourceforge.net/DTD/sodipodi-0.dtd"
   xmlns="http://www.w3.org/2000/svg"
   xmlns:svg="http://www.w3.org/2000/svg"><sodipodi:namedview
     id="namedview12"
     pagecolor="#505050"
     bordercolor="#eeeeee"
     borderopacity="1"
     inkscape:showpageshadow="0"
     inkscape:pageopacity="0"
     inkscape:pagecheckerboard="0"
     inkscape:deskcolor="#505050"
     inkscape:zoom="4"
     inkscape:cx="179.75"
     inkscape:cy="117.875"
     inkscape:window-width="2880"
     inkscape:window-height="1526"
     inkscape:window-x="2869"
     inkscape:window-y="-11"
     inkscape:window-maximized="1"
     inkscape:current-layer="layer4" /><defs
     id="defs1"><clipPath
       id="clip0"><rect
         x="170"
         y="537"
         width="232"
         height="232"
         id="rect1" /></clipPath></defs><g
     inkscape:groupmode="layer"
     id="layer3"
     inkscape:label="tree"
     style="display:inline" /><g
     inkscape:groupmode="layer"
     id="layer1"
     inkscape:label="bonk1"
     style="display:inline" /><g
     inkscape:groupmode="layer"
     id="layer4"
     inkscape:label="frame"
     style="display:inline"><path
       style="display:inline;fill:none;stroke:#f9f6f1;stroke-width:9.231;stroke-miterlimit:4.3;stroke-dasharray:none;stroke-opacity:1;paint-order:fill markers stroke"
       d="M 34.459364,39.177109 192.73265,197.96205"
       id="path3-2"
       sodipodi:nodetypes="cc" /><text
       xml:space="preserve"
       style="font-size:70.2428px;line-height:1.3;font-family:HolidayFree;-inkscape-font-specification:HolidayFree;letter-spacing:0px;display:inline;fill:#f9f6f1;fill-opacity:1;stroke:#f9f6f1;stroke-width:1.63387;stroke-miterlimit:4.3;stroke-dasharray:none;stroke-opacity:1;paint-order:fill markers stroke"
       x="23.016996"
       y="138.97122"
       id="text3-2"><tspan
         sodipodi:role="line"
         id="tspan3-0"
         x="23.016996"
         y="138.97122"
         style="font-style:normal;font-variant:normal;font-weight:normal;font-stretch:normal;font-family:sans-serif;-inkscape-font-specification:sans-serif;fill:#f9f6f1;fill-opacity:1;stroke:#f9f6f1;stroke-width:1.63387;stroke-dasharray:none;stroke-opacity:1">Error!</tspan></text><path
       style="display:none;fill:none;stroke:#000000;stroke-width:6.754;stroke-miterlimit:4.3;stroke-dasharray:none;stroke-opacity:1;paint-order:fill markers stroke"
       d="M 496.43164,34.882011 673.87848,211.60571"
       id="path3-2-7"
       sodipodi:nodetypes="cc" /><path
       style="font-size:58.3164px;line-height:1.3;-inkscape-font-specification:sans-serif;letter-spacing:0px;display:none;stroke:#000000;stroke-width:1.35646;stroke-miterlimit:4.3;paint-order:fill markers stroke"
       d="M 535.90925,139.14952 H 512.64534 V 97.519357 h 23.26391 v 4.612923 H 517.8847 v 12.98451 h 16.97098 v 4.55596 H 517.8847 v 14.86385 h 18.02455 z m 23.03612,-31.83483 q 2.07866,0 3.67325,0.3417 l -0.62645,4.72682 q -1.73696,-0.39865 -3.3885,-0.39865 -2.47731,0 -4.61292,1.36679 -2.10713,1.36679 -3.30308,3.78715 -1.19594,2.39188 -1.19594,5.32479 v 16.68623 h -5.12546 v -31.26533 h 4.21427 l 0.56949,5.72343 h 0.2278 q 1.79392,-3.10375 4.24275,-4.69834 2.44883,-1.59459 5.32479,-1.59459 z m 24.08968,0 q 2.07866,0 3.67325,0.3417 l -0.62645,4.72682 q -1.73696,-0.39865 -3.3885,-0.39865 -2.4773,0 -4.61292,1.36679 -2.10713,1.36679 -3.30307,3.78715 -1.19594,2.39188 -1.19594,5.32479 v 16.68623 h -5.12547 v -31.26533 h 4.21427 l 0.5695,5.72343 h 0.2278 q 1.79391,-3.10375 4.24274,-4.69834 2.44884,-1.59459 5.32479,-1.59459 z m 36.10605,16.14521 q 0,7.65973 -3.87257,11.95942 -3.87258,4.2997 -10.70653,4.2997 -4.24274,0 -7.51735,-1.96476 -3.2746,-1.99324 -5.04004,-5.69497 -1.76543,-3.70172 -1.76543,-8.59939 0,-7.63124 3.81562,-11.87399 3.81562,-4.27122 10.70653,-4.27122 6.60615,0 10.47872,4.35665 3.90105,4.32817 3.90105,11.78856 z m -23.60561,0 q 0,5.89429 2.30646,8.96957 2.33493,3.0468 6.86243,3.0468 4.47054,0 6.80547,-3.0468 2.33494,-3.07528 2.33494,-8.96957 0,-5.89428 -2.36341,-8.85566 -2.33493,-2.98985 -6.86243,-2.98985 -9.08346,0 -9.08346,11.84551 z m 46.30003,-16.14521 q 2.07866,0 3.67325,0.3417 l -0.62645,4.72682 q -1.73696,-0.39865 -3.3885,-0.39865 -2.47731,0 -4.61292,1.36679 -2.10713,1.36679 -3.30307,3.78715 -1.19595,2.39188 -1.19595,5.32479 v 16.68623 h -5.12546 v -31.26533 h 4.21427 l 0.5695,5.72343 h 0.22779 q 1.79392,-3.10375 4.24275,-4.69834 2.44883,-1.59459 5.32479,-1.59459 z m 18.45166,20.04626 h -3.44545 l -1.45221,-29.841593 h 6.34988 z m -5.38173,8.62787 q 0,-1.08204 0.28474,-1.82239 0.28475,-0.76882 0.76882,-1.22442 0.48408,-0.48407 1.139,-0.68339 0.65492,-0.2278 1.42374,-0.2278 0.74034,0 1.39526,0.2278 0.6834,0.19932 1.16747,0.68339 0.48407,0.4556 0.76882,1.22442 0.28475,0.74035 0.28475,1.82239 0,1.05357 -0.28475,1.82239 -0.28475,0.74034 -0.76882,1.22441 -0.48407,0.48407 -1.16747,0.71187 -0.65492,0.2278 -1.39526,0.2278 -0.76882,0 -1.42374,-0.2278 -0.65492,-0.2278 -1.139,-0.71187 -0.48407,-0.48407 -0.76882,-1.22441 -0.28474,-0.76882 -0.28474,-1.82239 z"
       id="text3-2-9"
       aria-label="Error!" /><path
       id="path1"
       style="fill:none;stroke:#f9f6f1;stroke-width:9.231;stroke-miterlimit:4.3;stroke-dasharray:none;paint-order:fill markers stroke"
       d="M 226.51006,115.875 A 110.63507,110.63507 0 0 1 115.875,226.51006 110.63507,110.63507 0 0 1 5.2399325,115.875 110.63507,110.63507 0 0 1 115.875,5.2399369 110.63507,110.63507 0 0 1 226.51006,115.875 Z" /></g></svg>
