<?xml version="1.0" encoding="UTF-8" standalone="no"?>
<svg
   width="232"
   height="232"
   xml:space="preserve"
   overflow="hidden"
   version="1.1"
   id="svg12"
   sodipodi:docname="1.4_fast.svg"
   inkscape:version="1.3 (0e150ed6c4, 2023-07-21)"
   xmlns:inkscape="http://www.inkscape.org/namespaces/inkscape"
   xmlns:sodipodi="http://sodipodi.sourceforge.net/DTD/sodipodi-0.dtd"
   xmlns="http://www.w3.org/2000/svg"
   xmlns:svg="http://www.w3.org/2000/svg"><sodipodi:namedview
     id="namedview12"
     pagecolor="#505050"
     bordercolor="#eeeeee"
     borderopacity="1"
     inkscape:showpageshadow="0"
     inkscape:pageopacity="0"
     inkscape:pagecheckerboard="0"
     inkscape:deskcolor="#505050"
     inkscape:zoom="1.4142136"
     inkscape:cx="14.849242"
     inkscape:cy="36.415998"
     inkscape:window-width="1920"
     inkscape:window-height="986"
     inkscape:window-x="-11"
     inkscape:window-y="-11"
     inkscape:window-maximized="1"
     inkscape:current-layer="layer4" /><defs
     id="defs1"><clipPath
       id="clip0"><rect
         x="170"
         y="537"
         width="232"
         height="232"
         id="rect1" /></clipPath></defs><g
     inkscape:groupmode="layer"
     id="layer3"
     inkscape:label="tree"
     style="display:inline" /><g
     inkscape:groupmode="layer"
     id="layer1"
     inkscape:label="bonk1"
     style="display:inline" /><g
     inkscape:groupmode="layer"
     id="layer4"
     inkscape:label="frame"
     style="display:inline"><path
       style="display:none;fill:none;stroke:#000000;stroke-width:6.754;stroke-miterlimit:4.3;stroke-dasharray:none;stroke-opacity:1;paint-order:fill markers stroke"
       d="M 496.43164,34.882011 673.87848,211.60571"
       id="path3-2-7"
       sodipodi:nodetypes="cc" /><path
       style="font-size:58.3164px;line-height:1.3;-inkscape-font-specification:sans-serif;letter-spacing:0px;display:none;stroke:#000000;stroke-width:1.35646;stroke-miterlimit:4.3;paint-order:fill markers stroke"
       d="M 535.90925,139.14952 H 512.64534 V 97.519357 h 23.26391 v 4.612923 H 517.8847 v 12.98451 h 16.97098 v 4.55596 H 517.8847 v 14.86385 h 18.02455 z m 23.03612,-31.83483 q 2.07866,0 3.67325,0.3417 l -0.62645,4.72682 q -1.73696,-0.39865 -3.3885,-0.39865 -2.47731,0 -4.61292,1.36679 -2.10713,1.36679 -3.30308,3.78715 -1.19594,2.39188 -1.19594,5.32479 v 16.68623 h -5.12546 v -31.26533 h 4.21427 l 0.56949,5.72343 h 0.2278 q 1.79392,-3.10375 4.24275,-4.69834 2.44883,-1.59459 5.32479,-1.59459 z m 24.08968,0 q 2.07866,0 3.67325,0.3417 l -0.62645,4.72682 q -1.73696,-0.39865 -3.3885,-0.39865 -2.4773,0 -4.61292,1.36679 -2.10713,1.36679 -3.30307,3.78715 -1.19594,2.39188 -1.19594,5.32479 v 16.68623 h -5.12547 v -31.26533 h 4.21427 l 0.5695,5.72343 h 0.2278 q 1.79391,-3.10375 4.24274,-4.69834 2.44884,-1.59459 5.32479,-1.59459 z m 36.10605,16.14521 q 0,7.65973 -3.87257,11.95942 -3.87258,4.2997 -10.70653,4.2997 -4.24274,0 -7.51735,-1.96476 -3.2746,-1.99324 -5.04004,-5.69497 -1.76543,-3.70172 -1.76543,-8.59939 0,-7.63124 3.81562,-11.87399 3.81562,-4.27122 10.70653,-4.27122 6.60615,0 10.47872,4.35665 3.90105,4.32817 3.90105,11.78856 z m -23.60561,0 q 0,5.89429 2.30646,8.96957 2.33493,3.0468 6.86243,3.0468 4.47054,0 6.80547,-3.0468 2.33494,-3.07528 2.33494,-8.96957 0,-5.89428 -2.36341,-8.85566 -2.33493,-2.98985 -6.86243,-2.98985 -9.08346,0 -9.08346,11.84551 z m 46.30003,-16.14521 q 2.07866,0 3.67325,0.3417 l -0.62645,4.72682 q -1.73696,-0.39865 -3.3885,-0.39865 -2.47731,0 -4.61292,1.36679 -2.10713,1.36679 -3.30307,3.78715 -1.19595,2.39188 -1.19595,5.32479 v 16.68623 h -5.12546 v -31.26533 h 4.21427 l 0.5695,5.72343 h 0.22779 q 1.79392,-3.10375 4.24275,-4.69834 2.44883,-1.59459 5.32479,-1.59459 z m 18.45166,20.04626 h -3.44545 l -1.45221,-29.841593 h 6.34988 z m -5.38173,8.62787 q 0,-1.08204 0.28474,-1.82239 0.28475,-0.76882 0.76882,-1.22442 0.48408,-0.48407 1.139,-0.68339 0.65492,-0.2278 1.42374,-0.2278 0.74034,0 1.39526,0.2278 0.6834,0.19932 1.16747,0.68339 0.48407,0.4556 0.76882,1.22442 0.28475,0.74035 0.28475,1.82239 0,1.05357 -0.28475,1.82239 -0.28475,0.74034 -0.76882,1.22441 -0.48407,0.48407 -1.16747,0.71187 -0.65492,0.2278 -1.39526,0.2278 -0.76882,0 -1.42374,-0.2278 -0.65492,-0.2278 -1.139,-0.71187 -0.48407,-0.48407 -0.76882,-1.22441 -0.28474,-0.76882 -0.28474,-1.82239 z"
       id="text3-2-9"
       aria-label="Error!" /><g
       id="g1"
       transform="matrix(1.092712,0,0,1.092712,-4.9481896,-23.839651)"><path
         style="fill:#f9f6f1;fill-opacity:1;stroke-width:1.21213"
         d="m 137.26416,131.77433 c -1.41653,-0.57206 -3.18538,-2.78953 -3.93077,-4.92773 -2.51281,-7.20828 -2.36742,-7.3425 40.9,-37.749396 6.31361,-4.436999 6.80865,-5.325105 -11.15266,20.008036 -17.09418,24.11013 -18.71782,25.53583 -25.81657,22.66909 z"
         id="path14"
         sodipodi:nodetypes="sssss" /><path
         style="fill:#f9f6f1;fill-opacity:1;stroke-width:1.21213"
         d="m 122.35894,193.63896 c -11.92961,-2.99216 -23.476634,-9.85909 -33.509339,-19.9278 l -9.090994,-9.12362 8.835156,-0.35709 c 8.612752,-0.34811 8.963655,-0.24695 13.939527,4.01796 6.26456,5.36946 17.49709,10.78708 26.07331,12.57555 39.65819,8.27019 76.48923,-26.29737 70.67518,-66.33182 -3.45507,-23.790885 -21.00355,-43.561845 -43.86574,-49.421293 -5.68417,-1.456813 -10.71476,-1.816647 -18.68721,-1.336704 -14.8138,0.891815 -24.49713,4.73362 -34.8523,13.827438 -4.21819,3.704386 -5.165733,3.994886 -13.030421,3.994886 -4.66479,0 -8.481436,-0.317301 -8.481436,-0.705098 0,-0.38781 2.039877,-3.194503 4.533059,-6.2371 9.210949,-11.240759 26.260588,-21.0501 41.464418,-23.856149 l 7.94242,-1.465881 v -4.171105 c 0,-4.047868 -0.15386,-4.182196 -5.20752,-4.546564 l -5.20752,-0.37547 0.359,-7.50339 0.35898,-7.503404 h 15.75772 15.75771 l 0.35901,7.503404 0.35899,7.50339 -5.20752,0.37547 c -5.06766,0.365373 -5.20753,0.488962 -5.20753,4.601232 0,4.163298 0.0924,4.239057 6.24649,5.124726 10.03499,1.444171 22.71515,6.970718 33.39637,14.555541 1.7027,1.209102 2.56934,0.995463 4.91992,-1.212787 l 2.85316,-2.680413 4.09237,4.222258 4.09237,4.222257 -2.66619,2.838039 -2.6662,2.838038 3.43128,4.751669 c 16.86534,23.35521 17.91714,55.77098 2.62814,80.99771 -8.41549,13.88547 -22.45663,25.27272 -38.02204,30.83553 -10.74114,3.8387 -31.14186,4.78745 -42.37262,1.97059 z"
         id="path15"
         sodipodi:nodetypes="sscsscsssssssscsscccccccssssscccccssss" /><path
         style="fill:#f9f6f1;fill-opacity:1;stroke-width:1.55076"
         d="m 51.645158,149.22844 c -10.235009,-0.58784 -19.830331,-1.16338 -21.322935,-1.27901 -1.492606,-0.11566 -2.713828,-1.17782 -2.713828,-2.36034 0,-2.77779 6.79434,-3.65581 38.381286,-4.95999 l 25.199832,-1.04047 v 5.62604 5.62601 l -10.467621,-0.27177 c -5.757193,-0.14948 -18.841724,-0.75269 -29.076734,-1.34047 z m 7.753797,-49.629735 c -9.382093,-0.59908 -21.070939,-1.178019 -25.975215,-1.286536 -7.609682,-0.16836 -8.916865,-0.622873 -8.916865,-3.100442 0,-2.675232 1.978304,-2.984835 25.199835,-3.943606 13.859909,-0.57226 28.165661,-1.438596 31.79056,-1.925218 l 6.590725,-0.884735 v 6.379124 6.379108 l -5.815347,-0.26423 c -3.198439,-0.14531 -13.491602,-0.7544 -22.873693,-1.353465 z"
         id="path16"
         sodipodi:nodetypes="sssscccssssssscccss" /><path
         style="fill:#f9f6f1;fill-opacity:1;stroke-width:1.61414"
         d="m 43.928458,125.247 c -9.765598,-0.62356 -21.932242,-1.22619 -27.036988,-1.33913 -7.9207387,-0.17524 -9.2813544,-0.64832 -9.2813544,-3.22717 0,-2.78461 2.0591698,-3.10685 26.2299144,-4.10482 14.42645,-0.59565 29.316972,-1.4974 33.090045,-2.00389 l 6.860132,-0.92091 v 6.63989 6.63986 l -6.053058,-0.27503 c -3.32918,-0.15125 -14.043093,-0.78525 -23.808691,-1.4088 z"
         id="path17"
         sodipodi:nodetypes="ssssscccss" /></g></g></svg>
