<?xml version="1.0" encoding="UTF-8" standalone="no"?>
<svg
   width="232"
   height="232"
   xml:space="preserve"
   overflow="hidden"
   version="1.1"
   id="svg12"
   sodipodi:docname="1.5_fun.svg"
   inkscape:version="1.3 (0e150ed6c4, 2023-07-21)"
   xmlns:inkscape="http://www.inkscape.org/namespaces/inkscape"
   xmlns:sodipodi="http://sodipodi.sourceforge.net/DTD/sodipodi-0.dtd"
   xmlns="http://www.w3.org/2000/svg"
   xmlns:svg="http://www.w3.org/2000/svg"><sodipodi:namedview
     id="namedview12"
     pagecolor="#505050"
     bordercolor="#eeeeee"
     borderopacity="1"
     inkscape:showpageshadow="0"
     inkscape:pageopacity="0"
     inkscape:pagecheckerboard="0"
     inkscape:deskcolor="#505050"
     inkscape:zoom="2"
     inkscape:cx="76.5"
     inkscape:cy="153.75"
     inkscape:window-width="1920"
     inkscape:window-height="986"
     inkscape:window-x="-11"
     inkscape:window-y="-11"
     inkscape:window-maximized="1"
     inkscape:current-layer="layer4" /><defs
     id="defs1"><clipPath
       id="clip0"><rect
         x="170"
         y="537"
         width="232"
         height="232"
         id="rect1" /></clipPath></defs><g
     inkscape:groupmode="layer"
     id="layer4"
     inkscape:label="frame"
     style="display:inline"><path
       style="display:inline;fill:#f0ede8;fill-opacity:1;stroke-width:1.76228"
       d="M 89.740561,205.72423 C 65.12638,197.75713 43.125274,179.8479 32.126808,158.82573 12.309498,120.94747 19.117215,75.03294 48.951182,45.353769 87.026596,7.4759254 147.06408,7.38944 184.9356,45.15788 c 30.01398,29.9323 36.9413,75.80585 17.14316,113.52431 -11.35102,21.62548 -34.47425,40.14287 -59.34873,47.5273 -13.10494,3.89041 -40.23853,3.64193 -52.989469,-0.48526 z m 43.622219,-29.80798 c 12.99537,-3.27228 30.78113,-18.57645 34.91165,-32.97876 2.74467,-9.57011 -10.8133,-2.80831 -50.71143,-2.80831 -39.898097,0 -54.469939,-6.7618 -51.725257,2.80831 2.573564,8.97351 9.896478,18.76683 16.852214,24.60653 11.542144,9.6902 36.093133,12.04344 50.672823,8.37223 z m -35.7883,-71.85437 c 6.20827,-5.46323 7.29106,-13.110412 2.8629,-20.219065 -8.429766,-13.532545 -28.31974,-7.396939 -28.31974,8.736004 0,13.665371 15.19043,20.517461 25.45684,11.483061 z m 57.45621,2.06411 c 4.44025,-2.37634 8.26055,-11.166165 7.21966,-16.611199 -1.03707,-5.425086 -6.50003,-11.133896 -11.96765,-12.506178 -10.49485,-2.634044 -21.60568,8.194829 -19.27869,18.789519 2.16309,9.848578 14.78477,15.273978 24.02668,10.327858 z"
       id="path17"
       sodipodi:nodetypes="ssssssssssssssssssssss" /></g></svg>
