<?xml version="1.0" encoding="UTF-8" standalone="no"?>
<!--?xml version="1.0" encoding="UTF-8" standalone="no"?-->

<svg
   viewBox="0 0 232 232"
   version="1.1"
   class="si-glyph si-glyph-global"
   id="svg5"
   sodipodi:docname="2.1 universal.svg"
   inkscape:version="1.3 (0e150ed6c4, 2023-07-21)"
   xml:space="preserve"
   width="232"
   height="232"
   xmlns:inkscape="http://www.inkscape.org/namespaces/inkscape"
   xmlns:sodipodi="http://sodipodi.sourceforge.net/DTD/sodipodi-0.dtd"
   xmlns="http://www.w3.org/2000/svg"
   xmlns:svg="http://www.w3.org/2000/svg"
   xmlns:rdf="http://www.w3.org/1999/02/22-rdf-syntax-ns#"
   xmlns:cc="http://creativecommons.org/ns#"
   xmlns:dc="http://purl.org/dc/elements/1.1/"><sodipodi:namedview
     id="namedview5"
     pagecolor="#505050"
     bordercolor="#eeeeee"
     borderopacity="1"
     inkscape:showpageshadow="0"
     inkscape:pageopacity="0"
     inkscape:pagecheckerboard="0"
     inkscape:deskcolor="#505050"
     inkscape:zoom="1"
     inkscape:cx="104"
     inkscape:cy="345.5"
     inkscape:window-width="1920"
     inkscape:window-height="986"
     inkscape:window-x="-11"
     inkscape:window-y="-11"
     inkscape:window-maximized="1"
     inkscape:current-layer="svg5" /><!-- Generator: Sketch 3.0.3 (7891) - http://www.bohemiancoding.com/sketch --><title
     id="title1">108</title><defs
     id="defs1" /><g
     stroke="none"
     stroke-width="1"
     fill="none"
     fill-rule="evenodd"
     id="g5"
     style="fill:#f9f6f1;fill-opacity:1"
     transform="matrix(11.30791,0,0,11.30791,24.50522,3.0000002)"><g
       fill="#434343"
       id="g4"
       style="fill:#f9f6f1;fill-opacity:1"><path
         d="m 8.048,0 c -4.4175492,0 -8,3.582 -8,8 0,4.418 3.5824508,8 8,8 4.418558,0 8,-3.582 8,-8 0,-4.418 -3.581442,-8 -8,-8 z M 8,15 C 4.1353341,15 1,11.867147 1,8 1,4.1338416 4.1353341,1 8,1 c 3.864666,0 7,3.1338416 7,7 0,3.868135 -3.135334,7 -7,7 z"
         class="si-glyph-fill"
         id="path1"
         style="fill:#f9f6f1;fill-opacity:1" /><path
         d="M 2.959,2.684 C 2.689,4.028 3.694,6.083 5.831,6.583 7.967,7.083 7.049,6.667 6.717,6 6.383,5.333 6.682,4.833 7.199,4.667 7.717,4.5 7.586,4.96 8.354,4 8.548,2 6.882,3.973 6.716,3.14 8.366,1.223 5.95,0.5 5.249,0.75 4.548,1 3.229,1.339 2.959,2.684 Z"
         class="si-glyph-fill"
         id="path2"
         style="fill:#f9f6f1;fill-opacity:1" /><path
         d="M 6.873,7.694 C 6.749,7.749 6.171,8.11 5.972,8.36 c -0.199,0.25 -0.286,0.778 0,1 0.286,0.223 -0.016,1.279 0.755,1.473 0.771,0.194 1.543,0.307 1.572,0.917 0.027,0.61 -0.072,2.027 -0.443,2.167 0.5,0.277 1.717,-1.195 2.145,-1.973 0.429,-0.777 0.572,-1.889 0.543,-2.167 -0.029,-0.277 0.171,-0.86 0.257,-1.61 0.085,-0.75 -0.57,-0.8 -0.655,-1.133 C 10.059,6.7 9.943,6.333 6.873,7.694 Z"
         class="si-glyph-fill"
         id="path3"
         style="fill:#f9f6f1;fill-opacity:1" /><path
         d="m 13.125,4 c 0,0 -2.012,0.861 -0.644,2.14 1.366,1.277 2.062,2.49 1.995,2.768 -0.062,0.276 -1.38,1.706 -0.623,1.594 0.761,-0.111 1.322,-1.611 1.443,-2.501 C 15.415,7.111 14.372,5.362 14.329,5.224 14.293,5.083 13.607,4.015 13.125,4 Z"
         class="si-glyph-fill"
         id="path4"
         style="fill:#f9f6f1;fill-opacity:1" /></g></g><metadata
     id="metadata1"><rdf:RDF><cc:Work
         rdf:about=""><dc:title>108</dc:title></cc:Work></rdf:RDF></metadata></svg>
