<?xml version="1.0" encoding="UTF-8" standalone="no"?>
<svg
   width="232"
   height="232"
   xml:space="preserve"
   overflow="hidden"
   version="1.1"
   id="svg12"
   sodipodi:docname="2.5_powerful_model_selection.svg"
   inkscape:version="1.3 (0e150ed6c4, 2023-07-21)"
   xmlns:inkscape="http://www.inkscape.org/namespaces/inkscape"
   xmlns:sodipodi="http://sodipodi.sourceforge.net/DTD/sodipodi-0.dtd"
   xmlns="http://www.w3.org/2000/svg"
   xmlns:svg="http://www.w3.org/2000/svg"><sodipodi:namedview
     id="namedview12"
     pagecolor="#505050"
     bordercolor="#eeeeee"
     borderopacity="1"
     inkscape:showpageshadow="0"
     inkscape:pageopacity="0"
     inkscape:pagecheckerboard="0"
     inkscape:deskcolor="#505050"
     inkscape:zoom="1"
     inkscape:cx="190.5"
     inkscape:cy="205.5"
     inkscape:window-width="2880"
     inkscape:window-height="1526"
     inkscape:window-x="2869"
     inkscape:window-y="-11"
     inkscape:window-maximized="1"
     inkscape:current-layer="layer4" /><defs
     id="defs1"><clipPath
       id="clip0"><rect
         x="170"
         y="537"
         width="232"
         height="232"
         id="rect1" /></clipPath></defs><g
     inkscape:groupmode="layer"
     id="layer4"
     inkscape:label="frame"
     style="display:inline"><path
       id="rect29"
       style="fill:#e9e6df;fill-opacity:1;stroke-width:1.62592;stroke-miterlimit:4.3;paint-order:fill markers stroke"
       d="M 6.1178613,189.6611 H 228.14317 v 12.09049 H 6.1178613 Z" /><path
       id="rect29-8"
       style="display:inline;fill:#e9e6df;fill-opacity:1;stroke-width:1.51707;stroke-miterlimit:4.3;paint-order:fill markers stroke"
       d="M 1.046335,201.76329 1.0150995,8.470975 13.105595,8.4695812 13.136845,201.76191 Z" /><path
       d="m 12.737458,174.06943 c -3.9569185,-1.83853 -0.967933,-5.26732 5.923723,-6.79524 9.405251,-2.08524 15.911557,-5.84771 23.544819,-13.61559 7.476058,-7.60793 11.997929,-10.1481 20.688704,-11.62198 9.53239,-1.61656 18.810809,0.72852 27.234525,6.88331 8.208023,5.9973 16.205381,7.85277 23.737491,5.50733 6.30171,-1.9623 9.09622,-4.4899 22.04609,-19.93947 16.15586,-19.27446 29.70221,-28.24525 49.75718,-32.95072 11.14028,-2.613751 27.1535,-3.253908 28.87953,-1.15444 1.88655,2.29477 -2.75693,4.8601 -8.82394,4.87501 -7.84359,0.0192 -20.55454,2.63689 -29.50119,6.07528 -10.67406,4.10216 -22.54978,13.7991 -34.36729,28.06186 -5.76566,6.95853 -12.36954,14.08481 -14.67541,15.83614 -7.7297,5.8707 -20.40207,8.1379 -30.058661,5.37779 -2.209292,-0.6315 -7.797169,-3.67216 -12.417607,-6.7571 -7.56315,-5.04976 -9.205028,-5.60892 -16.470918,-5.60892 -8.759894,0 -7.608103,-0.65106 -25.344421,14.32732 -9.340539,7.88804 -25.039303,13.87515 -30.152625,11.49942 z M 95.2074,119.63112 c -5.23373,-2.2189 -8.065512,-4.93556 -14.205919,-13.62842 -4.217903,-5.97141 -7.990158,-11.098484 -8.382538,-11.3935 -0.392379,-0.295026 -5.185202,1.171867 -10.650512,3.259762 -14.618887,5.584728 -39.926382,9.055028 -48.338179,6.628378 -1.42178,-0.41017 -2.585012,-1.73314 -2.585012,-2.93997 0,-2.928345 3.18214,-3.685676 15.486659,-3.685676 11.486263,0 29.545,-3.69761 35.36659,-7.241471 l 3.784017,-2.303546 -8.091499,-3.857665 C 47.91628,79.856453 42.224301,78.613309 24.936087,77.33703 13.379728,76.483916 11.862347,76.086699 11.862347,73.914773 c 0,-2.287237 1.016984,-2.445791 14.707953,-2.29338 16.9336,0.188502 25.356684,2.114131 38.22629,8.738958 l 8.81025,4.535291 5.644728,-4.876143 c 6.834113,-5.903715 12.10644,-13.555864 23.256852,-33.754984 5.69836,-10.322425 10.31468,-16.7576 14.09562,-19.649312 5.16804,-3.9524 6.40301,-4.29996 15.28059,-4.29996 12.42625,0 17.20863,2.582557 24.08394,13.005663 2.85874,4.333918 6.33065,9.417211 7.71532,11.296196 l 2.51766,3.416332 6.29156,-2.985857 c 13.61744,-6.462436 37.00588,-10.098656 41.10027,-6.389868 3.11855,2.825014 1.08591,3.750244 -12.05957,5.489137 -11.24422,1.487418 -28.70109,6.759918 -28.70109,8.668646 0,3.646306 25.17151,12.342205 35.72642,12.342205 5.41661,0 7.75227,2.767709 4.20388,4.981599 -5.46957,3.412662 -28.29695,-1.535531 -40.24311,-8.723302 -3.3178,-1.996311 -6.62705,-3.629648 -7.35397,-3.629622 -1.82069,4.9e-5 -9.19149,7.096889 -12.76813,12.293832 -1.62455,2.360427 -7.61332,12.544177 -13.30841,22.630535 -5.69489,10.086351 -12.0151,19.675571 -14.04446,21.309381 -8.58912,6.91452 -19.05725,8.18138 -29.83754,3.611 z m 22.5888,-6.72414 c 1.75597,-1.17447 4.25419,-4.07037 5.55145,-6.43536 16.97688,-30.948402 22.96334,-40.381211 29.39465,-46.317182 l 7.15296,-6.60199 -3.10388,-3.332998 c -1.70708,-1.833147 -5.1669,-6.820685 -7.68815,-11.083398 -3.22008,-5.443912 -6.02325,-8.309783 -9.41947,-9.630069 -5.71715,-2.222615 -14.20901,-1.398938 -17.99406,1.745366 -1.41095,1.172034 -7.32454,10.484499 -13.14119,20.694375 C 95.136303,75.487452 94.485567,76.40514 86.172311,83.497765 l -6.912098,5.897296 7.973675,11.743179 c 6.058523,8.9229 9.150978,12.15365 12.876162,13.45232 5.77859,2.0145 13.21558,1.30656 17.68615,-1.68358 z"
       style="fill:#e9e6df;fill-opacity:1;stroke-width:1.41694"
       id="path1-41" /></g></svg>
