<?xml version="1.0" encoding="UTF-8" standalone="no"?>
<svg
   width="232"
   height="232"
   xml:space="preserve"
   overflow="hidden"
   version="1.1"
   id="svg12"
   sodipodi:docname="2.6_counter_factual_analysis.svg"
   inkscape:version="1.3 (0e150ed6c4, 2023-07-21)"
   xmlns:inkscape="http://www.inkscape.org/namespaces/inkscape"
   xmlns:sodipodi="http://sodipodi.sourceforge.net/DTD/sodipodi-0.dtd"
   xmlns="http://www.w3.org/2000/svg"
   xmlns:svg="http://www.w3.org/2000/svg"><sodipodi:namedview
     id="namedview12"
     pagecolor="#505050"
     bordercolor="#eeeeee"
     borderopacity="1"
     inkscape:showpageshadow="0"
     inkscape:pageopacity="0"
     inkscape:pagecheckerboard="0"
     inkscape:deskcolor="#505050"
     inkscape:zoom="1.4142136"
     inkscape:cx="25.455844"
     inkscape:cy="202.58609"
     inkscape:window-width="1920"
     inkscape:window-height="986"
     inkscape:window-x="-11"
     inkscape:window-y="-11"
     inkscape:window-maximized="1"
     inkscape:current-layer="layer4" /><defs
     id="defs1"><rect
       x="28"
       y="20"
       width="394"
       height="167"
       id="rect3" /><rect
       x="0"
       y="27"
       width="425"
       height="211"
       id="rect2" /><clipPath
       id="clip0"><rect
         x="170"
         y="537"
         width="232"
         height="232"
         id="rect1" /></clipPath><rect
       x="28"
       y="20"
       width="394"
       height="167"
       id="rect3-2" /></defs><g
     inkscape:groupmode="layer"
     id="layer4"
     inkscape:label="frame"
     style="display:inline"><text
       xml:space="preserve"
       id="text1"
       style="font-size:192px;line-height:1.3;font-family:HolidayFree;-inkscape-font-specification:HolidayFree;letter-spacing:0px;white-space:pre;shape-inside:url(#rect2);display:inline;fill:#e9e6df;fill-opacity:1;stroke-width:2.994;stroke-miterlimit:4.3;paint-order:fill markers stroke"><tspan
         x="0"
         y="369.85084"
         id="tspan6"><tspan
           dx="0 62.256042 54.480011 84.624023 35.903961 18.096039 33.695984"
           style="font-size:48px;fill:#eae6de"
           id="tspan2">WHAT IF</tspan><tspan
           dx="31.679993"
           style="font-size:48px;fill:#eae6de"
           id="tspan3">?</tspan></tspan></text><g
       id="text2"
       style="font-size:17.3333px;line-height:1.3;font-family:HolidayFree;-inkscape-font-specification:HolidayFree;letter-spacing:0px;white-space:pre;fill:none;stroke:#e9e5dd;stroke-width:0.719855;stroke-miterlimit:4.3;paint-order:fill markers stroke"
       transform="matrix(4.0924917,0,0,4.0924917,-805.03019,-58.856852)"
       aria-label="WHAT&#10;IF?"><path
         style="font-weight:bold;font-family:'Microsoft YaHei';-inkscape-font-specification:'Microsoft YaHei';text-align:center;text-anchor:middle"
         d="m 215.75783,22.700479 -3.49544,13.11 h -3.10611 l -2.23437,-8.54816 q -0.17773,-0.694009 -0.21159,-1.447263 h -0.0339 q -0.0846,0.880206 -0.23698,1.447263 l -2.28515,8.54816 h -3.22461 l -3.49543,-13.11 h 3.06379 l 1.94662,8.886701 q 0.12695,0.583983 0.17773,1.472653 h 0.0592 q 0.0423,-0.694009 0.26237,-1.514971 l 2.4375,-8.844383 h 2.9707 l 2.21744,8.954409 q 0.13542,0.533202 0.21159,1.388018 h 0.0423 q 0.0339,-0.736326 0.19466,-1.438799 l 1.90429,-8.903628 z m 12.8561,13.11 h -2.79297 v -5.408193 h -5.58592 v 5.408193 h -2.79297 v -13.11 h 2.79297 v 5.289703 h 5.58592 v -5.289703 h 2.79297 z m 14.43877,0 h -3.04687 l -0.98177,-3.004551 h -4.76496 l -0.96484,3.004551 h -3.02995 l 4.79882,-13.11 h 3.28385 z m -4.68879,-5.16275 -1.48958,-4.544913 q -0.14388,-0.43164 -0.20313,-1.142576 h -0.0762 q -0.0508,0.575519 -0.22852,1.108722 l -1.49804,4.578767 z m 14.08331,-5.662099 h -3.74088 v 10.824849 h -2.80143 V 24.98563 h -3.73241 v -2.285151 h 10.27472 z"
         id="path2" /><path
         style="font-weight:bold;font-family:'Microsoft YaHei';-inkscape-font-specification:'Microsoft YaHei';text-align:center;text-anchor:middle"
         d="m 217.4463,49.141068 v 13.110001 h -2.79296 V 49.141068 Z m 10.50324,2.285152 h -4.68033 v 3.368483 h 4.30793 v 2.285152 h -4.30793 v 5.171214 h -2.79296 V 49.141068 h 7.47329 z m 3.17382,7.050117 q -0.20312,-0.550129 -0.20312,-1.134113 0,-1.430335 1.35416,-2.572911 0.83789,-0.710936 1.13411,-1.184894 0.29623,-0.473957 0.29623,-1.024086 0,-0.600911 -0.42318,-0.981769 -0.42318,-0.389322 -1.0918,-0.389322 -1.56575,0 -2.91145,1.20182 v -2.623693 q 1.41341,-0.846352 3.21614,-0.846352 1.82812,0 2.88606,0.846352 1.05794,0.846353 1.05794,2.412105 0,0.939451 -0.41471,1.701169 -0.41471,0.761717 -1.52343,1.667314 -0.88867,0.74479 -1.10026,1.159503 -0.21159,0.414713 -0.21159,0.880207 0,0.45703 0.22852,0.88867 z m -0.347,2.52213 q 0,-0.626301 0.47395,-1.03255 0.47396,-0.414713 1.15104,-0.414713 0.65169,0 1.11719,0.414713 0.47396,0.406249 0.47396,1.03255 0,0.617838 -0.44011,1.041014 -0.4401,0.414713 -1.05794,0.414713 -0.78711,0 -1.2526,-0.43164 -0.46549,-0.43164 -0.46549,-1.024087 z"
         id="path3" /></g></g></svg>
