<?xml version="1.0" encoding="UTF-8" standalone="no"?>
<!--?xml version="1.0" encoding="UTF-8" standalone="no"?-->

<svg
   viewBox="0 0 232 232"
   version="1.1"
   class="si-glyph si-glyph-global"
   id="svg5"
   sodipodi:docname="3.1_cancelling_out_noise.svg"
   inkscape:version="1.3 (0e150ed6c4, 2023-07-21)"
   xml:space="preserve"
   width="232"
   height="232"
   xmlns:inkscape="http://www.inkscape.org/namespaces/inkscape"
   xmlns:sodipodi="http://sodipodi.sourceforge.net/DTD/sodipodi-0.dtd"
   xmlns="http://www.w3.org/2000/svg"
   xmlns:svg="http://www.w3.org/2000/svg"
   xmlns:rdf="http://www.w3.org/1999/02/22-rdf-syntax-ns#"
   xmlns:cc="http://creativecommons.org/ns#"
   xmlns:dc="http://purl.org/dc/elements/1.1/"><sodipodi:namedview
     id="namedview5"
     pagecolor="#505050"
     bordercolor="#eeeeee"
     borderopacity="1"
     inkscape:showpageshadow="0"
     inkscape:pageopacity="0"
     inkscape:pagecheckerboard="0"
     inkscape:deskcolor="#505050"
     inkscape:zoom="1.4142136"
     inkscape:cx="-42.426407"
     inkscape:cy="-20.85965"
     inkscape:window-width="2880"
     inkscape:window-height="1706"
     inkscape:window-x="2869"
     inkscape:window-y="-11"
     inkscape:window-maximized="1"
     inkscape:current-layer="svg5" /><!-- Generator: Sketch 3.0.3 (7891) - http://www.bohemiancoding.com/sketch --><title
     id="title1">108</title><defs
     id="defs1" /><metadata
     id="metadata1"><rdf:RDF><cc:Work
         rdf:about=""><dc:title>108</dc:title></cc:Work></rdf:RDF></metadata><path
     style="fill:#f9f6f1;fill-opacity:1;stroke-width:0.648755"
     d="m 617.11925,388.34173 c 1.45819,-9.21303 4.80372,-18.30416 8.6578,-23.52669 4.32904,-5.86614 15.06457,-12.09782 28.70115,-16.66024 3.79176,-1.26861 7.33228,-2.30658 7.86782,-2.30658 0.53555,0 1.33422,-0.43436 1.77482,-0.96526 0.65898,-0.79403 0.14524,-2.12358 -2.89616,-7.49513 -2.03348,-3.59144 -3.53994,-6.93982 -3.34767,-7.44087 0.19227,-0.50104 1.60427,-1.69805 3.13778,-2.66004 10.12363,-6.35063 21.27775,-16.71459 21.27775,-19.77045 0,-0.44889 -0.78319,-2.73668 -1.74042,-5.08397 -1.47275,-3.61146 -1.76081,-5.35342 -1.87298,-11.32659 l -0.13257,-7.05879 -7.01614,-3.64568 c -4.52876,-2.35322 -8.23471,-4.83327 -10.45338,-6.99547 -3.01122,-2.9346 -3.43723,-3.66912 -3.43723,-5.92638 0,-1.98563 0.34824,-2.80478 1.51835,-3.57147 2.60286,-1.70545 6.94337,-2.54574 15.32066,-2.96594 l 8.08082,-0.40533 4.3805,-18.69048 c 2.6446,-11.28382 4.96975,-19.74498 5.86744,-21.35148 3.28521,-5.87916 7.5775,-6.80429 19.14217,-4.12574 9.92674,2.29917 17.05682,2.69492 25.4391,1.41195 14.30538,-2.18952 18.23913,-0.80208 21.1546,7.46126 0.53238,1.5089 2.55354,11.04864 4.49148,21.1994 1.93795,10.15076 3.66454,18.59695 3.8369,18.76929 0.17233,0.17235 3.36643,0.83307 7.09797,1.46827 15.4734,2.63393 18.68587,7.07269 11.1693,15.43293 -3.05972,3.40314 -7.79409,6.02137 -13.15609,7.27567 -3.26863,0.7646 -3.40597,0.88396 -3.40597,2.96025 0,2.50378 -1.53235,10.1578 -2.59114,12.94261 -0.39853,1.04821 -0.56273,2.55074 -0.36489,3.33898 0.79284,3.15897 10.24104,10.83567 20.99573,17.05915 2.60711,1.50866 5.03142,3.38219 5.38735,4.16339 0.7777,1.70685 0.44938,2.58895 -3.25353,8.74148 -2.80692,4.66377 -2.83553,4.76908 -1.6219,5.96822 0.67949,0.67137 4.41764,2.2594 8.307,3.52897 13.66153,4.45941 24.67404,10.81376 28.98387,16.72407 4.0114,5.50105 7.04457,13.6643 8.68138,23.3645 l 0.41051,2.43282 h -70.12418 -84.3968 l 12.93587,-15.44198 c 7.10303,-8.47912 7.58086,-11.04853 5.98116,-15.25606 -0.50908,-1.33899 -0.18802,-2.15508 2.04402,-5.19559 l 2.64796,-3.60709 2.33509,1.18926 c 6.53307,3.32733 17.08182,4.30886 24.11285,2.24364 11.46022,-3.36616 20.20708,-12.11303 23.57327,-23.57326 1.17214,-3.99059 1.34125,-12.52596 0.33473,-16.89404 -2.75392,-11.95139 -13.18714,-22.11545 -25.73652,-25.07256 -7.74459,-1.82493 -17.34555,-0.25159 -24.67456,4.0435 -7.21781,4.22992 -13.88971,13.6864 -15.64758,22.17827 -2.04598,9.88364 0.93405,21.15832 7.58489,28.69674 l 2.5944,2.94063 -2.62799,3.54693 c -2.46623,3.32859 -2.80369,3.55081 -5.4824,3.61001 -1.72312,0.0381 -3.54686,0.56691 -4.60157,1.33433 -0.96093,0.6992 -5.68835,6.5672 -10.50536,13.03999 l -17.84078,22.14884 -12.51839,0.19642 -26.79102,0.1964 z m 95.55866,-43.04713 c -4.76015,-1.57737 -7.63414,-3.38712 -10.61013,-6.68119 -6.35087,-7.02964 -8.10564,-18.15816 -4.24087,-26.89511 1.78283,-4.03037 7.3441,-9.65678 11.60601,-11.74194 5.10666,-2.49845 13.69888,-2.88247 19.08483,-0.85296 10.38751,3.91419 16.85523,14.21798 15.82821,25.21609 -0.77793,8.33078 -6.5728,16.48108 -14.12909,19.87214 -5.28505,2.3718 -12.33577,2.80715 -17.53896,1.08297 z"
     id="path5"
     sodipodi:nodetypes="ssssssssssscssssscsssssssssssssssssssscccssscsssssssscsssscccsssssssss" /><path
     id="path8"
     style="fill:#f9f6f1;fill-opacity:1;stroke:#f9f6f1;stroke-width:2.27299;stroke-dasharray:none;stroke-opacity:1"
     d="m -67.581422,209.77634 c -1.139605,1.92483 -3.41225,-21.21731 -5.473903,-60.42458 -0.362885,-6.90092 -1.474007,-12.21376 -3.058875,-14.63356 -1.770495,-2.7032 -2.489216,-6.94877 -2.489216,-14.72255 0,-7.31019 -0.525136,-10.66741 -1.590246,-10.14767 -0.875457,0.42718 -1.480266,1.67287 -1.344008,2.76881 0.136259,1.09594 0.06486,6.03896 -0.157236,10.9863 l -0.403506,8.99517 -1.192694,-11.39389 c -1.098697,-10.49945 0.133219,-28.363131 2.771077,-40.178417 0.682371,-3.056343 1.506864,4.778489 2.269669,21.588397 0.918795,20.247 1.770359,27.36246 3.658184,30.58359 1.82778,3.11862 2.777671,10.20996 3.699701,27.58517 1.380162,26.00805 1.669343,28.88266 2.616804,22.80416 0.477875,-6.86644 1.235487,-15.13398 1.415205,-18.90859 0.117725,-2.47316 0.462823,-12.3798 0.806994,-22.06393 0.34417,-9.68414 0.682765,-19.09848 0.806992,-20.82475 0.236016,-3.27967 1.091286,-17.41606 1.854302,-24.645356 l 0.442074,0.03037 c 0.152542,-3.331308 0.789099,-9.03349 1.999689,-16.149137 2.502265,-14.70806 2.846741,-15.849437 3.233898,-10.039926 l 0.507347,-0.02806 1.596186,18.255038 c 0.422568,0.950487 0.918218,1.60351 1.415205,1.360982 0.781352,-0.38127 1.425412,0.552326 1.433009,2.075459 0.0076,1.523122 0.457491,5.688761 0.999837,9.25517 0.189227,1.24432 0.133068,1.70689 0.192844,2.52521 l 0.103901,-0.0282 c 0,0 0.03176,0.0882 0.03554,0.10542 0.0046,0.0173 0.006,0.029 0.009,0.0445 0.006,0.0314 0.01063,0.0735 0.02081,0.14757 0.02095,0.14817 0.05849,0.42316 0.121675,0.94872 0.126384,1.05112 0.36161,3.10572 0.798092,7.13523 l -0.08599,0.007 c 0.51529,1.89019 0.954038,4.36016 1.053245,7.21489 l 0.269982,7.79582 0.311525,-1.99817 2.474393,-41.455074 0.09783,0.0049 c -0.0726,-0.991062 -0.204281,-1.816083 -0.178017,-3.026487 0.154775,-7.131856 0.223572,-7.262942 1.406318,-2.698559 0.683709,2.638575 1.670285,6.838133 2.192518,9.330136 0.522233,2.491994 1.611132,4.20733 2.41802,3.813584 0.806902,-0.393737 1.001599,-1.309477 0.433171,-2.035639 -0.64467,-0.823552 -0.168797,-1.05807 1.266857,-0.623101 1.9464,0.589716 2.453687,-1.535401 3.28731,-13.776194 0.542147,-7.960906 1.11185,-18.843022 1.263907,-24.181536 0.357704,-12.558732 2.318674,36.611815 2.569316,64.42555 0.137323,15.23422 0.670782,21.12465 1.866181,20.54132 1.120693,-0.54685 1.334498,-3.35396 0.640841,-8.46811 -0.702741,-5.18112 -0.508622,-7.64824 0.602287,-7.64824 0.982961,0 1.698948,3.00305 1.789027,7.49599 0.08264,4.12276 0.612906,10.46437 1.177855,14.09242 0.959293,6.16059 1.098848,5.73374 2.127258,-6.48167 0.605644,-7.19381 1.2266,-20.95645 1.379615,-30.58358 l 0.278881,-17.505442 1.305424,13.192922 c 0.368233,3.72087 0.754738,11.1945 1.088853,20.07515 l 1.61695,-64.116351 0.228464,0.0049 c 0.22033,-11.794274 0.59078,-19.865077 1.278757,-19.529378 0.94184,0.459588 1.606073,12.906995 1.747496,32.755062 0.125473,17.606586 0.706085,29.581453 1.290598,26.613057 0.163981,-0.832821 0.306149,-1.109281 0.433172,-1.091609 0.50759,-10.690886 0.975092,-20.17508 1.15115,-23.736469 -0.121829,-7.201137 0.16591,-16.715401 0.931601,-25.844709 0.539428,-6.431536 1.2213893,-11.693711 1.5131231,-11.693711 0.2917326,0 0.5280963,11.064061 0.5280963,24.586796 0,7.035737 -0.1462839,12.242786 -0.3589959,16.371668 l 0.085979,-0.0025 c 0.2204895,5.396397 0.8680594,18.132945 1.4597134,29.543514 0.1005612,1.2227 0.2020631,2.50634 0.3322921,5.05978 0.4878262,9.56486 1.1408186,16.85096 1.4508106,16.19131 0.1815264,-0.38607 0.3540459,-0.33232 0.5192113,-0.0656 0.6021352,-7.01786 1.0297629,-12.00632 1.3558563,-15.84228 -0.049217,-4.87732 0.2828465,-12.805863 0.8485396,-18.87345 l 1.1155559,-11.993047 0.9642446,8.395488 c 0.5301164,4.617514 1.0613434,12.983029 1.1778539,18.590019 0.1285111,6.18363 0.7237205,9.55706 1.5131083,8.57351 1.5322329,-1.90911 2.9585733,5.97538 4.6936274,25.93607 0.6488031,7.46404 1.6038561,13.9064 2.1242821,14.31731 0.197826,0.15619 0.394436,-0.75186 0.578545,-2.08246 l -0.112716,-0.005 c 0,0 0.612951,-8.66812 0.833685,-11.64922 0.0966,-3.43889 0.205009,-6.10769 0.347133,-6.7089 0.111349,-2.44971 0.240357,-5.31228 0.373821,-8.37206 0.295106,-6.76508 0.601665,-13.91285 0.723933,-16.51927 l 0.234373,0.007 c -0.101615,-2.18974 -0.221674,-3.7509 -0.272942,-7.59436 -0.131246,-9.839698 0.07686,-17.641565 0.462824,-17.336781 0.386019,0.304775 1.434936,6.699152 2.33198,14.209548 1.301656,10.898103 2.190588,13.964603 4.399891,15.186383 1.522541,0.842 3.649041,4.11898 4.726256,7.28047 1.077204,3.16148 2.434031,6.17469 3.014368,6.69717 1.054218,0.9491 2.835105,-24.75798 3.299175,-47.615829 L 29.7416,67.833763 30.845279,79.227638 c 0.577192,5.960458 0.844985,15.160372 0.940502,23.563132 h 0.006 c 0,0 1.801029,23.08271 1.898809,26.71142 0.01519,0.56578 0.04572,3.57334 0.06532,5.02231 0.01793,0.48094 0.03675,0.9632 0.05332,1.43829 0.166277,4.74476 0.261093,8.98111 0.261093,8.98111 l -0.183939,0.002 c 0.0016,0.16926 0.0046,0.21005 0.006,0.37948 0.03281,2.79438 0.07078,5.42174 0.106789,7.9223 0.05849,1.67986 0.117731,2.59467 0.175056,4.53742 0.05802,1.96537 0.006,2.87567 0.02963,4.55379 0.155157,3.31576 0.510599,10.21439 0.881171,16.86829 0.06029,-0.0466 0.104046,-0.19603 0.169116,-0.21316 0.876019,-0.23055 1.596031,-2.39747 1.602109,-4.81618 0.006,-2.41869 0.507845,-8.17717 1.115557,-12.79467 0.22368,-1.69962 0.419364,-2.42241 0.623052,-3.37789 l -0.201761,-0.012 c 0,0 0.995645,-11.2318 1.041384,-13.75979 0.0474,-2.62003 0.09494,-6.89162 0.09494,-6.89162 l 0.33823,0.002 c -0.06426,-4.43112 0.09448,-8.70644 0.49249,-13.22101 l -0.293707,-0.0445 c 0.06486,-0.26873 0.219927,-1.57487 0.37086,-3.2186 0.150839,-1.64374 0.31458,-3.69305 0.468762,-5.69225 0.259485,-3.36456 0.451066,-6.10106 0.516234,-7.03921 -7.15e-4,-0.0451 -0.02081,-0.0715 -0.02081,-0.11717 0,-0.13601 0.04799,-0.21685 0.05347,-0.34904 0.0016,-0.0277 0.02081,-0.29514 0.02081,-0.29514 h 0.0237 c 0.125167,-1.63057 0.588311,-2.95389 1.222362,-2.95389 1.942269,0 3.170723,7.42742 3.468304,20.98874 l 0.264042,11.99355 1.091815,-13.79258 c 0.60182,-7.58593 1.572825,-27.825101 2.156941,-44.975851 0.584108,-17.150772 1.480522,-31.992824 1.990778,-32.982293 0.901446,-1.748081 2.451725,23.004164 2.898652,40.99596 0.427087,6.993595 1.330475,21.755314 1.967053,32.171764 0.702327,-1.1108 1.667321,-9.16516 2.263723,-19.541059 0.652632,-11.354138 1.67111,-25.231915 2.260769,-30.83889 l 1.071054,-10.194533 0.465801,9.594846 0.465801,9.594847 1.142263,-7.795818 c 0.629544,-4.287691 1.651967,-17.448892 2.272628,-29.248356 0.620681,-11.799455 1.663845,-20.69935 2.317145,-19.777669 0.942583,1.329871 4.077691,53.286789 4.589762,76.060713 0.08424,3.750159 0.381159,4.243989 1.412245,2.349528 0.09707,-0.17832 0.17178,-0.170957 0.258125,-0.262359 0.131238,-1.699115 0.262299,-3.530124 0.385699,-5.392424 0.308362,-4.65402 0.569252,-9.223425 0.664584,-10.728602 0.107836,-1.703296 0.41363,-3.987453 0.670512,-5.741451 0.109882,-2.073463 0.195131,-4.200863 0.394592,-6.060023 1.040137,-9.694739 1.190102,-10.01812 3.047,-6.59646 1.073955,1.97893 2.373522,7.106185 2.886774,11.393892 3.19741,26.711158 4.890337,19.889225 6.325411,-25.486318 1.209109,-38.229908 1.364545,-39.830627 2.251886,-23.087602 0.52441,9.894682 1.122601,30.403676 1.329166,45.575525 0.410727,30.168903 2.300973,64.472823 2.907549,52.771663 0.382852,-7.38599 2.630928,-19.41398 3.026238,-16.19132 0.12136,0.98946 0.8691,5.30716 1.6644,9.59486 0.79532,4.28768 1.88102,15.35176 2.41208,24.58679 1.80242,31.34269 3.12218,25.30603 4.32575,-19.78936 0.66022,-24.736697 1.36148,-46.325139 1.55761,-47.974238 0.19614,-1.649123 0.46259,-5.863232 0.59338,-9.365294 0.13762,-3.684943 0.84769,-6.070487 1.6852,-5.661805 0.83369,0.406812 1.47773,10.734722 1.51905,24.359583 0.0395,13.008333 0.5607,26.348344 1.15708,29.646564 l 1.0829,5.99681 0.99389,-4.19777 c 0.713,-3.01005 1.05227,-1.49859 1.19568,5.33855 0.12942,6.17174 -0.32031,9.12409 -1.27577,8.36972 -2.04068,-1.61123 -4.4844,-15.8634 -4.81824,-28.10053 -0.15296,-5.606996 -0.75612,1.6791 -1.34102,16.1913 -2.44652,60.70153 -3.37798,78.65721 -4.05279,78.12444 -0.78529,-0.62003 -1.00473,-3.23197 -3.62849,-43.34312 -1.81359,-27.72523 -3.92107,-39.35167 -4.566041,-25.18647 -0.18021,3.95787 -0.48827,7.73585 -0.682388,8.39549 -0.194107,0.65965 -0.473712,2.54863 -0.623044,4.19774 l -0.26999,2.99839 -1.670364,-2.99839 c -0.917198,-1.64911 -1.812143,-3.40316 -1.990772,-3.8979 -0.178619,-0.49473 -0.526521,-12.09852 -0.771397,-25.78615 -0.244875,-13.687645 -0.713645,-22.86273 -1.041366,-20.389053 -0.327731,2.473653 -1.153789,4.497588 -1.836516,4.497588 -3.03498,0 -4.942855,-4.176046 -6.574614,-14.382914 -1.460944,-9.138639 -2.733557,-10.932226 -3.55726,-5.888993 l 0.231402,0.0233 c 0,0 -0.33688,2.103559 -0.634909,4.375775 -0.128817,1.610789 -0.281557,2.886954 -0.364927,5.078522 -0.184148,4.841658 -0.3388,6.450363 -0.516236,6.446538 -0.06337,1.006786 -0.117419,1.901967 -0.186906,2.951528 -0.308748,4.659713 -0.660637,9.376509 -0.955347,11.276779 h -0.01222 c -0.10177,2.94643 -0.387388,6.40721 -1.011693,9.90872 -1.041013,5.83857 -1.099288,5.71198 -2.219246,-4.79741 C 72.152363,103.87421 71.06349,86.709817 70.364042,71.668225 69.664606,56.626608 68.752566,44.052226 68.337651,43.724636 67.922746,43.397045 67.087843,53.276199 66.483353,65.678468 65.87887,78.080746 64.862877,91.46706 64.225547,95.423432 l -1.157085,7.191458 -0.436135,-8.995166 -0.433152,-8.995173 -1.115563,10.194525 c -0.61314,5.607244 -1.63906,20.835824 -2.278477,33.839914 -0.639397,13.00407 -1.741004,23.36216 -2.447664,23.01732 -0.706691,-0.34482 -1.284681,-7.91389 -1.284681,-16.81909 0,-3.9483 0.147501,-7.25043 0.335272,-9.97668 -0.197646,-3.22996 -0.631714,-10.30517 -1.204558,-19.68396 -0.05532,-0.2089 -0.126238,-2.02584 -0.183961,-3.00542 -0.533742,-8.739053 -0.994366,-16.285954 -1.133339,-18.561896 -0.88631,-3.859411 -2.129437,8.456957 -2.943161,32.778486 -0.474449,14.18237 -1.39507,34.42151 -2.044143,44.97584 l -1.180832,19.18969 -0.943469,-13.19291 C 45.25428,160.12427 44.741647,144.6076 44.635313,132.8989 44.5147,119.60782 43.868832,111.61033 42.920446,111.61033 c -0.07792,0 -0.144614,-0.0782 -0.219548,-0.10543 -0.08643,1.1879 -0.169177,2.35442 -0.275921,3.73861 -0.154379,2.00176 -0.323009,4.05186 -0.4747,5.70397 -0.08917,0.97069 -0.166246,1.7555 -0.240314,2.36358 -0.11408,2.65207 -0.05893,3.38469 -0.299663,7.48895 -0.16901,2.88159 -0.338202,4.49845 -0.510309,6.55195 h 0.14841 c 0,0 -0.04755,4.27382 -0.09494,6.90098 -0.04913,2.71868 -1.047206,13.8249 -1.047206,13.8249 l -0.344169,-0.0187 c 0.06684,3.0754 -0.766211,11.43153 -2.174733,20.71467 -2.728271,17.98128 -2.833843,18.29778 -3.272469,9.61592 -0.03934,-0.77804 0.03782,-1.18449 0.02674,-1.88336 l -0.166153,0.007 c -0.400086,-6.25451 -0.881914,-15.74316 -1.154127,-21.35181 -0.006,-0.10566 -0.009,-0.19068 -0.01519,-0.2975 -0.04543,-0.9382 -0.132766,-2.64906 -0.160215,-3.2467 -0.09661,-2.09713 -0.18988,-9.21723 -0.272957,-16.28264 -0.05636,-4.7937 -0.09478,-7.61398 -0.136411,-10.72628 -0.162933,-4.34226 -0.381402,-8.81703 -0.628976,-10.57635 -0.145069,-1.03089 -0.277136,-2.01713 -0.394603,-2.92343 -0.130336,-0.0424 -0.276893,-0.503 -0.445036,-1.70299 -0.806355,-5.75469 -1.059671,-4.13307 -1.263893,8.09566 -0.266472,15.95762 -2.360068,20.28524 -4.061675,8.39547 -1.294259,-9.04357 -4.982689,-18.27673 -8.53574,-21.36587 -1.566305,-1.36181 -2.954321,-3.52065 -3.085564,-4.79741 -0.131246,-1.27678 -0.708743,0.37713 -1.281697,3.67537 -0.05468,0.31457 -0.09433,0.266 -0.145373,0.48723 -0.150994,3.42622 -0.306073,6.94387 -0.516248,11.76166 -0.295116,6.76562 -0.576231,13.10637 -0.661616,14.21894 -0.136259,1.77469 -0.584424,8.12909 -0.7536,10.52716 -0.535798,8.05568 -1.57273,15.27234 -2.4743762,13.37797 -0.9398641,-1.97464 -2.7288471,-15.07301 -3.8065195,-27.87566 -0.4249682,-5.04863 -2.2733301,-4.31981 -2.5129607,0.99088 -0.3210656,7.11598 -2.2457587,-7.44906 -2.866017,-21.68912 l -0.4450353,-10.19454 -0.068198,0.48957 c -0.077183,0.90526 -1.7214677,20.19594 -2.4803226,28.89703 0.1312446,3.80382 0.1148455,7.89967 -0.2788833,10.79186 -0.5837071,4.28769 -1.1923729,13.19291 -1.3529067,19.78937 -0.2666691,10.95713 -0.3926894,11.4235 -1.4478342,5.3971 -0.635206,-3.62806 -1.0791158,-22.78779 -0.9879734,-42.57713 0.013664,-2.98948 0.051344,-2.88543 0.068203,-5.3362 l -0.065321,0.002 c 0,0 -1.3271306,-25.128762 -2.0323174,-39.705239 -0.267748,-0.05474 -0.487341,-0.683536 -0.682388,-1.602262 -0.473653,9.684752 -0.992287,20.467461 -1.272794,27.039401 -0.04694,7.997 -0.34405,18.06795 -0.979071,26.79811 -1.108994,15.24622 -1.879286,10.51398 -1.590257,-9.78225 0.105269,-7.39249 -0.455487,-12.48927 -1.427071,-12.96337 -0.692533,-0.33794 -1.077049,-7.80396 -1.320263,-18.526748 l -1.26389,50.061748 c 0.0237,1.29442 0.08188,2.52783 0.100864,3.80421 0.417674,28.12852 0.279334,31.20795 -0.786215,17.39023 -1.758133,-22.79835 -2.403712,-24.28642 -2.863056,-6.59646 -0.433279,16.68563 -2.176992,14.41912 -3.919264,-5.09725 -1.624924,-18.20191 -3.692334,-11.53258 -3.904423,12.59323 -0.139601,15.88041 -0.57183,21.21559 -1.385539,17.09081 -0.650654,-3.29822 -1.331019,-24.34695 -1.510145,-46.77487 -0.222784,-27.89288 -0.720515,-38.364314 -1.578382,-33.13924 -1.614899,9.83583 -2.919426,10.80003 -2.919426,2.15742 0,-3.73798 -0.683571,-6.797889 -1.519048,-6.797889 -0.835478,0 -1.567065,0.674628 -1.625853,1.499199 -0.21285,2.98884 -2.720583,-3.400078 -2.824486,-7.196136 -0.05211,-1.901762 -0.64198,-3.421382 -1.355856,-3.757367 l -2.207374,36.964523 c 0.05211,1.65574 0.133677,2.05207 0.172078,4.50227 0.136258,8.70136 -0.366652,16.12104 -1.115543,16.48647 -1.278414,0.62382 -1.976752,-4.29693 -4.040909,-28.40975 -0.251676,-2.94001 -0.2739,-4.60445 -0.234389,-5.98275 -0.261215,-2.40501 -0.43586,-3.95225 -0.566665,-5.09257 -0.86572,-0.23386 -1.485219,0.2563 -1.593222,1.4102 -0.448302,4.79223 -2.562087,-10.350861 -2.459551,-17.620219 6.38e-4,-0.04497 0.0046,-0.04686 0.006,-0.09139 l -0.314488,0.0165 -0.934563,-10.686449 c -0.157175,0.781386 -0.259363,1.833284 -0.468762,2.267522 -0.821608,1.703732 -1.999235,6.874761 -2.616804,11.492258 -0.178958,1.338108 -0.381142,2.064128 -0.578543,3.028851 l 0.290761,0.01872 c -0.756034,7.162917 -1.609694,21.286387 -1.848382,24.603167 -0.113168,1.57195 -0.462854,11.10373 -0.806994,20.78726 -0.34416,9.68355 -0.687403,19.5663 -0.806998,22.07798 -0.239629,5.03265 -1.473141,17.68711 -1.756399,24.69454 -0.01945,0.48001 -0.0442,0.78849 -0.06532,1.2298 3.96e-4,0.0585 0.003,0.0487 0.003,0.10772 0.07762,12.07911 -0.205922,18.13438 -0.723918,19.00931 z m -21.266664,-85.27373 0.489544,-12.29341 0.320412,12.75487 z m 1.794968,-21.13398 c -0.09342,-0.0153 -0.190686,-0.25953 -0.284821,-0.75428 -0.376495,-1.97893 -0.151951,-12.503283 0.498444,-23.387426 1.276,-21.353835 3.192036,-21.477338 3.500919,-0.22723 0.115898,7.971575 -0.361655,12.09902 -1.341031,11.621105 -0.948265,-0.462707 -1.602504,2.327883 -1.744534,7.425691 -0.09388,3.36862 -0.348819,5.36827 -0.628977,5.32214 z M 90.874202,82.82499 c 0.07324,-0.07008 0.153125,-0.363553 0.237362,-0.899515 0.336966,-2.143854 0.336966,-5.651981 0,-7.79581 -0.336977,-2.143853 -0.61415,-0.389806 -0.61415,3.897901 0,3.21576 0.157097,5.007542 0.376788,4.797424 z"
     sodipodi:nodetypes="cssssscccsssscsssccscccscscccscscccccccsssssssssssssssccscccsssccssscccsscccccssssccccsccsssssscccccscsccscsccsssccsccccsscscccscccssccscccccsssscsscssssssssssssssscccsssssssscccssssscccscsccssssscccccsssccccscccsscsscsccsccssccccsscscsssssscsscsssccccsssscccccsssccsssssssssscsccssscccscccssccsssscsscsccsssssssssssss" /><path
     style="fill:none;fill-opacity:1;stroke:#f9f6f1;stroke-width:4.13887;stroke-miterlimit:4.3;stroke-dasharray:none;stroke-opacity:1;paint-order:fill markers stroke"
     d="m 116.43403,119.23064 c 1.74543,-10.12272 2.17266,-12.99567 4.95518,-10.10347 2.78251,2.89221 3.24627,5.78442 6.26065,4.95807 3.01439,-0.82635 3.7732,-0.4087 7.18816,0.20659 5.51224,0.99316 7.08413,-1.23677 9.63476,-1.03019 2.55065,0.20659 19.26399,-0.002 23.90152,0.41042 4.63753,0.41318 14.60019,0.41826 22.72387,0.61977 9.52988,0.23639 40.23166,0 40.23166,0"
     id="path37"
     sodipodi:nodetypes="cssssssc" /><g
     id="g2"
     transform="matrix(1.2671039,0,0,1.2961233,-45.718582,-19.402914)"><rect
       style="fill:#f9f6f1;fill-opacity:1;stroke:none;stroke-width:4.36999;stroke-miterlimit:4.3;stroke-dasharray:none;paint-order:fill markers stroke"
       id="rect1"
       width="35.816467"
       height="11.963573"
       x="150.06349"
       y="66.073135"
       rx="0"
       ry="0" /><path
       style="fill:#f9f6f1;fill-opacity:1;stroke:none;stroke-width:4.60755;stroke-miterlimit:4.3;stroke-dasharray:none;paint-order:fill markers stroke"
       d="m 182.44474,85.75041 -0.0677,-27.39096 12.69072,13.682706 z"
       id="path1"
       sodipodi:nodetypes="cccc" /></g></svg>
