<?xml version="1.0" encoding="UTF-8" standalone="no"?>
<!--?xml version="1.0" encoding="UTF-8" standalone="no"?-->

<svg
   viewBox="0 0 232 232"
   version="1.1"
   class="si-glyph si-glyph-global"
   id="svg5"
   sodipodi:docname="3.2_studying_hidden_effects.svg"
   inkscape:version="1.3 (0e150ed6c4, 2023-07-21)"
   xml:space="preserve"
   width="232"
   height="232"
   xmlns:inkscape="http://www.inkscape.org/namespaces/inkscape"
   xmlns:sodipodi="http://sodipodi.sourceforge.net/DTD/sodipodi-0.dtd"
   xmlns="http://www.w3.org/2000/svg"
   xmlns:svg="http://www.w3.org/2000/svg"
   xmlns:rdf="http://www.w3.org/1999/02/22-rdf-syntax-ns#"
   xmlns:cc="http://creativecommons.org/ns#"
   xmlns:dc="http://purl.org/dc/elements/1.1/"><sodipodi:namedview
     id="namedview5"
     pagecolor="#505050"
     bordercolor="#eeeeee"
     borderopacity="1"
     inkscape:showpageshadow="0"
     inkscape:pageopacity="0"
     inkscape:pagecheckerboard="0"
     inkscape:deskcolor="#505050"
     inkscape:zoom="1.4142136"
     inkscape:cx="182.43355"
     inkscape:cy="-32.173358"
     inkscape:window-width="1920"
     inkscape:window-height="986"
     inkscape:window-x="-11"
     inkscape:window-y="-11"
     inkscape:window-maximized="1"
     inkscape:current-layer="svg5" /><!-- Generator: Sketch 3.0.3 (7891) - http://www.bohemiancoding.com/sketch --><title
     id="title1">108</title><defs
     id="defs1" /><metadata
     id="metadata1"><rdf:RDF><cc:Work
         rdf:about=""><dc:title>108</dc:title></cc:Work></rdf:RDF></metadata><path
     style="fill:#f9f6f1;fill-opacity:1;stroke-width:0.648755"
     d="m 7.5932092,184.69498 c 1.458192,-9.21303 4.8037198,-18.30416 8.6578008,-23.52669 4.329042,-5.86614 15.064567,-12.09782 28.701149,-16.66024 3.791755,-1.26861 7.332275,-2.30658 7.867821,-2.30658 0.535547,0 1.334214,-0.43436 1.774815,-0.96526 0.658987,-0.79403 0.145242,-2.12358 -2.896156,-7.49513 -2.033486,-3.59144 -3.539938,-6.93982 -3.347671,-7.44087 0.192268,-0.50104 1.60427,-1.69805 3.137783,-2.66004 10.123623,-6.35063 21.277742,-16.71459 21.277742,-19.77045 0,-0.44889 -0.783188,-2.73668 -1.740417,-5.083977 -1.472749,-3.611454 -1.760804,-5.353419 -1.872981,-11.326587 L 69.02053,80.40037 62.00439,76.754688 c -4.528767,-2.353221 -8.234715,-4.833271 -10.453378,-6.99547 -3.011227,-2.934601 -3.437238,-3.669116 -3.437238,-5.926376 0,-1.985639 0.348248,-2.804789 1.518349,-3.571473 2.602861,-1.705456 6.94337,-2.545741 15.320667,-2.965943 l 8.080816,-0.405327 4.380505,-18.690485 c 2.644598,-11.283817 4.969746,-19.744978 5.867435,-21.351478 3.285208,-5.87916 7.577505,-6.804286 19.142174,-4.125739 9.92674,2.299172 17.05682,2.694919 25.4391,1.411953 14.30538,-2.189518 18.23913,-0.802084 21.1546,7.461261 0.53238,1.508901 2.55354,11.048639 4.49148,21.199394 1.93795,10.150766 3.66454,18.596954 3.8369,18.769294 0.17233,0.17235 3.36643,0.833069 7.09797,1.468271 15.4734,2.633924 18.68587,7.072684 11.1693,15.432924 -3.05972,3.403146 -7.79409,6.021372 -13.15609,7.275674 -3.26863,0.7646 -3.40597,0.883963 -3.40597,2.960247 0,2.503778 -1.53235,10.157798 -2.59114,12.942615 -0.39853,1.04821 -0.56273,2.55074 -0.36489,3.33898 0.79284,3.15897 10.24104,10.83567 20.99573,17.05915 2.60711,1.50866 5.03142,3.38219 5.38735,4.16339 0.7777,1.70685 0.44938,2.58895 -3.25353,8.74148 -2.80692,4.66377 -2.83553,4.76908 -1.6219,5.96822 0.67949,0.67137 4.41764,2.2594 8.307,3.52897 13.66153,4.45941 24.67404,10.81376 28.98387,16.72407 4.0114,5.50105 7.04457,13.6643 8.68138,23.3645 l 0.41051,2.43282 H 153.86121 69.464403 l 12.935872,-15.44198 c 7.10303,-8.47912 7.58086,-11.04853 5.981162,-15.25606 -0.509083,-1.33899 -0.188021,-2.15508 2.044021,-5.19559 l 2.647964,-3.60709 2.33509,1.18926 c 6.533068,3.32733 17.081818,4.30886 24.112848,2.24364 11.46022,-3.36616 20.20708,-12.11303 23.57327,-23.57326 1.17214,-3.99059 1.34125,-12.52596 0.33473,-16.89404 -2.75392,-11.951397 -13.18714,-22.115448 -25.73652,-25.072561 -7.74459,-1.824928 -17.34555,-0.251593 -24.674558,4.043501 -7.217811,4.229913 -13.889712,13.6864 -15.647585,22.17827 -2.045983,9.88364 0.93405,21.15832 7.584887,28.69674 l 2.594401,2.94063 -2.627989,3.54693 c -2.466232,3.32859 -2.803684,3.55081 -5.482399,3.61001 -1.723123,0.0381 -3.546858,0.56691 -4.601567,1.33433 -0.960937,0.6992 -5.688353,6.5672 -10.505363,13.03999 l -17.840783,22.14884 -12.518388,0.19642 -26.7910148,0.1964 z M 103.15187,141.64785 c -4.760148,-1.57737 -7.634138,-3.38712 -10.610134,-6.68119 -6.350868,-7.02964 -8.105634,-18.15816 -4.240873,-26.89511 1.782831,-4.03037 7.344109,-9.656787 11.606019,-11.741946 5.106658,-2.49845 13.698878,-2.882471 19.084828,-0.852957 10.38751,3.914186 16.85523,14.217983 15.82821,25.216093 -0.77793,8.33078 -6.5728,16.48108 -14.12909,19.87214 -5.28505,2.3718 -12.33577,2.80715 -17.53896,1.08297 z"
     id="path5"
     sodipodi:nodetypes="ssssssssssscssssscsssssssssssssssssssscccssscsssssssscsssscccsssssssss" /></svg>
