<?xml version="1.0" encoding="UTF-8" standalone="no"?>
<svg
   viewBox="0 0 232 232"
   version="1.1"
   id="svg1"
   sodipodi:docname="3.3_observational_datasets.svg"
   inkscape:version="1.3 (0e150ed6c4, 2023-07-21)"
   width="232"
   height="232"
   xmlns:inkscape="http://www.inkscape.org/namespaces/inkscape"
   xmlns:sodipodi="http://sodipodi.sourceforge.net/DTD/sodipodi-0.dtd"
   xmlns="http://www.w3.org/2000/svg"
   xmlns:svg="http://www.w3.org/2000/svg">
  <defs
     id="defs1" />
  <sodipodi:namedview
     id="namedview1"
     pagecolor="#505050"
     bordercolor="#eeeeee"
     borderopacity="1"
     inkscape:showpageshadow="0"
     inkscape:pageopacity="0"
     inkscape:pagecheckerboard="0"
     inkscape:deskcolor="#505050"
     inkscape:zoom="1.6815883"
     inkscape:cx="-239.35704"
     inkscape:cy="248.27718"
     inkscape:window-width="2880"
     inkscape:window-height="1706"
     inkscape:window-x="2869"
     inkscape:window-y="-11"
     inkscape:window-maximized="1"
     inkscape:current-layer="svg1" />
  <!--!Font Awesome Free 6.5.2 by @fontawesome - https://fontawesome.com License - https://fontawesome.com/license/free Copyright 2024 Fonticons, Inc.-->
  <path
     d="M 25.243924,228.98241 C 22.761,228.98231 20.846842,226.46403 20.236353,224.22545 20.019978,223.43722 19.59898,78.070566 19.660802,50.114075 19.761298,10.748577 19.761298,9.6674664 20.309937,8.6627057 c 0.71868,-1.3100841 2.096535,-2.5438182 3.552443,-3.2052351 1.115881,-0.496121 2.385553,-0.5084854 61.613269,-0.5084854 19.898171,0 26.580351,0.00772 27.696241,0.5084854 1.45512,0.6614941 2.83144,1.895151 3.55398,3.2052351 0.54867,1.0047607 0.56413,2.0095973 0.56413,42.1127863 0,40.103186 0.35144,173.653508 -0.21269,174.658348 -0.71868,1.31009 -2.09885,2.55649 -3.55398,3.20524 -1.11589,0.49612 -4.67065,0.26428 -27.257298,0.56025 -38.099306,0.0309 -46.555778,-0.21635 -47.199491,-0.21637 z m 24.790599,-8.39455 v -5.26569 h -13.145668 -13.1472 v 4.10822 c 0,4.61709 0.185464,5.21475 1.90025,6.10515 0.409574,0.21637 4.034651,0.30524 12.487255,0.31761 h 11.905363 z m 32.983543,0 v -5.26569 H 68.41109 53.805656 v 5.26569 5.26567 H 68.41109 83.018066 Z m 29.009174,4.96042 c 1.75883,-0.83946 1.95974,-1.46277 1.95974,-6.11789 v -4.10822 H 100.40084 86.817796 v 5.26569 5.26567 h 12.288652 c 8.749352,0 12.470262,-0.0888 12.920792,-0.30525 z M 50.034523,206.50784 v -5.40556 h -13.145668 -13.1472 v 5.40556 5.39287 h 13.1472 13.145668 z m 32.983543,0 v -5.40556 H 68.41109 53.805656 v 5.40556 5.39287 H 68.41109 83.018066 Z m 30.968914,0 v -5.40556 H 100.40084 86.817796 v 5.40556 5.39287 h 13.583044 13.58614 z M 50.034523,191.89359 v -5.79983 h -13.145668 -13.1472 v 5.79983 5.78723 h 13.1472 13.145668 z m 32.983543,0 v -5.79983 H 68.41109 53.805656 v 5.79983 5.78723 H 68.41109 83.018066 Z m 30.968914,0 v -5.79983 H 100.40084 86.817796 v 5.79983 5.78723 h 13.583044 13.58614 z M 49.683081,44.059777 v -6.054222 h -13.145667 -13.1472 v 6.054222 6.054298 h 13.1472 13.145667 z m 32.983543,0 V 38.005555 H 68.059648 53.454215 v 6.054222 6.054298 h 14.605433 14.606976 z m 30.968916,0 V 38.005555 H 100.0494 86.466354 v 6.054222 6.054298 H 100.0494 113.63554 Z M 49.683081,29.051344 v -5.53283 h -13.145667 -13.1472 v 5.53283 5.532754 h 13.1472 13.145667 z m 32.983543,0 v -5.53283 H 68.059648 53.454215 v 5.53283 5.532754 h 14.605433 14.606976 z m 30.968916,0 v -5.53283 H 100.0494 86.466354 v 5.53283 5.532754 H 100.0494 113.63554 Z M 49.900699,177.06117 v -5.40555 h -13.145668 -13.1472 v 5.40555 5.39288 h 13.1472 13.145668 z m 32.983546,0 v -5.40555 H 68.277269 53.671832 v 5.40555 5.39288 h 14.605437 14.606976 z m 30.968925,0 v -5.40555 H 100.26701 86.683974 v 5.40555 5.39288 h 13.583036 13.58616 z M 49.900699,162.44693 v -5.79983 h -13.145668 -13.1472 v 5.79983 5.78722 h 13.1472 13.145668 z m 32.983546,0 V 156.6471 H 68.277269 53.671832 v 5.79983 5.78722 h 14.605437 14.606976 z m 30.968925,0 V 156.6471 H 100.26701 86.683974 v 5.79983 5.78722 h 13.583036 13.58616 z M 49.852914,147.66504 v -5.40556 H 36.707249 23.560048 v 5.40556 5.39287 h 13.147201 13.145665 z m 32.983543,0 v -5.40556 H 68.22948 53.624047 v 5.40556 5.39287 H 68.22948 82.836457 Z m 30.968933,0 v -5.40556 H 100.21923 86.636186 v 5.40556 5.39287 h 13.583044 13.58616 z M 49.852914,133.0508 v -5.79983 H 36.707249 23.560048 v 5.79983 5.78722 h 13.147201 13.145665 z m 32.983543,0 v -5.79983 H 68.22948 53.624047 v 5.79983 5.78722 H 68.22948 82.836457 Z m 30.968933,0 v -5.79983 H 100.21923 86.636186 v 5.79983 5.78722 h 13.583044 13.58616 z M 49.719087,118.21837 v -5.40555 h -13.145663 -13.1472 v 5.40555 5.39288 h 13.1472 13.145663 z m 32.983553,0 v -5.40555 H 68.095664 53.49022 v 5.40555 5.39288 H 68.095664 82.70264 Z m 30.96893,0 v -5.40555 H 100.0854 86.50237 v 5.40555 5.39288 h 13.58303 13.58617 z M 49.719087,103.60413 v -5.799833 h -13.145663 -13.1472 v 5.799833 5.78722 h 13.1472 13.145663 z m 32.983553,0 V 97.804297 H 68.095664 53.49022 v 5.799833 5.78722 H 68.095664 82.70264 Z m 30.96893,0 V 97.804297 H 100.0854 86.50237 v 5.799833 5.78722 h 13.58303 13.58617 z M 49.728653,88.492697 v -5.79983 H 36.582989 23.435788 v 5.79983 5.787219 h 13.147201 13.145664 z m 32.983543,0 v -5.79983 H 68.105219 53.499786 v 5.79983 5.787219 h 14.605433 14.606977 z m 30.968934,0 v -5.79983 H 100.09497 86.511925 v 5.79983 5.787219 h 13.583045 13.58616 z M 49.594826,73.660273 v -5.405552 h -13.145662 -13.1472 v 5.405552 5.392879 h 13.1472 13.145662 z m 32.983553,0 V 68.254721 H 67.971403 53.365959 v 5.405552 5.392879 h 14.605444 14.606976 z m 30.968921,0 V 68.254721 H 99.961144 86.378109 v 5.405552 5.392879 H 99.961144 113.5473 Z M 49.594826,59.046034 v -5.79983 h -13.145662 -13.1472 v 5.79983 5.78722 h 13.1472 13.145662 z m 32.983553,0 v -5.79983 H 67.971403 53.365959 v 5.79983 5.78722 h 14.605444 14.606976 z m 30.968921,0 v -5.79983 H 99.961144 86.378109 v 5.79983 5.78722 H 99.961144 113.5473 Z"
     fill="#e9e6df"
     id="path517"
     sodipodi:nodetypes="scsccsccscccssccccsscccccccccccccscccccscccccccccccccccccccccccccccccccccccccccccccccccccccccccccccccccccccccccccccccccccccccccccccccccccccccccccccccccccccccccccccccccccccccccccccccccccccccccccccccccccccccccccccccccccccccccccccccccccccccccccccccccccccccccccccccccccccccccccccccccccccccccccccccccccccccccccccccccccccccccccccccccccccccccccccccccccccccccccccccccccccccccccccccccccccccccccccccccc"
     style="display:inline;stroke-width:1.27278" />
  <path
     d="m 147.96277,225.74112 c -2.62619,-9e-5 -4.65078,-2.66368 -5.29649,-5.03141 -0.22886,-0.83371 -0.38821,-123.191535 -0.32282,-152.760996 0.10629,-41.636714 0.17356,-38.77122 0.31046,-39.974302 0.0832,-0.730737 0.56965,-1.524582 2.10957,-2.224161 1.18025,-0.524747 6.87599,-0.711832 31.73589,-0.509232 21.0455,0.171515 30.13787,0.0087 31.31813,0.537827 1.5391,0.699654 1.80085,0.72427 2.1112,2.186547 0.25139,1.184478 0.22055,-1.705475 0.22055,40.711492 0,42.416985 0.0857,152.276705 -0.51088,153.339515 -0.76014,1.38569 -2.21995,2.70399 -3.75904,3.39017 -1.18027,0.52475 -4.94012,0.27954 -28.82993,0.59259 -40.29746,0.0327 -13.78567,-0.25743 -14.46651,-0.25745 z m 26.2209,-8.87889 v -5.56949 h -13.9041 -13.90575 v 4.34524 c 0,4.8835 0.19617,5.51565 2.00988,6.4574 0.4332,0.22885 4.26745,0.32285 13.20772,0.33593 h 12.59225 z m 30.11326,5.27522 c 1.86031,-0.88789 2.07282,-1.54716 2.07282,-6.47087 v -4.34524 h -14.37 -14.36672 v 5.56948 5.56951 h 12.99765 c 9.25414,0 13.18972,-0.094 13.66625,-0.32288 z m -30.11326,-20.1676 v -5.71742 h -13.9041 -13.90575 v 5.71742 5.70404 h 13.90575 13.9041 z m 32.18608,0.0286 v -5.71743 h -14.37 -14.36672 v 5.71743 5.70403 h 14.36672 14.37 z m -32.18608,-15.48603 v -6.13445 h -13.9041 -13.90575 v 6.13445 6.12111 h 13.90575 13.9041 z m 32.18608,0.0286 v -6.13447 h -14.37 -14.36672 v 6.13447 6.12111 h 14.36672 14.37 z M 174.09789,61.545108 v -6.403523 h -13.90411 -13.90575 v 6.403523 6.403606 h 13.90575 13.90411 z m 32.18607,0.0286 V 55.17018 h -14.37 -14.36672 v 6.403525 6.403605 h 14.36672 14.37 z M 174.09789,45.670755 v -5.852049 h -13.90411 -13.90575 v 5.852049 5.851969 h 13.90575 13.90411 z m 32.18607,0.0286 v -5.852051 h -14.37 -14.36672 v 5.852048 5.851972 h 14.36672 14.37 z M 174.27752,171.12795 v -5.71743 H 160.3734 146.46767 v 5.71743 5.70403 h 13.90573 13.90412 z m 32.18609,0.0286 v -5.71742 h -14.37002 -14.36672 v 5.71742 5.70404 h 14.36672 14.37002 z m -32.18609,-15.48602 v -6.13446 H 160.3734 146.46767 v 6.13446 6.12112 h 13.90573 13.90412 z m 32.18609,0.0286 v -6.13446 h -14.37002 -14.36672 v 6.13446 6.12111 h 14.36672 14.37002 z m -32.32763,-15.71679 v -5.71744 h -13.90413 -13.90574 v 5.71744 5.70403 h 13.90574 13.90413 z m 32.18608,0.0286 v -5.71743 h -14.37001 -14.36673 v 5.71743 5.70403 h 14.36673 14.37001 z m -32.18608,-15.48612 v -6.13453 h -13.90413 -13.90574 v 6.13446 6.12111 h 13.90574 13.90413 z m 32.18608,0.0286 v -6.13445 h -14.37001 -14.36673 v 6.13445 6.12113 h 14.36673 14.37001 z M 174.1461,108.54147 v -6.13446 h -13.90412 -13.90574 v 6.13446 6.12111 h 13.90574 13.90412 z m 32.18608,0.0286 v -6.13446 h -14.37001 -14.36674 v 6.13446 6.12112 h 14.36674 14.37001 z M 174.00454,92.853427 V 87.135998 H 160.10042 146.1947 v 5.717429 5.704025 h 13.90572 13.90412 z m 32.18608,0.0286 v -5.717435 h -14.37 -14.36672 v 5.717429 5.704025 h 14.36672 14.37 z M 174.00454,77.396013 V 71.261557 H 160.10042 146.1947 v 6.134456 6.121117 h 13.90572 13.90412 z m 32.18608,0.0286 v -6.134467 h -14.37 -14.36672 v 6.134455 6.121118 h 14.36672 14.37 z"
     fill="#e9e6df"
     id="path517-8"
     sodipodi:nodetypes="scsscscsscccssccccssccccscccccsccccccccccccccccccccccccccccccccccccccccccccccccccccccccccccccccccccccccccccccccccccccccccccccccccccccccccccccccccccccccccccccccccccccccccccccccccccccccccccccccccccccccccccccccccccccccccccccccccccccc"
     style="display:inline;stroke-width:1.34621" />
</svg>
