<?xml version="1.0" encoding="UTF-8" standalone="no"?>
<svg
   width="232"
   height="232"
   xml:space="preserve"
   overflow="hidden"
   version="1.1"
   id="svg12"
   sodipodi:docname="3.4_mechanistic_inference_v2.svg"
   inkscape:version="1.3 (0e150ed6c4, 2023-07-21)"
   xmlns:inkscape="http://www.inkscape.org/namespaces/inkscape"
   xmlns:sodipodi="http://sodipodi.sourceforge.net/DTD/sodipodi-0.dtd"
   xmlns="http://www.w3.org/2000/svg"
   xmlns:svg="http://www.w3.org/2000/svg"><sodipodi:namedview
     id="namedview12"
     pagecolor="#505050"
     bordercolor="#eeeeee"
     borderopacity="1"
     inkscape:showpageshadow="0"
     inkscape:pageopacity="0"
     inkscape:pagecheckerboard="0"
     inkscape:deskcolor="#505050"
     inkscape:zoom="1.4142136"
     inkscape:cx="35.355339"
     inkscape:cy="82.37794"
     inkscape:window-width="1920"
     inkscape:window-height="986"
     inkscape:window-x="-11"
     inkscape:window-y="-11"
     inkscape:window-maximized="1"
     inkscape:current-layer="layer2"
     showguides="false" /><defs
     id="defs1"><clipPath
       id="clip0"><rect
         x="170"
         y="537"
         width="232"
         height="232"
         id="rect1" /></clipPath></defs><g
     inkscape:groupmode="layer"
     id="layer4"
     inkscape:label="frame" /><g
     inkscape:groupmode="layer"
     id="layer3"
     inkscape:label="person" /><g
     inkscape:groupmode="layer"
     id="layer1"
     inkscape:label="progress bars" /><g
     inkscape:groupmode="layer"
     id="layer2"
     inkscape:label="rule box"><g
       id="g1"
       transform="matrix(0.97706958,0,0,0.97706958,6.071288,-3.4768789)"><path
         id="path1"
         style="fill:#f9f6f1;fill-opacity:1;stroke-width:0.513779"
         d="m 168.18945,125.6543 c -0.93575,-0.0289 -1.52023,-0.029 -1.52929,0.006 -0.0182,0.0698 -0.1744,1.10789 -0.34571,2.30664 -0.76746,5.37036 -5.2824,8.34868 -10.65429,7.02734 -1.76642,-0.43449 -4.85797,-3.18498 -5.29493,-4.71094 -0.18437,-0.64387 -0.82828,-0.51752 -3.59179,0.70703 -1.85168,0.82051 -3.91194,1.86799 -4.57813,2.32618 l -1.21093,0.83203 0.95703,2.67383 c 0.673,1.87857 0.83244,3.18661 0.5332,4.39648 -1.3832,5.59255 -7.91677,8.48372 -12.31836,5.45117 l -1.58984,-1.0957 -1.0586,1.33594 c -1.77816,2.24435 -4.21982,6.76813 -3.7539,6.95507 3.49555,1.40256 5.87105,5.70625 5.07812,9.20118 -0.9418,4.15092 -4.56029,6.92767 -8.72461,6.69531 l -2.1875,-0.12305 -0.21484,3.97656 c -0.31728,5.87431 -0.15802,6.29605 2.44726,6.44141 5.6451,0.31499 9.42116,7.31507 6.56055,12.16406 -0.82191,1.39324 -3.4827,3.67279 -4.66211,3.99414 -0.69067,0.1882 0.60627,3.46229 2.81641,7.10938 l 1.35742,2.23828 1.92969,-0.99609 c 4.22926,-2.18733 9.41251,-0.33233 11.22656,4.01757 1.17745,2.82341 1.08122,4.76733 -0.35742,7.23829 -0.701,1.20407 -0.9626,2.15562 -0.69336,2.51953 0.23803,0.32171 1.92639,1.47717 3.7539,2.5664 3.22444,1.92183 3.34185,1.95039 3.97071,1.00196 1.25587,-1.89404 3.74486,-3.65673 5.75781,-4.08008 5.18043,-1.08953 10.0688,3.1538 9.77148,8.48242 l -0.10351,1.84766 5.06445,0.28125 5.0625,0.28125 0.47266,-2.48438 c 1.17792,-6.20426 7.20341,-9.13122 12.47461,-6.06055 1.06804,0.62219 2.31296,1.84871 2.76758,2.72657 0.45461,0.87787 1.03477,1.60702 1.28711,1.62109 0.61362,0.0343 6.10668,-2.54623 7.6289,-3.58398 l 1.21094,-0.82618 -0.95899,-2.67382 c -1.54536,-4.31371 0.14912,-8.44204 4.19727,-10.23047 2.62888,-1.16141 4.98459,-1.05665 7.36328,0.32812 2.12143,1.23506 1.98593,1.3245 4.82031,-3.20117 l 1.98243,-3.16406 -2.08399,-2.2461 c -5.247,-5.65022 -2.45417,-13.18105 5.26172,-14.1875 1.64041,-0.21399 1.93404,-0.47075 2.31836,-2.0332 0.24191,-0.98348 0.36384,-3.27018 0.27148,-5.08203 -0.16392,-3.21442 -0.20465,-3.29748 -1.66406,-3.37891 -3.57842,-0.19919 -7.10068,-3.40151 -7.55273,-6.86718 -0.41589,-3.18829 0.48832,-5.42744 3.09765,-7.66602 2.71397,-2.32832 2.74612,-1.83415 -0.49804,-7.68945 l -1.81055,-3.26758 -2.53516,0.9082 c -2.95742,1.0595 -5.21942,0.7053 -7.78125,-1.2207 -3.10338,-2.33309 -4.07775,-7.05351 -2.13672,-10.34375 0.49549,-0.83989 0.71726,-1.72194 0.49415,-1.95899 -0.22312,-0.23706 -1.94256,-1.38457 -3.82227,-2.55078 -3.25412,-2.01893 -3.44707,-2.07516 -4.01758,-1.17187 -1.16996,1.85241 -3.49996,3.53307 -5.59375,4.03515 -5.31786,1.27524 -10.26816,-2.83336 -9.96484,-8.26953 l 0.11523,-2.07812 -5.1289,-0.28516 c -1.4107,-0.0787 -2.69707,-0.13712 -3.63282,-0.16601 z m 0.92969,21.77343 a 29.75,29.75 0 0 1 29.75,29.75 29.75,29.75 0 0 1 -29.75,29.75 29.75,29.75 0 0 1 -29.75,-29.75 29.75,29.75 0 0 1 29.75,-29.75 z" /><path
         d="m 163.82374,12.870525 c -0.17515,0.374683 -1.0518,3.014281 -1.94813,5.865793 l -1.62971,5.184542 -2.35259,1.084979 -2.35258,1.084998 -5.62468,-2.532852 -5.62468,-2.532853 -2.0865,2.403632 c -1.14759,1.321998 -2.08538,2.441146 -2.08399,2.48699 0.001,0.0458 1.22661,2.471354 2.72267,5.390003 l 2.72018,5.306636 -0.83719,2.277118 c -0.46043,1.252391 -0.88687,2.331762 -0.94759,2.398581 -0.0606,0.06691 -2.58965,1.081205 -5.61976,2.254189 l -5.50933,2.132696 -0.0104,3.21834 -0.0104,3.218351 4.08771,1.298972 c 7.97337,2.533755 7.37443,2.198728 8.55547,4.785468 l 1.05455,2.309653 -2.44004,5.535285 -2.44001,5.535283 2.32312,2.186676 2.32308,2.186654 5.18811,-2.663809 c 2.85344,-1.46508 5.44002,-2.671411 5.74794,-2.680728 0.30792,-0.0093 1.47564,0.355359 2.59492,0.810404 l 2.03503,0.827347 2.18326,5.612712 2.18325,5.6127 3.20867,-0.100131 3.20868,-0.100131 1.85698,-5.729551 1.85699,-5.72955 1.98602,-0.951149 c 1.09231,-0.523115 2.19199,-0.961334 2.44374,-0.973794 0.25179,-0.01276 2.90639,1.035466 5.89917,2.328721 l 5.44136,2.351418 2.17059,-2.306059 2.1706,-2.306039 -2.79518,-5.401208 -2.79519,-5.401209 0.74866,-2.028189 c 0.97555,-2.642736 1.14857,-2.857809 2.76286,-3.434514 0.74945,-0.267722 3.24682,-1.216142 5.54964,-2.107605 l 4.18704,-1.620805 -0.20488,-3.203917 -0.20474,-3.20393 -5.60458,-1.782924 c -3.08254,-0.980591 -5.66854,-1.844584 -5.74666,-1.919957 -0.0782,-0.07539 -0.61247,-1.121236 -1.18739,-2.324097 l -1.04533,-2.18704 2.4329,-5.548531 2.43289,-5.548519 -2.32478,-2.229891 -2.32476,-2.2299 -5.35291,2.770223 -5.35292,2.770202 -2.33834,-0.849489 -2.33835,-0.849489 -2.26338,-5.699333 -2.2634,-5.699311 -3.04872,-0.01638 c -2.61917,-0.0142 -3.09362,0.07958 -3.36713,0.664825 z m 6.70468,18.70561 c 3.37816,0.517336 6.14057,1.892759 8.76481,4.364051 2.75796,2.597282 4.32516,5.373982 5.01768,8.890211 1.37756,6.9945 -2.25929,14.320049 -8.8283,17.782435 -2.3873,1.258279 -2.69177,1.322993 -6.81096,1.447624 -4.07927,0.123427 -4.45154,0.06941 -6.89878,-1.000338 -7.31335,-3.196889 -11.38672,-11.090107 -9.64909,-18.697575 0.71056,-3.110977 1.72674,-5.046352 3.94986,-7.522903 2.32924,-2.594735 4.80664,-4.120994 7.96721,-4.908383 2.94504,-0.733696 3.73358,-0.77686 6.48757,-0.355122 z"
         style="fill:#f9f6f1;fill-opacity:1;stroke-width:0.375125"
         id="path1-1" /><g
         id="g33"
         transform="matrix(0.97436817,-7.2254968e-4,-7.2254968e-4,-0.97436817,-11.337578,210.56411)"
         style="fill:#f9f6f1;fill-opacity:1"><path
           id="path1-2"
           style="fill:#f9f6f1;fill-opacity:1;stroke-width:0.567953"
           d="m 98.39258,38.621094 -0.62696,2.462886 c -1.11058,4.36455 -4.5329,6.97175 -9.14257,6.96875 -4.42801,-0.0034 -8.6815,-3.58382 -8.6875,-7.312496 -0.002,-1.288318 -0.12969,-1.333121 -2.77344,-0.982422 -1.52488,0.20228 -4.06292,0.750801 -5.63867,1.21875 l -2.86524,0.849608 0.31641,3.05078 c 0.25927,2.51212 0.08227,3.46151 -1.00195,5.39063 -3.23886,5.76275 -10.29337,6.57032 -14.79688,1.69336 l -2.05273,-2.22266 -3.62696,2.64453 c -1.9948,1.45508 -3.70217,2.7059 -3.79297,2.7793 -0.09078,0.0734 0.37949,1.05323 1.04297,2.17773 1.29641,2.19726 1.58432,5.91653 0.64453,8.32227 -0.30506,0.78094 -1.28336,2.10615 -2.17382,2.94531 -3.13068,2.95028 -6.72577,3.48406 -10.5,1.5586 -1.26732,-0.64654 -2.3627,-1.09404 -2.4336,-0.99414 -1.38374,1.94976 -2.80282,4.15914 -4.20703,6.54492 l -1.74023,2.95312 1.89648,1.17188 c 3.88951,2.40384 5.05533,8.45394 2.40235,12.46289 -1.7682,2.67192 -4.53666,4.02734 -8.22852,4.02734 H 17.5625 l -0.60352,3.83399 c -1.14083,7.25203 -1.15604,7.14061 0.99805,7.58398 2.22758,0.4585 4.34078,1.91503 5.99805,4.13477 0.86533,1.15902 1.17187,2.42077 1.17187,4.83593 0,4.08795 -1.83092,6.79513 -5.6582,8.36914 -2.77898,1.14289 -2.99975,1.71917 -2.04297,5.31836 0.29064,1.09331 0.7938,3.01027 1.11719,4.25977 l 0.58789,2.27148 h 3.84961 c 4.40791,0 6.13084,0.92721 8.07031,4.33789 2.15897,3.79669 1.18905,8.71827 -2.24805,11.40821 l -1.85546,1.45312 1.32421,1.90821 c 0.72752,1.04957 2.04209,2.83867 2.92188,3.97656 l 1.59961,2.06836 2.10742,-1.07422 c 7.12035,-3.63017 14.98234,2.887 12.7207,10.54492 -0.37274,1.26209 -0.73012,2.63353 -0.79492,3.04883 -0.06478,0.4153 1.97413,2.04235 4.5293,3.61523 L 56,181.08594 l 1.79688,-2.04492 c 3.05001,-3.47378 7.60171,-4.04171 11.81054,-1.47461 2.29588,1.40031 4.28381,5.53457 3.9668,8.25 l -0.2207,1.89453 4,0.6582 c 2.20001,0.36236 4.25599,0.73949 4.56836,0.83789 1.96471,0.6186 2.99632,0.19611 3.30664,-1.35547 0.40032,-2.00162 2.81741,-4.95195 4.96875,-6.06445 1.90988,-0.98765 5.78437,-1.08682 7.52343,-0.19336 2.15074,1.10497 4.31504,3.45736 4.94922,5.37891 0.57629,1.7462 0.73323,1.83377 2.71094,1.51953 1.15456,-0.18345 3.63161,-0.74437 5.50586,-1.2461 l 3.4082,-0.91211 0.004,-2.83007 c 0.006,-5.39301 3.78839,-9.36329 8.92187,-9.36329 3.08508,10e-6 4.51673,0.56845 6.80664,2.70313 l 1.53125,1.42969 2.72852,-1.78906 c 1.49995,-0.98329 3.30835,-2.27867 4.01953,-2.87891 l 1.29297,-1.0918 -1.14844,-1.88281 c -2.35281,-3.8591 -1.09639,-9.01806 2.92188,-11.99414 2.19432,-1.62521 6.51028,-1.87378 8.96875,-0.51758 l 1.96875,1.08594 1.46093,-2.04492 c 0.80374,-1.12482 2.16824,-3.26462 3.03125,-4.75391 l 1.56836,-2.70703 -1.99414,-1.88281 c -3.37013,-3.17845 -4.10062,-7.12231 -2.05859,-11.125 1.5172,-2.97397 4.45241,-4.71094 7.96484,-4.71094 1.74788,0 2.87655,-0.2721 3.05469,-0.73633 0.81116,-2.11384 1.67833,-10.14629 1.11523,-10.33398 -2.57464,-0.85822 -5.79018,-3.03369 -6.85937,-4.64258 -1.67666,-2.523 -1.74477,-6.95798 -0.14844,-9.57617 1.21449,-1.99191 4.21116,-4.10833 5.82422,-4.11133 1.25111,-0.003 1.24468,-0.21171 -0.18945,-6.32031 l -1.1836,-5.03907 -3.21875,-0.0039 c -3.76866,-0.0025 -6.34449,-1.31228 -8.03125,-4.08594 -2.3647,-3.88845 -1.89999,-8.13713 1.23438,-11.27148 1.78169,-1.7817 1.78462,-1.79734 0.82031,-3.58008 -0.53262,-0.98467 -1.80924,-2.79017 -2.83789,-4.01172 l -1.87109,-2.2207 -1.7168,1.26953 c -3.9419,2.91436 -10.12908,1.62332 -12.78125,-2.66797 -1.74622,-2.8255 -1.75419,-7.17559 -0.0156,-9.61719 l 1.26562,-1.77734 -1.56836,-1.11329 c -0.86309,-0.61284 -3.07622,-2.021 -4.91797,-3.1289 l -3.34961,-2.01367 -1.19531,1.7539 c -4.13182,6.06672 -12.27737,5.7009 -15.57227,-0.69922 -0.96757,-1.87941 -1.24789,-3.19333 -1.0625,-4.97656 0.13854,-1.33253 0.0362,-2.554415 -0.22656,-2.716795 -0.26274,-0.16238 -2.72366,-0.621109 -5.46875,-1.017578 z M 91.41406,61.19531 a 52.855995,52.855995 0 0 1 52.85547,52.85547 52.855995,52.855995 0 0 1 -52.85547,52.85547 52.855995,52.855995 0 0 1 -52.85742,-52.85547 52.855995,52.855995 0 0 1 52.85742,-52.85547 z" /><path
           style="fill:#f9f6f1;fill-opacity:1"
           d="m 84.832065,172.89958 -0.0334,-0.63656 -2.28213,-0.31962 -23.17787,-9.99043 c -1.41126,-0.77946 -5.16685,-3.29283 -6.84638,-4.58182 l -1.49765,-1.1494 -0.64185,0.61153 -6.59312,-10.45931 -11.99078,-23.17791 -0.31997,-2.28213 v -13.55016 l 0.31997,-2.28213 16.5726,-28.024546 1.14941,-1.49765 -0.61154,-0.64184 18.37946,-13.48514 41.303655,-5.47607 c 0.50144,0.15248 1.01247,0.27773 1.13562,0.27833 0.14067,6.8e-4 0.43159,-0.43636 0.78257,-1.17564 5.58185,6.12783 27.98307,29.49091 32.79229,27.93398 l 8.10564,22.088316 v 18.11442 l -27.56979,40.75729 c -1.57619,0.87055 -1.49838,0.73568 -1.08762,1.88515 l -14.15872,4.48293 c -1.55018,0.47138 -5.53793,1.28709 -7.93152,1.62245 l -2.282135,0.31974 -0.0365,0.77909 z m 0.0379,-22.80569 v -14.82237 l -0.74883,-0.24854 c -4.43507,-1.47202 -8.8853,-5.10424 -11.51957,-9.40212 -0.69653,-1.13641 -1.54578,-2.92619 -1.91193,-4.02938 l -0.24854,-0.74883 h -14.82237 c -11.76305,0 -14.82228,0.0368 -14.82191,0.1783 0.003,1.18682 1.61783,8.07142 2.27515,9.69995 0.071,0.17601 0.42165,1.09023 0.77914,2.03161 0.80053,2.10804 2.43864,5.46954 3.68389,7.55955 5.79798,9.73131 15.04604,17.57549 25.3787,21.52614 0.9669,0.36969 1.90201,0.73055 2.07802,0.8019 1.60394,0.65019 8.11761,2.19089 9.55732,2.26062 l 0.32093,0.0155 z m 15.04778,14.60416 c 2.466315,-0.41748 6.961065,-1.54033 8.237965,-2.05795 0.17601,-0.0714 1.11112,-0.43221 2.07802,-0.8019 10.33266,-3.95065 19.58072,-11.79483 25.3787,-21.52614 1.24524,-2.09001 2.88336,-5.45151 3.68389,-7.55955 0.35749,-0.94138 0.7081,-1.8556 0.77914,-2.03161 0.65732,-1.62853 2.27212,-8.51313 2.27515,-9.69995 3.6e-4,-0.1415 -3.05886,-0.1783 -14.82191,-0.1783 h -14.82238 l -0.24853,0.74883 c -1.95784,5.89879 -7.53271,11.47367 -13.431495,13.4315 l -0.74883,0.24854 v 14.82237 c 0,11.76305 0.0368,14.82228 0.17829,14.82192 0.0981,-2.5e-4 0.75596,-0.0982 1.46199,-0.21776 z m -5.27742,-41.33506 c 2.84422,-0.92563 5.11739,-3.20004 6.155505,-6.15885 0.36116,-1.02938 0.40014,-1.32607 0.40274,-3.06524 0.003,-1.73784 -0.0358,-2.03803 -0.3935,-3.07951 -0.49033,-1.4275 -1.552615,-3.07106 -2.608825,-4.03638 -0.7907,-0.72265 -1.201936,-1.24351 -3.02105,-1.93717 -1.819114,-0.69366 -4.604098,-1.19167 -7.01578,-0.0656 -2.556954,1.19393 -4.95571,3.4079 -5.85898,6.12334 -0.47543,1.42929 -0.54732,3.73622 -0.16369,5.25327 0.90738,3.58819 3.47894,6.21266 7.01215,7.15642 1.53217,0.40926 3.90135,0.32715 5.49137,-0.19031 z m -23.95069,-16.67666 c 1.95783,-5.8988 7.53271,-11.473676 13.4315,-13.431516 l 0.74883,-0.24853 v -14.82238 c 0,-11.76305 -0.0368,-14.82227 -0.17829,-14.82191 -1.18801,0.003 -8.08556,1.62127 -9.69996,2.27571 -0.17601,0.0713 -1.11112,0.4322 -2.07802,0.80189 -10.33266,3.95066 -19.58072,11.79484 -25.3787,21.52614 -1.24525,2.09001 -2.88336,5.45152 -3.68389,7.55955 -0.35749,0.94138 -0.7081,1.8556 -0.77914,2.03161 -0.65732,1.628532 -2.27212,8.513136 -2.27515,9.699966 -3.7e-4,0.14149 3.05886,0.17829 14.82191,0.17829 h 14.82237 z m 71.660975,0.57053 c -0.003,-1.18683 -1.61783,-8.071434 -2.27515,-9.699966 -0.071,-0.17601 -0.42165,-1.09023 -0.77914,-2.03161 -0.80053,-2.10803 -2.43865,-5.46954 -3.68389,-7.55955 -5.79798,-9.7313 -15.04604,-17.57548 -25.3787,-21.52614 -0.9669,-0.36969 -1.90201,-0.73054 -2.07802,-0.80189 -1.6144,-0.65444 -8.511945,-2.27268 -9.699955,-2.27571 -0.14149,-3.6e-4 -0.17829,3.05886 -0.17829,14.82191 v 14.82238 l 0.74883,0.24853 c 4.435065,1.47202 8.885295,5.10424 11.519555,9.402126 0.69654,1.13642 1.54578,2.9262 1.91194,4.02939 l 0.24853,0.74882 h 14.82238 c 11.76305,0 14.82227,-0.0368 14.82191,-0.17829 z"
           id="path33"
           sodipodi:nodetypes="ccccsccccccccccccscccccccscccccssscscsssssscccssssssscsscsscsscsszsssssssscssssssssscssssssssscssscss" /></g></g></g></svg>
