<?xml version="1.0" encoding="UTF-8" standalone="no"?>
<svg
   viewBox="0 0 232 232"
   version="1.1"
   id="svg1"
   sodipodi:docname="3.4_mechanistic_inference.svg"
   inkscape:version="1.3 (0e150ed6c4, 2023-07-21)"
   width="232"
   height="232"
   xmlns:inkscape="http://www.inkscape.org/namespaces/inkscape"
   xmlns:sodipodi="http://sodipodi.sourceforge.net/DTD/sodipodi-0.dtd"
   xmlns="http://www.w3.org/2000/svg"
   xmlns:svg="http://www.w3.org/2000/svg">
  <defs
     id="defs1" />
  <sodipodi:namedview
     id="namedview1"
     pagecolor="#505050"
     bordercolor="#eeeeee"
     borderopacity="1"
     inkscape:showpageshadow="0"
     inkscape:pageopacity="0"
     inkscape:pagecheckerboard="0"
     inkscape:deskcolor="#505050"
     inkscape:zoom="1.1890625"
     inkscape:cx="320"
     inkscape:cy="256.0841"
     inkscape:window-width="2880"
     inkscape:window-height="1706"
     inkscape:window-x="2869"
     inkscape:window-y="-11"
     inkscape:window-maximized="1"
     inkscape:current-layer="svg1" />
  <!--!Font Awesome Free 6.5.2 by @fontawesome - https://fontawesome.com License - https://fontawesome.com/license/free Copyright 2024 Fonticons, Inc.-->
  <path
     d="m 178.69485,83.312115 -2.71948,4.742512 c -0.99493,1.757714 -3.11744,2.487324 -5.00781,1.790871 -3.91341,-1.459228 -7.49516,-3.548585 -10.64578,-6.168574 -1.52555,-1.26025 -1.92352,-3.482253 -0.92859,-5.206811 l 2.71947,-4.742502 c -2.28834,-2.653155 -4.07922,-5.737442 -5.27313,-9.087049 h -5.47213 c -1.98986,0 -3.71441,-1.426062 -4.04605,-3.41593 -0.6633,-3.979727 -0.69645,-8.158433 0,-12.303981 0.33164,-1.989869 2.05619,-3.449097 4.04605,-3.449097 h 5.47213 c 1.19391,-3.349607 2.98479,-6.433894 5.27313,-9.087049 l -2.71947,-4.742502 c -0.99493,-1.724548 -0.63013,-3.946561 0.92859,-5.206811 3.15062,-2.619988 6.76554,-4.709336 10.64578,-6.168574 1.89037,-0.696443 4.01288,0.03315 5.00781,1.790881 l 2.71948,4.742502 c 3.48226,-0.63012 7.03085,-0.63012 10.51312,0 l 2.71947,-4.742502 c 0.99494,-1.757715 3.11746,-2.487324 5.00783,-1.790881 3.91339,1.459238 7.49515,3.548586 10.64577,6.168574 1.52556,1.26025 1.92353,3.482263 0.9286,5.206811 l -2.71948,4.742502 c 2.28834,2.653155 4.07922,5.737442 5.27314,9.087049 h 5.47211 c 1.98988,0 3.71443,1.426062 4.04606,3.41593 0.6633,3.979728 0.69646,8.158443 0,12.303982 -0.33163,1.989868 -2.05618,3.449096 -4.04606,3.449096 h -5.47211 c -1.19392,3.349607 -2.9848,6.433894 -5.27314,9.087049 l 2.71948,4.742502 c 0.99493,1.724558 0.63012,3.946561 -0.9286,5.206811 -3.15062,2.619989 -6.76554,4.709346 -10.64577,6.168574 -1.89037,0.696453 -4.01289,-0.03315 -5.00783,-1.790871 l -2.71947,-4.742512 c -3.44911,0.630129 -7.03086,0.630129 -10.51312,0 z m -3.48226,-19.500661 c 12.7683,9.816658 27.32746,-4.742512 17.5108,-17.510792 -12.76828,-9.849824 -27.32746,4.742503 -17.5108,17.510792 z m -38.23853,51.039986 11.1764,5.57162 c 3.34959,1.92354 4.80883,6.00275 3.48226,9.65083 -2.95163,8.02579 -8.75541,15.38829 -14.12804,21.82217 -2.45416,2.95162 -6.6992,3.68125 -10.0488,1.75772 l -9.65084,-5.57162 c -5.3063,4.54352 -11.47487,8.15844 -18.207228,10.51311 v 11.14323 c 0,3.84707 -2.752653,7.16351 -6.533392,7.8268 -8.158443,1.3929 -16.714851,1.45922 -25.17177,0 -3.813906,-0.66329 -6.632873,-3.94657 -6.632873,-7.8268 v -11.14323 c -6.73238,-2.38784 -12.900954,-5.96959 -18.207254,-10.51311 l -9.650836,5.53845 c -3.316441,1.92354 -7.594645,1.19392 -10.048803,-1.75771 -5.372632,-6.4339 -11.043741,-13.79639 -13.9953728,-21.78901 -1.3265822,-3.61492 0.1326554,-7.69414 3.4822628,-9.65083 l 11.043732,-5.57162 c -1.293407,-6.93135 -1.293407,-14.06169 0,-21.026218 L 12.839774,88.220449 C 9.4901666,86.296913 7.9977725,82.217687 9.3575112,78.602769 12.309143,70.576991 17.980252,63.2145 23.352884,56.780606 c 2.454158,-2.951631 6.699205,-3.68125 10.048803,-1.757714 l 9.650836,5.57162 c 5.3063,-4.543515 11.474874,-8.158433 18.207254,-10.513111 V 38.904995 c 0,-3.813896 2.719478,-7.130337 6.500208,-7.793623 8.158452,-1.392905 16.748017,-1.459228 25.204936,-0.03315 3.813905,0.663286 6.632891,3.946561 6.632891,7.826789 v 11.143231 c 6.732358,2.387834 12.900928,5.969596 18.207228,10.51311 l 9.65084,-5.57161 c 3.31644,-1.923546 7.59464,-1.193917 10.0488,1.757705 5.37263,6.433894 11.01059,13.796395 13.96222,21.822172 1.32657,3.614908 0.0331,7.694134 -3.31644,9.650836 l -11.1764,5.571617 c 1.29341,6.964518 1.29341,14.094858 0,21.059378 z m -39.001316,6.99768 C 117.60606,96.312542 88.454563,67.161061 62.917983,86.794368 43.284677,112.33095 72.436165,141.48245 97.972744,121.84912 Z m 80.722106,60.59134 -2.71948,4.74252 c -0.99493,1.7577 -3.11744,2.48732 -5.00781,1.79086 -3.91341,-1.45922 -7.49516,-3.54859 -10.64578,-6.16857 -1.52555,-1.26025 -1.92352,-3.48226 -0.92859,-5.20681 l 2.71947,-4.74251 c -2.28834,-2.65315 -4.07922,-5.73743 -5.27313,-9.08704 h -5.47213 c -1.98986,0 -3.71441,-1.42607 -4.04605,-3.41593 -0.6633,-3.97973 -0.69645,-8.15843 0,-12.30399 0.33164,-1.98986 2.05619,-3.4491 4.04605,-3.4491 h 5.47213 c 1.19391,-3.34959 2.98479,-6.43389 5.27313,-9.08704 l -2.71947,-4.7425 c -0.99493,-1.72455 -0.63013,-3.94657 0.92859,-5.20681 3.15062,-2.61999 6.76554,-4.70935 10.64578,-6.16857 1.89037,-0.69647 4.01288,0.0331 5.00781,1.79086 l 2.71948,4.74252 c 3.48226,-0.63012 7.03085,-0.63012 10.51312,0 l 2.71947,-4.74252 c 0.99494,-1.7577 3.11746,-2.48733 5.00783,-1.79086 3.91339,1.45922 7.49515,3.54858 10.64577,6.16857 1.52556,1.26024 1.92353,3.48226 0.9286,5.20681 l -2.71948,4.7425 c 2.28834,2.65315 4.07922,5.73745 5.27314,9.08704 h 5.47211 c 1.98988,0 3.71443,1.42607 4.04606,3.41594 0.6633,3.97973 0.69646,8.15844 0,12.30398 -0.33163,1.98986 -2.05618,3.4491 -4.04606,3.4491 h -5.47211 c -1.19392,3.34961 -2.9848,6.43389 -5.27314,9.08704 l 2.71948,4.74251 c 0.99493,1.72455 0.63012,3.94656 -0.9286,5.20681 -3.15062,2.61998 -6.76554,4.70935 -10.64577,6.16857 -1.89037,0.69646 -4.01289,-0.0332 -5.00783,-1.79086 l -2.71947,-4.74252 c -3.44911,0.63012 -7.03086,0.63012 -10.51312,0 z m -3.48226,-19.53381 c 12.7683,9.81664 27.32746,-4.74253 17.5108,-17.51081 -12.76828,-9.81665 -27.32746,4.74251 -17.5108,17.51081 z"
     id="path1"
     style="fill:#f9f6f1;fill-opacity:1;stroke-width:0.331644" />
</svg>
