<?xml version="1.0" encoding="UTF-8" standalone="no"?>
<svg
   viewBox="0 0 232 232"
   version="1.1"
   id="svg1"
   sodipodi:docname="4.1_understandable_rules.svg"
   inkscape:version="1.3 (0e150ed6c4, 2023-07-21)"
   width="232"
   height="232"
   xmlns:inkscape="http://www.inkscape.org/namespaces/inkscape"
   xmlns:sodipodi="http://sodipodi.sourceforge.net/DTD/sodipodi-0.dtd"
   xmlns="http://www.w3.org/2000/svg"
   xmlns:svg="http://www.w3.org/2000/svg">
  <defs
     id="defs1" />
  <sodipodi:namedview
     id="namedview1"
     pagecolor="#505050"
     bordercolor="#eeeeee"
     borderopacity="1"
     inkscape:showpageshadow="0"
     inkscape:pageopacity="0"
     inkscape:pagecheckerboard="0"
     inkscape:deskcolor="#505050"
     inkscape:zoom="2.378125"
     inkscape:cx="118.79106"
     inkscape:cy="171.35348"
     inkscape:window-width="2880"
     inkscape:window-height="1526"
     inkscape:window-x="2869"
     inkscape:window-y="-11"
     inkscape:window-maximized="1"
     inkscape:current-layer="svg1" />
  <!--!Font Awesome Free 6.5.2 by @fontawesome - https://fontawesome.com License - https://fontawesome.com/license/free Copyright 2024 Fonticons, Inc.-->
  <path
     d="m 905.31771,103.70634 -2.71948,4.7425 c -0.99493,1.75772 -3.11744,2.48733 -5.00781,1.79088 -3.91341,-1.45923 -7.49516,-3.54859 -10.64578,-6.16857 -1.52555,-1.26025 -1.92352,-3.48226 -0.92859,-5.206824 l 2.71947,-4.7425 c -2.28834,-2.65315 -4.07922,-5.737439 -5.27313,-9.087046 h -5.47213 c -1.98986,0 -3.71441,-1.426062 -4.04605,-3.41593 -0.6633,-3.979727 -0.69645,-8.158433 0,-12.303981 0.33164,-1.989869 2.05619,-3.449097 4.04605,-3.449097 h 5.47213 c 1.19391,-3.349607 2.98479,-6.433894 5.27313,-9.087049 l -2.71947,-4.742502 c -0.99493,-1.724548 -0.63013,-3.946561 0.92859,-5.206811 3.15062,-2.619988 6.76554,-4.709336 10.64578,-6.168574 1.89037,-0.696443 4.01288,0.03315 5.00781,1.790881 l 2.71948,4.742502 c 3.48226,-0.63012 7.03085,-0.63012 10.51312,0 l 2.71947,-4.742502 c 0.99494,-1.757715 3.11746,-2.487324 5.00783,-1.790881 3.91339,1.459238 7.49515,3.548586 10.64577,6.168574 1.52556,1.26025 1.92353,3.482263 0.9286,5.206811 l -2.71948,4.742502 c 2.28834,2.653155 4.07922,5.737442 5.27314,9.087049 h 5.47211 c 1.98988,0 3.71443,1.426062 4.04606,3.41593 0.6633,3.979728 0.69646,8.158443 0,12.303982 -0.33163,1.989868 -2.05618,3.449096 -4.04606,3.449096 h -5.47211 c -1.19392,3.349607 -2.9848,6.433896 -5.27314,9.087046 l 2.71948,4.7425 c 0.99493,1.724564 0.63012,3.946574 -0.9286,5.206824 -3.15062,2.61998 -6.76554,4.70934 -10.64577,6.16857 -1.89037,0.69645 -4.01289,-0.0332 -5.00783,-1.79088 l -2.71947,-4.7425 c -3.44911,0.63013 -7.03086,0.63013 -10.51312,0 z m -3.48226,-19.500668 c 12.7683,9.816654 27.32746,-4.742512 17.5108,-17.510792 -12.76828,-9.849824 -27.32746,4.742503 -17.5108,17.510792 z m -38.23853,51.039988 11.1764,5.57162 c 3.34959,1.92354 4.80883,6.00275 3.48226,9.65083 -2.95163,8.02579 -8.75541,15.38829 -14.12804,21.82217 -2.45416,2.95162 -6.6992,3.68125 -10.0488,1.75772 l -9.65084,-5.57162 c -5.3063,4.54352 -11.47487,8.15844 -18.20723,10.51311 v 11.14323 c 0,3.84707 -2.75265,7.16351 -6.53339,7.8268 -8.15844,1.3929 -16.71485,1.45922 -25.17177,0 -3.81391,-0.66329 -6.63287,-3.94657 -6.63287,-7.8268 v -11.14323 c -6.73238,-2.38784 -12.90096,-5.96959 -18.20726,-10.51311 l -9.65083,5.53845 c -3.31644,1.92354 -7.59465,1.19392 -10.04881,-1.75771 -5.37263,-6.4339 -11.04374,-13.79639 -13.99537,-21.78901 -1.32658,-3.61492 0.13266,-7.69414 3.48226,-9.65083 l 11.04374,-5.57162 c -1.29341,-6.93135 -1.29341,-14.06169 0,-21.02622 l -11.04374,-5.60477 c -3.3496,-1.92354 -4.842,-6.00276 -3.48226,-9.617684 2.95163,-8.02578 8.62274,-15.388268 13.99537,-21.822162 2.45416,-2.951631 6.69921,-3.68125 10.04881,-1.757714 l 9.65083,5.57162 c 5.3063,-4.543515 11.47488,-8.158433 18.20726,-10.513111 V 59.299213 c 0,-3.813896 2.71947,-7.130337 6.5002,-7.793623 8.15846,-1.392905 16.74802,-1.459228 25.20494,-0.03315 3.81391,0.663286 6.63289,3.946561 6.63289,7.826789 V 70.44246 c 6.73236,2.387834 12.90093,5.969596 18.20723,10.51311 l 9.65084,-5.57161 c 3.31644,-1.923546 7.59464,-1.193917 10.0488,1.757705 5.37263,6.433894 11.01059,13.796391 13.96222,21.822171 1.32657,3.614914 0.0331,7.694134 -3.31644,9.650834 l -11.1764,5.57162 c 1.29341,6.96452 1.29341,14.09486 0,21.05938 z m -39.00132,6.99768 c 19.63332,-25.53658 -9.51818,-54.688061 -35.05476,-35.05475 -19.6333,25.53658 9.51818,54.68808 35.05476,35.05475 z m 80.72211,60.59134 -2.71948,4.74252 c -0.99493,1.7577 -3.11744,2.48732 -5.00781,1.79086 -3.91341,-1.45922 -7.49516,-3.54859 -10.64578,-6.16857 -1.52555,-1.26025 -1.92352,-3.48226 -0.92859,-5.20681 l 2.71947,-4.74251 c -2.28834,-2.65315 -4.07922,-5.73743 -5.27313,-9.08704 h -5.47213 c -1.98986,0 -3.71441,-1.42607 -4.04605,-3.41593 -0.6633,-3.97973 -0.69645,-8.15843 0,-12.30399 0.33164,-1.98986 2.05619,-3.4491 4.04605,-3.4491 h 5.47213 c 1.19391,-3.34959 2.98479,-6.43389 5.27313,-9.08704 l -2.71947,-4.7425 c -0.99493,-1.72455 -0.63013,-3.94657 0.92859,-5.20681 3.15062,-2.61999 6.76554,-4.70935 10.64578,-6.16857 1.89037,-0.69647 4.01288,0.0331 5.00781,1.79086 l 2.71948,4.74252 c 3.48226,-0.63012 7.03085,-0.63012 10.51312,0 l 2.71947,-4.74252 c 0.99494,-1.7577 3.11746,-2.48733 5.00783,-1.79086 3.91339,1.45922 7.49515,3.54858 10.64577,6.16857 1.52556,1.26024 1.92353,3.48226 0.9286,5.20681 l -2.71948,4.7425 c 2.28834,2.65315 4.07922,5.73745 5.27314,9.08704 h 5.47211 c 1.98988,0 3.71443,1.42607 4.04606,3.41594 0.6633,3.97973 0.69646,8.15844 0,12.30398 -0.33163,1.98986 -2.05618,3.4491 -4.04606,3.4491 h -5.47211 c -1.19392,3.34961 -2.9848,6.43389 -5.27314,9.08704 l 2.71948,4.74251 c 0.99493,1.72455 0.63012,3.94656 -0.9286,5.20681 -3.15062,2.61998 -6.76554,4.70935 -10.64577,6.16857 -1.89037,0.69646 -4.01289,-0.0332 -5.00783,-1.79086 l -2.71947,-4.74252 c -3.44911,0.63012 -7.03086,0.63012 -10.51312,0 z m -3.48226,-19.53381 c 12.7683,9.81664 27.32746,-4.74253 17.5108,-17.51081 -12.76828,-9.81665 -27.32746,4.74251 -17.5108,17.51081 z"
     id="path1"
     style="fill:#f9f6f1;fill-opacity:1;stroke-width:0.331644" />
  <g
     id="text1-8"
     style="font-size:60.9298px;font-family:HolidayFree;-inkscape-font-specification:HolidayFree;letter-spacing:0px;fill:#f9f6f1;stroke:#f9f6f1;stroke-width:2.21092;stroke-miterlimit:4.3;paint-order:fill markers stroke"
     transform="scale(1.0932627,0.91469323)"
     aria-label="IF  a&#10;THEN  b">
    <path
       style="color:#000000;-inkscape-font-specification:'Malgun Gothic';stroke:none;-inkscape-stroke:none"
       d="m 5.5351562,19.402344 v 46.005859 h 6.9999998 v -1.105469 -44.90039 z m 16.4218748,0 v 46.005859 h 7.001953 V 45.890625 H 44.904297 V 39.246094 H 28.958984 V 26.046875 h 17.22461 V 24.941406 19.402344 Z M 7.7460937,21.613281 H 10.324219 V 63.197266 H 7.7460937 Z m 16.4218753,0 h 19.804687 v 2.222656 H 26.748047 v 17.621094 h 15.945312 v 2.222656 H 26.748047 v 19.517579 h -2.580078 z"
       id="path50" />
    <g
       id="path30">
      <path
         style="color:#000000;-inkscape-font-specification:Calibri;stroke:none;-inkscape-stroke:none;fill:none"
         d="m 96.914787,63.562364 q 0,0.369811 -0.246541,0.554717 -0.246541,0.184906 -0.677988,0.277359 -0.431446,0.09245 -1.263522,0.09245 -0.801259,0 -1.294341,-0.09245 -0.462264,-0.09245 -0.677987,-0.277359 -0.215724,-0.184906 -0.215724,-0.554717 v -2.773587 q -1.81824,1.941511 -4.067926,3.020128 -2.21887,1.078617 -4.715097,1.078617 -2.188052,0 -3.975474,-0.585535 -1.756605,-0.554718 -3.020127,-1.633334 -1.232705,-1.078617 -1.941511,-2.650316 -0.677988,-1.571699 -0.677988,-3.574845 0,-2.34214 0.955347,-4.067927 0.955346,-1.725787 2.742769,-2.866039 1.787422,-1.140252 4.376102,-1.694969 2.588681,-0.585535 5.824532,-0.585535 h 3.821385 v -2.157234 q 0,-1.602517 -0.338994,-2.835222 -0.338993,-1.232705 -1.109434,-2.033963 -0.739623,-0.832076 -1.94151,-1.232705 -1.201888,-0.431447 -2.958493,-0.431447 -1.879875,0 -3.389938,0.462265 -1.479246,0.431446 -2.619499,0.986164 -1.109434,0.523899 -1.879875,0.986164 -0.739623,0.431447 -1.109434,0.431447 -0.246541,0 -0.431447,-0.123271 -0.184906,-0.12327 -0.338994,-0.369811 -0.123271,-0.246541 -0.184906,-0.616353 -0.06163,-0.400629 -0.06163,-0.862894 0,-0.77044 0.09245,-1.201887 0.12327,-0.462264 0.523899,-0.862893 0.431447,-0.40063 1.448429,-0.924529 1.016982,-0.554718 2.342139,-0.986164 1.325158,-0.462265 2.896857,-0.739623 1.571699,-0.308177 3.174216,-0.308177 2.98931,0 5.084908,0.677988 2.095599,0.677988 3.389939,2.003146 1.29434,1.29434 1.879875,3.235851 0.585535,1.94151 0.585535,4.530191 z M 91.860696,50.896319 h -4.345285 q -2.095598,0 -3.63648,0.369812 -1.540881,0.338994 -2.557863,1.047799 -1.016981,0.677988 -1.510063,1.664152 -0.462265,0.955346 -0.462265,2.218869 0,2.157234 1.355976,3.451574 1.386793,1.263523 3.852203,1.263523 2.003146,0 3.698115,-1.016982 1.725787,-1.016981 3.605662,-3.11258 z"
         id="path49" />
      <path
         style="color:#000000;-inkscape-font-specification:Calibri;stroke:none;-inkscape-stroke:none"
         d="m 85.974609,33.302734 c -1.136603,0 -2.263986,0.111977 -3.378906,0.330078 -0.0026,4.65e-4 -0.0052,-4.65e-4 -0.0078,0 -1.083373,0.192172 -2.092042,0.44851 -3.027344,0.773438 -6.14e-4,2e-4 -0.0013,-2e-4 -0.002,0 -0.930467,0.303045 -1.766217,0.655197 -2.511719,1.060547 -0.718156,0.370412 -1.258687,0.693473 -1.685547,1.089844 l -0.01563,0.01367 -0.01367,0.01563 c -0.377322,0.377323 -0.67203,0.839936 -0.810547,1.359375 l -0.0078,0.02734 -0.0059,0.02539 c -0.08988,0.419447 -0.117187,0.87575 -0.117187,1.433594 0,0.357303 0.02342,0.701012 0.07422,1.03125 l 0.002,0.0078 v 0.0059 c 0.05419,0.325131 0.139011,0.633493 0.287109,0.929688 l 0.02344,0.04687 0.02734,0.04492 c 0.164168,0.262668 0.375699,0.510883 0.664063,0.703125 0.311947,0.207965 0.696317,0.308594 1.044922,0.308594 0.676442,0 1.103669,-0.253996 1.666015,-0.582032 l 0.0059,-0.0039 0.0059,-0.002 c 0.470877,-0.282527 1.067757,-0.597698 1.783203,-0.935547 l 0.0059,-0.002 0.0059,-0.0039 c 0.692448,-0.336867 1.508108,-0.644618 2.445313,-0.917969 l 0.0078,-0.002 0.0059,-0.002 c 0.883937,-0.270593 1.90377,-0.414063 3.066407,-0.414063 1.080563,0 1.945868,0.135466 2.585937,0.365235 l 0.01172,0.0039 0.01172,0.0059 c 0.647981,0.215994 1.110768,0.519634 1.464843,0.917969 l 0.01367,0.01563 0.01563,0.01563 c 0.373461,0.388398 0.654385,0.886148 0.839844,1.560547 0.193522,0.703714 0.300781,1.552574 0.300781,2.542969 v 1.050781 h -2.716797 c -2.219587,0 -4.236951,0.200728 -6.05664,0.611328 -9.08e-4,1.95e-4 -0.001,0.0018 -0.002,0.002 -1.825406,0.391423 -3.409901,0.995628 -4.736328,1.841797 -1.329517,0.848139 -2.386819,1.945871 -3.115235,3.261719 -0.739524,1.335913 -1.09375,2.891787 -1.09375,4.603515 0,1.460148 0.247932,2.809038 0.767578,4.013672 l 0.0039,0.0078 0.0039,0.0078 c 0.532309,1.180337 1.277668,2.202188 2.220703,3.027344 l 0.0059,0.0059 0.0059,0.0039 c 0.961828,0.821072 2.10663,1.432942 3.398437,1.841796 1.317012,0.430735 2.759211,0.640625 4.314453,0.640625 1.823373,0 3.571425,-0.399114 5.197266,-1.189453 0.875855,-0.420345 1.698196,-0.946334 2.480469,-1.544922 V 63.5625 c 0,0.461492 0.181263,1.034275 0.601562,1.394531 0.37093,0.317946 0.764962,0.438542 1.179688,0.521485 l 0.0078,0.002 h 0.0059 c 0.43532,0.08162 0.921358,0.111328 1.498046,0.111328 0.595659,0 1.066102,-0.02505 1.496094,-0.117188 0.393087,-0.08423 0.768141,-0.21673 1.109375,-0.472656 0.447357,-0.335518 0.6875,-0.947255 0.6875,-1.439453 V 44.855469 c 0,-1.809134 -0.203239,-3.425235 -0.632812,-4.84961 -0.435044,-1.442512 -1.155544,-2.692844 -2.152344,-3.691406 -1.004751,-1.026828 -2.302115,-1.783692 -3.833984,-2.279297 -1.543534,-0.499379 -3.349336,-0.732422 -5.425782,-0.732422 z m 0,2.210938 c 1.909297,0 3.493547,0.220396 4.744141,0.625 1.259792,0.40758 2.219088,0.987093 2.939453,1.724609 l 0.0059,0.0039 0.0039,0.0039 c 0.726409,0.726409 1.258568,1.629666 1.603515,2.773437 0.351139,1.164303 0.53711,2.5685 0.53711,4.210938 v 18.441406 c -0.02868,0.0084 -0.01331,0.0095 -0.05078,0.01758 -0.145268,0.03113 -0.517474,0.06641 -1.03125,0.06641 -0.488146,0 -0.859304,-0.03106 -1.082031,-0.07227 v -5.31836 l -1.912109,2.042969 c -1.126486,1.202858 -2.368912,2.121813 -3.740235,2.779297 h -0.002 l -0.002,0.002 c -1.332649,0.647816 -2.727494,0.966797 -4.232422,0.966797 -1.36009,0 -2.566061,-0.180484 -3.630859,-0.529297 l -0.0059,-0.002 -0.0059,-0.002 c -1.044997,-0.33 -1.908794,-0.802531 -2.628906,-1.416016 -0.695801,-0.609847 -1.240956,-1.349382 -1.652344,-2.257812 -0.382907,-0.889807 -0.585937,-1.92247 -0.585937,-3.13086 0,-1.411121 0.282135,-2.568069 0.816406,-3.533203 0.545378,-0.985199 1.317382,-1.796554 2.371094,-2.46875 1.05614,-0.673744 2.388655,-1.198657 4.013672,-1.546875 h 0.0059 l 0.0059,-0.002 c 1.629114,-0.36849 3.489525,-0.558594 5.580078,-0.558594 h 4.927735 v -3.261718 c 0,-1.146293 -0.120436,-2.189016 -0.378906,-3.128907 -0.264252,-0.960918 -0.722302,-1.809185 -1.367188,-2.486328 -0.627828,-0.700232 -1.447867,-1.213157 -2.390625,-1.529297 -0.959689,-0.342489 -2.061957,-0.49414 -3.318359,-0.49414 -1.341779,0 -2.57896,0.165101 -3.707032,0.509765 -0.0019,5.55e-4 -0.004,-5.55e-4 -0.0059,0 -1.028586,0.300734 -1.953768,0.648297 -2.777344,1.048828 -0.75882,0.35867 -1.413253,0.701077 -1.966797,1.033204 l 0.01172,-0.0078 c -0.299658,0.174801 -0.338342,0.174366 -0.390625,0.199219 -0.01027,-0.04013 -0.01619,-0.04556 -0.02539,-0.09961 -3.84e-4,-0.0023 -0.0016,-0.0016 -0.002,-0.0039 -0.03021,-0.200984 -0.04687,-0.427711 -0.04687,-0.68164 0,-0.451487 0.03426,-0.769921 0.06641,-0.933594 0.02602,-0.08896 0.08188,-0.194146 0.214843,-0.332031 0.152267,-0.138354 0.56238,-0.41921 1.185547,-0.740235 l 0.01172,-0.0059 0.0098,-0.0059 c 0.606558,-0.33085 1.32627,-0.636024 2.15625,-0.90625 l 0.0098,-0.0039 0.01172,-0.0039 c 0.820026,-0.286056 1.727956,-0.51748 2.724609,-0.693359 l 0.0098,-0.002 0.01172,-0.002 c 0.978182,-0.191801 1.963457,-0.289062 2.960937,-0.289062 z m 1.541016,14.277344 c -1.459189,0 -2.75052,0.128429 -3.886719,0.40039 -1.125123,0.248969 -2.107985,0.641861 -2.927734,1.210938 -0.811257,0.542721 -1.460999,1.246216 -1.878906,2.082031 l -0.0039,0.0059 -0.002,0.0059 c -0.391403,0.808898 -0.572265,1.724012 -0.572265,2.701172 0,1.669774 0.5714,3.175311 1.697265,4.25 l 0.0098,0.0098 0.0098,0.0078 c 1.165602,1.061992 2.763249,1.552734 4.595704,1.552734 1.519528,0 2.966969,-0.396087 4.259765,-1.169922 l 0.002,-0.002 c 1.284695,-0.757442 2.559764,-1.86894 3.865235,-3.324219 l 0.283203,-0.316406 v -7.414062 h -1.105469 z m 0,2.210937 h 3.240234 v 4.287109 c -1.087895,1.167526 -2.132333,2.106164 -3.0625,2.654297 l -0.0039,0.002 -0.0039,0.002 c -0.965232,0.579139 -1.980555,0.859375 -3.128906,0.859375 -1.447731,0 -2.412796,-0.3497 -3.095704,-0.966797 -0.675752,-0.649418 -1.005859,-1.441596 -1.005859,-2.642578 0,-0.70509 0.126113,-1.268444 0.349609,-1.732422 0.238063,-0.472564 0.591268,-0.872043 1.128907,-1.230469 l 0.0098,-0.0078 0.0098,-0.0059 c 0.530945,-0.370052 1.24487,-0.672777 2.164062,-0.875 l 0.0098,-0.002 0.0098,-0.002 c 0.91667,-0.220001 2.046869,-0.339844 3.378906,-0.339844 z"
         id="path48" />
    </g>
    <path
       style="color:#000000;-inkscape-font-specification:'Malgun Gothic';stroke:none;-inkscape-stroke:none"
       d="m 0.98242188,114.64063 v 6.64453 H 13.568359 v 39.36132 h 7.060547 v -39.36132 h 12.642578 v -1.10547 -5.53906 z m 37.04101512,0 v 46.00585 h 7 V 140.56445 H 65.78125 v 20.08203 h 7 v -1.10546 -44.90039 h -7 v 19.33984 H 45.023437 v -19.33984 z m 44.150391,0 v 46.00585 h 25.207032 v -1.10546 -5.50977 H 89.173828 v -13.4668 H 105.0918 v -6.61523 H 89.173828 v -12.66406 h 17.226562 v -6.64453 z m 31.505862,0 v 46.00585 h 7.03125 v -33.20703 c 0,-0.75635 -0.0473,-0.97213 -0.0566,-1.60937 l 22.50586,34.8164 h 7.74804 v -1.10546 -44.90039 h -7.09179 v 32.37499 c 0,1.06009 0.0958,1.55377 0.125,2.42774 l -22.1836,-34.80273 z M 3.1933594,116.85156 H 31.060547 v 2.22266 H 18.417969 v 39.36133 H 15.779297 V 119.07422 H 3.1933594 Z m 37.0410156,0 H 42.8125 v 19.33985 h 25.179687 v -19.33985 h 2.578125 v 41.58399 H 67.992187 V 138.35352 H 42.8125 v 20.08203 h -2.578125 z m 44.150391,0 h 19.804684 v 2.22266 H 86.962891 v 17.08594 h 15.917969 v 2.19336 H 86.962891 v 17.88867 h 18.208989 v 2.19336 H 84.384766 Z m 31.505864,0 h 4.65429 l 21.90039,34.35938 v 0.002 c 0.51284,0.79884 0.91454,1.43432 1.19922,1.90234 0.28468,0.46803 0.46935,0.81611 0.47461,0.82813 l 0.28906,0.66211 h 2.12696 l -0.19141,-1.26953 c -0.2021,-1.34124 -0.31641,-3.47236 -0.31641,-6.32032 v -30.16406 h 2.66993 v 41.58399 h -4.33399 L 121.8418,123.5957 v -0.002 c -0.42385,-0.65343 -0.85292,-1.50339 -1.26953,-2.54492 l -0.2793,-0.69531 h -2.14649 l 0.15235,1.24023 c 0.12511,1.01875 0.20117,3.00753 0.20117,5.8457 v 30.9961 h -2.60937 z"
       id="path47" />
    <g
       id="path32">
      <path
         style="color:#000000;-inkscape-font-specification:Calibri;stroke:none;-inkscape-stroke:none;fill:none"
         d="m 209.50337,144.53204 q 0,3.60566 -0.80126,6.50252 -0.77044,2.86604 -2.31132,4.9 -1.51007,2.03397 -3.72894,3.11258 -2.21887,1.07862 -5.08491,1.07862 -1.32515,0 -2.46541,-0.27736 -1.10943,-0.24654 -2.18805,-0.83207 -1.07861,-0.58554 -2.15723,-1.47925 -1.07862,-0.89371 -2.28051,-2.15723 v 3.38993 q 0,0.24655 -0.12327,0.43145 -0.12327,0.18491 -0.40062,0.30818 -0.27736,0.0924 -0.70881,0.15409 -0.40063,0.0616 -1.0478,0.0616 -0.61635,0 -1.0478,-0.0616 -0.43145,-0.0616 -0.7088,-0.15409 -0.27736,-0.12327 -0.36982,-0.30818 -0.0925,-0.1849 -0.0925,-0.43145 v -41.17234 q 0,-0.24654 0.0925,-0.43145 0.12327,-0.18491 0.40063,-0.30818 0.30818,-0.12327 0.80126,-0.1849 0.49308,-0.0616 1.23271,-0.0616 0.77044,0 1.26352,0.0616 0.49308,0.0616 0.77044,0.1849 0.27736,0.12327 0.40063,0.30818 0.12327,0.18491 0.12327,0.43145 v 16.6107 q 1.2327,-1.26353 2.37296,-2.12642 1.17107,-0.86289 2.2805,-1.38679 1.10944,-0.55472 2.21887,-0.80126 1.10943,-0.24654 2.34214,-0.24654 3.02013,0 5.14654,1.20189 2.15724,1.20188 3.4824,3.23585 1.35597,2.00314 1.97232,4.71509 0.61636,2.71195 0.61636,5.73208 z m -5.36227,0.58554 q 0,-2.12642 -0.339,-4.12957 -0.30817,-2.00314 -1.10943,-3.54402 -0.80126,-1.54088 -2.12642,-2.46541 -1.32515,-0.95535 -3.29748,-0.95535 -0.98617,0 -1.94151,0.27736 -0.95535,0.27736 -1.94151,0.92453 -0.98617,0.64717 -2.06478,1.66415 -1.0478,1.01698 -2.24969,2.55786 v 11.06353 q 2.0956,2.55786 4.00629,3.91384 1.91069,1.32516 3.97547,1.32516 1.9107,0 3.26667,-0.92453 1.35598,-0.92453 2.18805,-2.43459 0.8629,-1.54089 1.23271,-3.42076 0.40063,-1.91069 0.40063,-3.8522 z"
         id="path46" />
      <path
         style="color:#000000;-inkscape-font-specification:Calibri;stroke:none;-inkscape-stroke:none;fill:#f9f6f1;fill-opacity:1"
         d="m 186.51367,115.50586 c -0.52377,0 -0.97295,0.0208 -1.36914,0.0703 -0.3906,0.0488 -0.74094,0.12177 -1.07617,0.25586 l -0.0195,0.008 -0.0176,0.008 c -0.31683,0.14081 -0.6415,0.35774 -0.87305,0.70507 l -0.0371,0.0567 -0.0312,0.0625 c -0.14961,0.29908 -0.20898,0.62316 -0.20898,0.92578 v 41.17187 c 0,0.30262 0.0594,0.62669 0.20898,0.92578 0.21545,0.43087 0.57945,0.67724 0.91016,0.82422 l 0.0488,0.0215 0.0508,0.0176 c 0.27822,0.0928 0.57088,0.1519 0.90234,0.19922 0.36055,0.0515 0.7554,0.0723 1.20313,0.0723 0.46503,0 0.85832,-0.02 1.21289,-0.0742 h 0.004 c 0.32609,-0.0471 0.61427,-0.10585 0.88868,-0.19727 l 0.0508,-0.0176 0.0488,-0.0215 c 0.31682,-0.14081 0.6415,-0.35776 0.87304,-0.70508 0.20798,-0.31195 0.3086,-0.69632 0.3086,-1.04492 v -0.82422 c 0.15249,0.13364 0.31857,0.31893 0.46875,0.44336 0.76714,0.63563 1.5454,1.17046 2.33593,1.59961 0.79707,0.43269 1.61943,0.74511 2.46094,0.93359 0.85362,0.20696 1.76091,0.3086 2.71875,0.3086 2.04937,0 3.9208,-0.38856 5.56836,-1.18945 1.63297,-0.79381 3.0226,-1.95483 4.12695,-3.43946 1.12313,-1.48253 1.9515,-3.24904 2.4961,-5.27148 v -0.004 c 0.56494,-2.04391 0.8418,-4.31067 0.84179,-6.79492 0,-2.08862 -0.21397,-4.08212 -0.64453,-5.97656 -0.43633,-1.91989 -1.14386,-3.62392 -2.13281,-5.08594 -0.97661,-1.49445 -2.27715,-2.70142 -3.85547,-3.58203 -5.2e-4,-3e-4 -0.001,2.9e-4 -0.002,0 -1.61245,-0.91097 -3.53009,-1.3457 -5.68945,-1.3457 -0.89551,0 -1.75778,0.0903 -2.58204,0.27343 -0.83287,0.18509 -1.65577,0.48565 -2.46679,0.89063 -0.002,9.5e-4 -0.004,10e-4 -0.006,0.002 -0.80887,0.38387 -1.61953,0.87878 -2.44141,1.48438 l -0.006,0.004 -0.006,0.006 c -0.19595,0.14829 -0.40371,0.37387 -0.60156,0.53711 v -14.14062 c 0,-0.34861 -0.10064,-0.73298 -0.30859,-1.04493 -0.23155,-0.34733 -0.55427,-0.56426 -0.8711,-0.70507 -0.34466,-0.15322 -0.68858,-0.22234 -1.08203,-0.27149 -0.39899,-0.0498 -0.8573,-0.0703 -1.40039,-0.0703 z m 0,2.21094 c 0.48417,0 0.86851,0.0204 1.12695,0.0527 0.18717,0.0234 0.24989,0.0466 0.32422,0.0684 v 19.08594 l 1.89844,-1.94336 c 0.78994,-0.8097 1.54067,-1.48161 2.24609,-2.01563 6.5e-4,-4.8e-4 0.001,-0.001 0.002,-0.002 0.72795,-0.53533 1.42622,-0.95604 2.08594,-1.26758 l 0.0117,-0.006 0.01,-0.006 c 0.66639,-0.33319 1.32044,-0.56773 1.96484,-0.71093 0.65498,-0.14555 1.35346,-0.22071 2.10157,-0.22071 1.86677,0 3.38108,0.36765 4.60351,1.0586 l 0.002,0.002 0.004,0.002 c 1.29062,0.71906 2.30572,1.66351 3.09375,2.87305 l 0.006,0.01 0.006,0.008 c 0.81775,1.20803 1.42348,2.64536 1.80859,4.33984 0.39126,1.72149 0.58985,3.54811 0.58985,5.48633 0,2.32188 -0.25896,4.39133 -0.76172,6.20898 l -0.002,0.004 v 0.004 c -0.48269,1.79558 -1.19512,3.29208 -2.125,4.51953 l -0.004,0.004 -0.002,0.004 c -0.90799,1.223 -2.00397,2.13461 -3.32618,2.77734 -1.31093,0.63726 -2.82954,0.9668 -4.60156,0.9668 -0.8063,0 -1.53851,-0.0844 -2.20312,-0.24609 l -0.0117,-0.002 -0.01,-0.002 c -0.63276,-0.14061 -1.2638,-0.37904 -1.90039,-0.72461 -0.64761,-0.35156 -1.30945,-0.80339 -1.98047,-1.35937 -0.67733,-0.56122 -1.40644,-1.25136 -2.18359,-2.06836 l -1.90625,-2.00391 v 5.89649 c -0.0915,0.0207 -0.15082,0.0394 -0.28516,0.0586 l -0.006,0.002 h -0.004 c -0.17872,0.0275 -0.48449,0.0488 -0.88086,0.0488 -0.37407,0 -0.67591,-0.0201 -0.89063,-0.0508 -0.10532,-0.015 -0.14314,-0.0304 -0.22265,-0.0469 v -40.68164 c 0.096,-0.025 0.16122,-0.0497 0.32617,-0.0703 0.26125,-0.0326 0.63331,-0.0527 1.0957,-0.0527 z m 10.75586,15.20117 c -0.76108,0 -1.5153,0.10701 -2.25,0.32031 -0.76018,0.2207 -1.50646,0.58096 -2.24023,1.0625 -0.72495,0.47575 -1.46053,1.07015 -2.2168,1.7832 l -0.006,0.006 -0.006,0.006 c -0.74717,0.7252 -1.52702,1.61478 -2.35156,2.67188 l -0.23438,0.29883 v 11.83984 l 0.25196,0.30469 c 1.44075,1.75856 2.83492,3.13177 4.2207,4.11523 l 0.006,0.004 0.004,0.002 c 1.42702,0.98971 2.99245,1.52344 4.60546,1.52344 1.4521,0 2.78697,-0.36469 3.89063,-1.11719 1.04772,-0.71435 1.9002,-1.66812 2.53125,-2.8125 0.63416,-1.13382 1.08305,-2.38616 1.34961,-3.74023 0.28089,-1.34358 0.42187,-2.70195 0.42187,-4.06836 0,-1.47033 -0.11676,-2.90338 -0.35156,-4.29688 v -0.002 c -0.22093,-1.43486 -0.6231,-2.73554 -1.2207,-3.88477 -0.60638,-1.16611 -1.43931,-2.13444 -2.47071,-2.85547 -1.09299,-0.78486 -2.44409,-1.16015 -3.93359,-1.16015 z m 0,2.21094 c 1.1364,0 1.978,0.26134 2.65039,0.74609 l 0.006,0.006 0.008,0.004 c 0.73284,0.51127 1.31651,1.18213 1.77735,2.06835 0.47047,0.90476 0.80801,1.96791 0.99804,3.20313 l 0.002,0.008 0.002,0.008 c 0.21526,1.27198 0.32227,2.58645 0.32227,3.94532 0,1.2183 -0.1253,2.42481 -0.37696,3.625 l -0.002,0.008 v 0.006 c -0.22615,1.14959 -0.59876,2.17496 -1.11328,3.09375 l -0.002,0.004 -0.002,0.004 c -0.47824,0.86792 -1.08231,1.53686 -1.84179,2.05469 -0.70431,0.48021 -1.54904,0.73242 -2.64454,0.73242 -1.13869,0 -2.22262,-0.35168 -3.34179,-1.12695 -0.001,-9.1e-4 -0.003,-0.001 -0.004,-0.002 -1.08307,-0.77008 -2.27984,-1.97265 -3.53125,-3.46093 v -10.19141 c 0.67881,-0.8499 1.32725,-1.60879 1.9043,-2.16992 l 0.006,-0.004 c 0.6797,-0.64035 1.31799,-1.15497 1.90625,-1.54101 0.5811,-0.38135 1.12895,-0.638 1.64258,-0.78711 0.53908,-0.15651 1.08095,-0.23242 1.63476,-0.23242 z"
         id="path45" />
    </g>
  </g>
</svg>
