<?xml version="1.0" encoding="UTF-8" standalone="no"?>
<svg
   width="232"
   height="232"
   xml:space="preserve"
   overflow="hidden"
   version="1.1"
   id="svg12"
   sodipodi:docname="4.3_understandable_parameters.svg"
   inkscape:version="1.3 (0e150ed6c4, 2023-07-21)"
   xmlns:inkscape="http://www.inkscape.org/namespaces/inkscape"
   xmlns:sodipodi="http://sodipodi.sourceforge.net/DTD/sodipodi-0.dtd"
   xmlns="http://www.w3.org/2000/svg"
   xmlns:svg="http://www.w3.org/2000/svg"><sodipodi:namedview
     id="namedview12"
     pagecolor="#505050"
     bordercolor="#eeeeee"
     borderopacity="1"
     inkscape:showpageshadow="0"
     inkscape:pageopacity="0"
     inkscape:pagecheckerboard="0"
     inkscape:deskcolor="#505050"
     inkscape:zoom="1.4142136"
     inkscape:cx="54.093669"
     inkscape:cy="237.23432"
     inkscape:window-width="1920"
     inkscape:window-height="986"
     inkscape:window-x="-11"
     inkscape:window-y="-11"
     inkscape:window-maximized="1"
     inkscape:current-layer="layer2" /><defs
     id="defs1"><clipPath
       id="clip0"><rect
         x="170"
         y="537"
         width="232"
         height="232"
         id="rect1" /></clipPath></defs><g
     inkscape:groupmode="layer"
     id="layer4"
     inkscape:label="frame" /><g
     inkscape:groupmode="layer"
     id="layer3"
     inkscape:label="person" /><g
     inkscape:groupmode="layer"
     id="layer1"
     inkscape:label="progress bars" /><g
     inkscape:groupmode="layer"
     id="layer2"
     inkscape:label="rule box"><path
       style="color:#000000;fill:#f9f6f1;stroke-width:1.37141;-inkscape-stroke:none;fill-opacity:1"
       d="m 52.817698,10.097292 c -2.239006,-0.03121 -11.12211,1.221624 -11.579289,12.25428 -0.466944,11.268191 3.235774,14.405247 4.04726,15.216735 0.811487,0.811488 2.261618,0.884589 1.754438,3.420483 -0.507178,2.535901 -4.118198,3.336213 -7.090071,5.172244 -0.880079,0.543714 -6.827494,2.518347 -9.790032,3.977618 -1.438768,0.7087 -4.287392,7.864732 -4.794571,9.589142 -0.507182,1.724412 -2.972235,12.730902 -3.479411,16.585464 -0.507181,3.854564 -2.334393,12.377708 -2.740137,14.000682 -0.405745,1.622977 -0.802274,2.40494 -1.208019,6.969534 -0.405742,4.564636 -0.392203,16.098866 -0.171426,21.101466 0.214816,4.86746 -0.602669,8.27094 -0.602669,10.50252 0,2.23158 -0.004,9.58691 0.40178,12.83285 0.405743,3.24592 2.625765,8.01062 3.640124,1.51873 1.014366,-6.4919 1.116947,-7.30435 1.116947,-7.30435 0,0 1.318532,1.01392 1.521406,-0.91339 0.202874,-1.92729 -0.115528,-8.8241 -0.216961,-11.46143 -0.101429,-2.63733 2.562688,-20.70698 2.93567,-26.281744 0.08597,-1.284872 1.972925,-7.060121 2.713353,-8.99987 0.740425,-1.939748 3.77579,-10.586465 4.282971,-12.412313 0.507178,-1.825845 2.129432,-6.798111 2.129432,-6.798111 0,0 -0.91338,11.479677 -0.91338,15.232806 0,3.753125 1.31947,20.591712 1.015164,24.243382 -0.304307,3.6517 -1.728008,8.77368 -1.829438,24.80052 -0.101429,16.02689 0.408878,30.28015 0.916058,35.55483 0.507177,5.27465 0.914075,5.98382 1.116948,8.31683 0.202872,2.33306 -0.608382,6.69572 -0.709811,9.63735 -0.101429,2.94166 2.128495,19.27118 2.635675,22.92288 0.507179,3.65168 1.216408,6.99993 1.317836,8.82575 0.10143,1.82585 0.101786,1.92808 0.101786,3.34817 0,1.42012 -0.302434,1.92644 -1.012484,3.65084 -0.710043,1.72443 -0.608724,3.14409 -0.811595,4.56421 -0.202874,1.4201 1.013049,2.03002 2.737459,1.92854 1.724411,-0.10148 4.767998,-0.20356 6.390975,-0.20356 1.622973,0 3.551035,0.10162 3.348163,-1.52141 -0.20287,-1.62299 -0.407595,-1.1156 -1.320515,-3.85441 -0.912923,-2.73873 -1.114269,-2.02992 -1.114269,-6.59454 0,-4.56459 1.418576,-22.41541 1.114269,-28.29867 -0.304308,-5.8833 -1.114269,-8.62394 -1.114269,-11.46412 0,-2.84023 2.644409,-24.55053 2.847279,-30.53525 0.202871,-5.98474 0.101539,-11.66359 0.811595,-13.59087 0.710048,-1.92729 0.190886,-2.37528 1.012484,-2.35978 0.865798,0.0159 0.920307,0.93668 1.31248,2.35442 0.696455,1.92492 0.0275,7.61688 0.230354,13.60158 0.202878,5.98474 2.849957,27.69503 2.849957,30.53526 0,2.8402 -0.809964,5.57815 -1.114269,11.46143 -0.304307,5.88326 1.114269,23.73676 1.114269,28.30136 0,4.56461 -0.201348,3.85574 -1.114269,6.59454 -0.912921,2.73876 -1.11764,2.23145 -1.320516,3.85441 -0.202878,1.6229 1.725202,1.5214 3.348163,1.5214 1.622981,0 4.66657,0.10203 6.390977,0.20357 1.724409,0.10149 2.940334,-0.50842 2.737457,-1.92854 -0.202858,-1.42008 -0.101539,-2.83982 -0.811595,-4.56422 -0.710041,-1.72438 -1.012484,-2.23074 -1.012484,-3.65083 0,-1.4201 -0.0023,-1.52232 0.09911,-3.34817 0.10143,-1.82583 0.813347,-5.17407 1.320517,-8.82576 0.507182,-3.65169 2.737116,-19.9812 2.635673,-22.92287 -0.101443,-2.94162 -0.912684,-7.30433 -0.709811,-9.63734 0.202877,-2.33303 0.609767,-3.04219 1.116949,-8.31685 0.507184,-5.27467 1.017513,-19.52793 0.916057,-35.55482 -0.10143,-16.02688 -1.525131,-21.14884 -1.829437,-24.80052 -0.304307,-3.65168 1.015163,-20.490254 1.015163,-24.243385 0,-3.753125 -0.913378,-15.232806 -0.913378,-15.232806 0,0 1.622248,4.972264 2.129432,6.798111 0.507168,1.825846 3.542542,10.472565 4.282971,12.412313 0.740429,1.939748 2.627379,7.715003 2.713352,8.999861 0.372981,5.574846 3.037126,23.644386 2.935669,26.281756 -0.101525,2.63731 -0.419826,9.53415 -0.216961,11.46143 0.202882,1.9273 1.521406,0.91337 1.521406,0.91337 0,0 0.102568,0.81244 1.116949,7.30436 1.014364,6.4919 3.234357,1.72723 3.640122,-1.51873 0.405901,-3.24596 0.40178,-10.60124 0.40178,-12.83284 0,-2.23159 -0.817467,-5.63509 -0.602669,-10.50251 0.220802,-5.00263 0.234306,-16.53687 -0.171426,-21.101473 C 85.834664,92.724215 85.438128,91.942273 85.032399,90.319298 84.626631,88.696324 82.796774,80.173176 82.289583,76.318615 81.782405,72.464052 79.320028,61.454883 78.812842,59.730472 78.596465,58.994771 77.919156,57.242936 77.141438,55.452858 L 52.327527,63.903624 51.457005,61.342948 75.965563,52.996646 C 75.250091,51.606519 74.541165,50.401574 74.018272,50.14401 71.055723,48.684739 65.108306,46.710108 64.228241,46.166391 61.256367,44.330358 58.154273,43.747007 57.64709,41.211109 57.139923,38.675213 57.861477,38.529793 58.672968,37.718304 59.484457,36.906815 63.23223,35.382208 62.939868,22.50157 62.70604,12.199747 54.983929,10.071222 52.817698,10.097292 Z"
       id="path18" /><g
       id="g13"
       transform="matrix(1.7599066,0,0,1.4963681,-97.865881,-64.115227)"
       style="fill:#f9f6f1;fill-opacity:1"><path
         style="color:#000000;fill:#f9f6f1;-inkscape-stroke:none;fill-opacity:1"
         d="m 133.62256,170.79619 h 3.97957 c 0.59635,0 1.07645,0.48009 1.07645,1.07644 v 15.80655 c 0,0.59635 -0.4801,1.07645 -1.07645,1.07645 h -3.97957 c -0.59635,0 -1.07645,-0.4801 -1.07645,-1.07645 v -15.80655 c 0,-0.59635 0.4801,-1.07644 1.07645,-1.07644 z"
         id="path27" /><path
         style="color:#000000;fill:#f9f6f1;stroke-linecap:round;-inkscape-stroke:none;fill-opacity:1"
         d="m 138.14276,188.78677 c 0,0.91472 -1.3512,2.57514 -2.64561,2.57514 -1.29442,0 -2.04189,-1.66042 -2.04189,-2.57514 0,-0.91472 1.04933,-1.65625 2.34375,-1.65625 1.29442,0 2.34375,0.74153 2.34375,1.65625 z"
         id="path26"
         sodipodi:nodetypes="sssss" /><path
         style="color:#000000;fill:#f9f6f1;-inkscape-stroke:none;fill-opacity:1"
         d="m 135.61328,143.81836 c -1.95082,0 -3.54492,1.5941 -3.54492,3.54492 v 41.20117 c 0,1.95082 1.5941,3.54492 3.54492,3.54492 1.95082,0 3.54297,-1.5941 3.54297,-3.54492 v -41.20117 c 0,-1.95082 -1.59215,-3.54492 -3.54297,-3.54492 z m 0,1.47656 c 1.15812,0 2.06641,0.91024 2.06641,2.06836 v 41.20117 c 0,1.15812 -0.90829,2.06641 -2.06641,2.06641 -1.15812,0 -2.06836,-0.90829 -2.06836,-2.06641 v -41.20117 c 0,-1.15812 0.91024,-2.06836 2.06836,-2.06836 z"
         id="path25" /></g><g
       id="g12"
       transform="matrix(1.7830657,0,0,1.4952488,-104.30354,-63.925715)"
       style="fill:#f9f6f1;fill-opacity:1"><path
         style="color:#000000;fill:#f9f6f1;-inkscape-stroke:none;fill-opacity:1"
         d="m 147.28985,182.58018 h 5.34067 c 0.18317,0 0.33064,0.14747 0.33064,0.33065 v 4.85513 c 0,0.18318 -0.14747,0.33064 -0.33064,0.33064 h -5.34067 c -0.18317,0 -0.33064,-0.14746 -0.33064,-0.33064 v -4.85513 c 0,-0.18318 0.14747,-0.33065 0.33064,-0.33065 z"
         id="path24" /><path
         style="color:#000000;fill:#f9f6f1;stroke-linecap:round;-inkscape-stroke:none;fill-opacity:1"
         d="m 152.42784,189.24838 c 0,0.91472 -1.4349,1.78165 -2.72932,1.78165 -1.29442,0 -2.86953,-1.26402 -2.86953,-2.17874 0,-0.91472 1.61016,-3.51631 2.90458,-3.51631 1.29442,0 2.69427,2.99868 2.69427,3.9134 z"
         id="path23"
         sodipodi:nodetypes="sssss" /><path
         style="color:#000000;fill:#f9f6f1;-inkscape-stroke:none;fill-opacity:1"
         d="m 149.67969,143.81836 c -1.95082,0 -3.54492,1.5941 -3.54492,3.54492 v 41.20117 c 0,1.95082 1.5941,3.54492 3.54492,3.54492 1.95081,0 3.54297,-1.5941 3.54297,-3.54492 v -41.20117 c 0,-1.95082 -1.59216,-3.54492 -3.54297,-3.54492 z m 0,1.47656 c 1.15812,0 2.0664,0.91024 2.0664,2.06836 v 41.20117 c 0,1.15812 -0.90828,2.06641 -2.0664,2.06641 -1.15812,0 -2.06836,-0.90829 -2.06836,-2.06641 v -41.20117 c 0,-1.15812 0.91024,-2.06836 2.06836,-2.06836 z"
         id="path22" /></g><g
       id="g11"
       transform="matrix(1.7787196,0,0,1.4953109,-106.8222,-63.93618)"
       style="fill:#f9f6f1;fill-opacity:1;stroke:none"><path
         style="color:#000000;fill:#f9f6f1;-inkscape-stroke:none;fill-opacity:1;stroke:none"
         d="m 161.39834,174.73059 h 4.6944 c 0.43468,0 0.78462,0.34994 0.78462,0.78462 v 11.52137 c 0,0.43468 -0.34994,0.78462 -0.78462,0.78462 h -4.6944 c -0.43468,0 -0.78462,-0.34994 -0.78462,-0.78462 v -11.52137 c 0,-0.43468 0.34994,-0.78462 0.78462,-0.78462 z"
         id="path21" /><path
         style="color:#000000;fill:#f9f6f1;stroke-linecap:round;-inkscape-stroke:none;fill-opacity:1;stroke:none"
         d="m 166.868,188.78999 c 0,0.91472 -1.87506,1.80254 -3.16948,1.80254 -1.29442,0 -2.60728,-1.1595 -2.60728,-2.07422 0,-0.91472 1.55883,-2.26231 2.85324,-2.26231 1.29442,0 2.92352,1.61927 2.92352,2.53399 z"
         id="path20"
         sodipodi:nodetypes="sssss" /><path
         style="color:#000000;fill:#f9f6f1;-inkscape-stroke:none;fill-opacity:1;stroke:none"
         d="m 163.74609,143.81836 c -1.95082,0 -3.54492,1.5941 -3.54492,3.54492 v 41.20117 c 0,1.95083 1.5941,3.54493 3.54492,3.54492 1.95083,0 3.54297,-1.59409 3.54297,-3.54492 v -41.20117 c 0,-1.95082 -1.59214,-3.54492 -3.54297,-3.54492 z m 0,1.47656 c 1.15812,0 2.06641,0.91025 2.06641,2.06836 v 41.20117 c 0,1.15812 -0.90829,2.06641 -2.06641,2.06641 -1.15811,0 -2.06836,-0.90829 -2.06836,-2.06641 v -41.20117 c 0,-1.15811 0.91025,-2.06836 2.06836,-2.06836 z"
         id="path19" /></g><g
       id="g10"
       transform="matrix(1.7897674,0,0,1.4951529,-111.93204,-63.909612)"
       style="fill:#f9f6f1;fill-opacity:1;stroke:none"><path
         style="color:#000000;fill:#f9f6f1;-inkscape-stroke:none;fill-opacity:1;stroke:none"
         d="m 176.87083,154.94891 h 1.88264 c 1.09259,0 1.97218,0.8796 1.97218,1.97219 v 28.9596 c 0,1.09259 -0.87959,1.97219 -1.97218,1.97219 h -1.88264 c -1.09259,0 -1.97218,-0.8796 -1.97218,-1.97219 v -28.9596 c 0,-1.09259 0.87959,-1.97219 1.97218,-1.97219 z"
         id="path17" /><path
         style="color:#000000;fill:#f9f6f1;stroke-linecap:round;-inkscape-stroke:none;fill-opacity:1;stroke:none"
         d="m 180.66172,188.37135 c 0,0.91472 -1.29378,2.40868 -2.5882,2.40868 -1.29442,0 -3.07709,-1.32675 -3.07709,-2.24147 0,-0.91473 1.81759,-1.94887 3.11201,-1.94887 1.29442,0 2.55328,0.86694 2.55328,1.78166 z"
         id="path16"
         sodipodi:nodetypes="sssss" /><path
         style="color:#000000;fill:#f9f6f1;-inkscape-stroke:none;fill-opacity:1;stroke:none"
         d="m 177.8125,143.81836 c -1.95082,0 -3.54492,1.5941 -3.54492,3.54492 v 41.20117 c 0,1.95082 1.5941,3.54492 3.54492,3.54492 1.95082,0 3.54492,-1.5941 3.54492,-3.54492 v -41.20117 c 0,-1.95082 -1.5941,-3.54492 -3.54492,-3.54492 z m 0,1.47656 c 1.15812,0 2.06641,0.91024 2.06641,2.06836 v 41.20117 c 0,1.15812 -0.90829,2.06641 -2.06641,2.06641 -1.15812,0 -2.06836,-0.90829 -2.06836,-2.06641 v -41.20117 c 0,-1.15812 0.91024,-2.06836 2.06836,-2.06836 z"
         id="path15" /></g><path
       style="color:#000000;fill:#f9f6f1;stroke-width:1.37141;-inkscape-stroke:none;fill-opacity:1"
       d="m 125.55322,36.108507 -49.582299,16.869389 0.8732,2.560675 49.579609,-16.869389 z"
       id="path3" /><path
       style="color:#000000;fill:#f9f6f1;stroke-width:1.37141;-inkscape-stroke:none;fill-opacity:1"
       d="m 152.37066,105.71817 c -8.51484,0.13275 -15.4524,7.17498 -15.46047,15.69084 v 0.003 0.003 c -3.9e-4,8.61458 7.09232,15.70729 15.7069,15.7069 h 0.003 0.003 c 8.48666,-0.01 15.51076,-6.90401 15.68279,-15.38815 l -10.19181,-0.20625 c -0.0618,3.05208 -2.44791,5.39347 -5.49901,5.39992 -3.10416,1.4e-4 -5.51113,-2.40601 -5.51242,-5.50974 v -0.003 c 0.004,-3.06493 2.36173,-5.45393 5.4267,-5.5017 z"
       id="path9" /><path
       style="color:#000000;fill:#f9f6f1;stroke-width:1.37141;-inkscape-stroke:none;fill-opacity:1"
       d="m 133.76023,9.759797 c -4.42186,0 -7.98202,3.560201 -7.98202,7.982022 v 65.565083 c 0,4.421832 3.56016,7.982024 7.98202,7.982024 h 78.10597 c 4.42176,0 7.98202,-3.560192 7.98202,-7.982024 V 17.741819 c 0,-4.421821 -3.56026,-7.982022 -7.98202,-7.982022 z m 73.50156,11.549826 c 1.64912,-0.02138 3.00376,1.297294 3.02676,2.946383 0.0229,1.650148 -1.29625,3.006434 -2.94639,3.02942 l -57.40896,0.771417 c -1.65015,0.02287 -3.00644,-1.296237 -3.02943,-2.946385 -0.0229,-1.651183 1.29788,-3.007902 2.94908,-3.029418 z m -70.16412,0.70981 c 1.64961,9.63e-4 2.98642,1.352159 2.98657,3.018705 -1.5e-4,1.666546 -1.33696,3.017742 -2.98657,3.018705 -1.65065,5.21e-4 -2.98908,-1.35111 -2.98923,-3.018705 1.5e-4,-1.667595 1.33858,-3.019226 2.98923,-3.018705 z m 70.16412,16.213149 c 1.65015,-0.02138 3.00522,1.298921 3.02676,2.949062 0.0214,1.649109 -1.2973,3.00375 -2.94639,3.026741 l -57.40896,0.774096 c -1.65119,0.02287 -3.00791,-1.297864 -3.02943,-2.949063 -0.0214,-1.650144 1.29893,-3.005219 2.94908,-3.02674 z m -70.16412,0.712489 c 1.64961,9.63e-4 2.98642,1.352159 2.98657,3.018705 -1.5e-4,1.666546 -1.33696,3.017742 -2.98657,3.018705 -1.65065,5.21e-4 -2.98908,-1.35111 -2.98923,-3.018705 1.5e-4,-1.667595 1.33858,-3.019226 2.98923,-3.018705 z m 70.16412,16.213149 c 1.64912,-0.02138 3.00376,1.297295 3.02676,2.946384 0.0229,1.650148 -1.29625,3.006433 -2.94639,3.029419 L 149.9332,61.90544 c -1.65015,0.02287 -3.00644,-1.296237 -3.02943,-2.946385 -0.0229,-1.651183 1.29788,-3.007902 2.94908,-3.029418 z m -70.16412,0.709811 c 1.64961,9.63e-4 2.98642,1.352159 2.98657,3.018705 0.001,1.667592 -1.33593,3.02042 -2.98657,3.021383 -1.65168,5.21e-4 -2.99054,-1.352742 -2.98923,-3.021383 1.5e-4,-1.667595 1.33858,-3.019226 2.98923,-3.018705 z m 70.16412,16.213148 c 1.65015,-0.02138 3.00522,1.298922 3.02676,2.949063 0.0229,1.650148 -1.29625,3.006432 -2.94639,3.029418 l -57.40896,0.771417 c -1.65118,0.02286 -3.00791,-1.297862 -3.02943,-2.949062 -0.0214,-1.650144 1.29893,-3.00522 2.94908,-3.026741 z m -70.16412,0.71249 c 1.64961,9.63e-4 2.98642,1.352157 2.98657,3.018703 -1.5e-4,1.666546 -1.33696,3.017742 -2.98657,3.018705 -1.65065,5.21e-4 -2.98908,-1.35111 -2.98923,-3.018705 1.5e-4,-1.667595 1.33858,-3.019224 2.98923,-3.018703 z"
       id="path37" /><path
       style="color:#000000;fill:#f9f6f1;stroke-width:1.37141;-inkscape-stroke:none;fill-opacity:1"
       d="m 195.65305,105.47979 c -8.41869,0.25725 -15.21295,7.24945 -15.22746,15.67208 v 0.008 0.005 c 0.005,7.01585 4.71731,13.22423 11.47483,15.11495 l 2.74549,-9.81681 c -2.40013,-0.67156 -4.01827,-2.80795 -4.02315,-5.30083 0.01,-3.02557 2.31558,-5.40122 5.34099,-5.49366 z"
       id="path9-9" /></g></svg>
