<?xml version="1.0" encoding="UTF-8" standalone="no"?>
<svg
   viewBox="0 0 232 232"
   version="1.1"
   id="svg1"
   sodipodi:docname="5.1_standardisation_of_measures.svg"
   inkscape:version="1.3 (0e150ed6c4, 2023-07-21)"
   width="232"
   height="232"
   xml:space="preserve"
   xmlns:inkscape="http://www.inkscape.org/namespaces/inkscape"
   xmlns:sodipodi="http://sodipodi.sourceforge.net/DTD/sodipodi-0.dtd"
   xmlns="http://www.w3.org/2000/svg"
   xmlns:svg="http://www.w3.org/2000/svg"><defs
     id="defs1" /><sodipodi:namedview
     id="namedview1"
     pagecolor="#505050"
     bordercolor="#eeeeee"
     borderopacity="1"
     inkscape:showpageshadow="0"
     inkscape:pageopacity="0"
     inkscape:pagecheckerboard="0"
     inkscape:deskcolor="#505050"
     inkscape:zoom="0.84079416"
     inkscape:cx="-624.40967"
     inkscape:cy="184.9442"
     inkscape:window-width="1920"
     inkscape:window-height="986"
     inkscape:window-x="-11"
     inkscape:window-y="-11"
     inkscape:window-maximized="1"
     inkscape:current-layer="svg1" /><!--!Font Awesome Free 6.5.2 by @fontawesome - https://fontawesome.com License - https://fontawesome.com/license/free Copyright 2024 Fonticons, Inc.--><g
     id="g17"
     transform="translate(-2.0649624e-4)"
     style="fill:#f9f6f1;fill-opacity:1"><path
       id="path17"
       style="fill:#f9f6f1;stroke-width:0.690725;fill-opacity:1"
       d="m 180.73438,66.693877 c -14.12873,0 -15.00725,0.0777 -18.0586,1.595703 -6.1287,3.04893 -10.22498,8.416915 -11.71094,15.345703 -1.20174,5.603536 1.2306,9.650391 5.80078,9.650391 1.25818,0 2.70178,0.731082 3.99024,2.019531 1.82699,1.826988 2.01953,2.456438 2.01953,6.615235 0,4.15877 -0.19254,4.78824 -2.01953,6.61523 -1.95495,1.95491 -2.23443,2.0185 -8.80664,2.0332 -5.06964,0.0113 -7.48721,0.33361 -9.55078,1.27344 -3.55294,1.61813 -7.64776,6.16943 -8.58399,9.54102 -0.47629,1.7152 -0.73333,16.18822 -0.73633,41.33984 -0.004,41.92691 -0.0913,40.93874 3.69532,42.4668 0.81412,0.32862 20.53464,0.61642 43.82226,0.64062 45.34832,0.0469 45.25478,0.0541 47.08789,-3.37109 0.99149,-1.85273 0.96227,-77.49833 -0.0312,-81.07617 -0.93623,-3.37159 -5.03104,-7.92289 -8.58398,-9.54102 -2.06358,-0.93983 -4.48115,-1.26214 -9.55078,-1.27344 -6.57223,-0.0147 -6.85169,-0.0782 -8.80664,-2.0332 -1.82699,-1.82699 -2.01758,-2.45646 -2.01758,-6.61523 0,-4.158797 0.19059,-4.788247 2.01758,-6.615235 1.28846,-1.288449 2.73401,-2.019531 3.99218,-2.019531 4.5702,0 7.00254,-4.046855 5.80079,-9.650391 -1.48596,-6.928788 -5.58418,-12.296773 -11.71289,-15.345703 -3.05135,-1.518009 -3.92792,-1.595703 -18.05664,-1.595703 z m 8.34374,73.271483 h 2.79297 2.79493 v 14.74023 l 0.95703,-0.75195 c 3.96732,-3.12071 10.04594,-1.3477 12.09375,3.52734 0.82654,1.96678 0.81899,7.47048 -0.0117,9.45313 -0.91109,2.17445 -2.95449,4.43807 -4.64063,5.14258 -1.74361,0.72846 -5.37568,0.77671 -6.62109,0.0879 -0.46453,-0.25691 -1.23721,-0.8243 -1.77734,-1.29883 v 1.69922 h -2.79493 -2.79297 V 156.2642 Z m -9.85742,0.18359 h 2.79492 2.79297 v 16.29883 16.30078 h -2.79297 -2.79492 v -16.30078 z m -13.15625,3.72656 c 0.72238,0 1.04883,3.75952 1.04883,12.10743 v 12.10937 h 3.25977 c 2.8563,0 3.25976,0.28789 3.25976,2.32813 v 2.32812 h -9.77929 -9.78125 v -2.32812 c 0,-2.04024 0.40343,-2.32813 3.25976,-2.32813 h 3.26172 v -7.91797 c 0,-8.14915 -0.35064,-8.7924 -3.79102,-6.95117 -1.50385,0.80484 -1.98638,0.57136 -2.88476,-1.40039 -0.59332,-1.30207 -0.90658,-2.49791 -0.69531,-2.65625 1.09799,-0.82287 11.94324,-5.29102 12.84179,-5.29102 z m 32.19141,13.14649 c -0.95314,-0.0251 -1.92155,0.3278 -2.72461,1.13086 -0.43925,0.43925 -0.70527,0.78924 -0.86523,1.31055 v 6.07617 c 0.26006,1.07448 0.78147,1.62131 1.77734,2.16601 3.33684,1.8251 6.71313,-2.1744 5.82617,-6.90234 -0.43262,-2.30607 -2.19405,-3.73325 -4.01367,-3.78125 z" /><path
       id="path16"
       style="fill:#f9f6f1;stroke-width:0.228989;fill-opacity:1"
       d="m 56.320312,41.019531 c -6.347963,-0.08662 -12.800336,0.650403 -18.15625,2.275391 -3.18809,0.967269 -7.090495,2.935873 -8.523437,4.296875 -2.890551,2.745441 -2.952882,5.685512 -0.177734,8.335937 1.298761,1.240404 3.40175,2.530164 5.429687,3.328125 1.411018,0.555217 1.621295,0.728632 2.548828,2.117188 4.217108,6.313199 4.30785,11.347943 0.28125,15.560547 -1.561399,1.633521 -4.372645,3.598851 -6.566406,4.58789 -5.269969,2.375935 -13.041671,4.428105 -20.080078,5.302735 -1.0925887,0.135763 -2.425709,0.440107 -2.9628908,0.677734 -1.405302,0.621633 -3.3504389,2.554805 -3.9863281,3.960938 l -0.5390625,1.191406 v 53.812503 53.8125 l 0.5449219,1.03125 c 1.1831341,2.23414 2.3110887,3.25574 4.5644531,4.13867 1.030131,0.40359 2.9150544,0.41865 46.9843754,0.37305 l 45.914059,-0.0469 1.29492,-0.60742 c 1.60948,-0.75457 3.05618,-2.21025 3.83399,-3.85742 l 0.5957,-1.25977 V 146.35156 92.654297 l -0.64062,-1.302735 c -0.93529,-1.904589 -2.69802,-3.427489 -4.66407,-4.029296 -0.86111,-0.263598 -2.236043,-0.542631 -3.054682,-0.619141 -0.818635,-0.0765 -3.032718,-0.449996 -4.921876,-0.832031 -21.481717,-4.344069 -28.556677,-12.54293 -20.835937,-24.146485 1.165661,-1.751872 1.332175,-1.902493 2.611328,-2.380859 3.229495,-1.207748 6.446015,-3.700365 7.246094,-5.615234 0.468586,-1.121474 0.416724,-2.941562 -0.113281,-3.980469 C 82.257436,48.395872 80.000875,46.472315 77.75,45.316406 72.473103,42.60653 64.48198,41.130894 56.320312,41.019531 Z m -10.86914,85.097659 h 2.855469 2.855468 v 16.6582 16.6582 h -2.855468 -2.855469 v -16.6582 z m -13.447266,3.80664 c 0.738289,0 1.072266,3.84327 1.072266,12.375 v 12.375 h 3.330078 c 2.91922,0 3.332031,0.2957 3.332031,2.38086 v 2.3789 h -9.99414 -9.996094 v -2.3789 c 0,-2.08516 0.412786,-2.38086 3.332031,-2.38086 h 3.332031 v -8.0918 c 0,-8.32861 -0.358857,-8.98529 -3.875,-7.10351 -1.536992,0.82256 -2.029095,0.58352 -2.947265,-1.43164 -0.606391,-1.33074 -0.924901,-2.55108 -0.708985,-2.7129 1.122165,-0.84098 12.204704,-5.41015 13.123047,-5.41015 z m 29.779297,5.71094 h 3.607422 l -3.068359,5.65429 -3.06836,5.65235 3.09375,5.65234 c 1.701556,3.10927 3.09375,5.91985 3.09375,6.24609 0,0.32626 -1.415795,0.59375 -3.144531,0.59375 -2.8903,0 -3.404388,-0.49048 -6.402344,-6.10156 l -3.259765,-6.10156 2.769531,-5.79883 c 2.67057,-5.58748 2.902033,-5.79687 6.378906,-5.79687 z m 15.390625,0.14453 c 0.744571,0.0148 1.646254,0.10014 2.800781,0.22851 7.375363,0.82014 7.653375,0.82344 9.978516,0.0859 1.84854,-0.58631 2.140625,-0.33922 2.140625,1.81055 0,1.57944 -0.522307,2.49023 -1.427734,2.49023 -0.970122,0 -1.436372,0.9918 -1.457032,3.09375 -0.05221,5.33592 -3.78257,8.33008 -10.378906,8.33008 -3.235652,0 -3.86914,0.31263 -3.86914,1.9043 0,1.67108 0.633296,1.90234 5.189453,1.90234 2.85493,0 6.292584,0.5019 7.638671,1.11523 4.385214,1.99803 4.523728,8.41668 0.25,11.59571 -3.083953,2.29404 -13.220965,3.14738 -16.669921,1.40234 -3.197195,-1.6177 -3.721992,-5.14885 -1.261719,-8.47656 1.130026,-1.52855 1.613449,-2.7793 1.074219,-2.7793 -1.320597,0 -1.255307,-6.0103 0.08008,-7.3457 0.781508,-0.78151 0.657117,-1.64205 -0.47461,-3.25781 -2.299143,-3.28249 -1.872202,-6.34461 1.333985,-9.55079 1.998278,-1.99828 2.81902,-2.59315 5.052734,-2.54882 z m 2.431641,3.8125 c -0.197221,-0.006 -0.399462,0.003 -0.607422,0.0273 -2.069315,0.23822 -2.674946,0.8586 -2.919922,2.99805 -0.169939,1.484 -0.07542,3.3038 0.208984,4.04492 0.806002,2.10039 5.112732,1.64269 6.353516,-0.67578 1.607139,-3.00293 -0.07685,-6.30869 -3.035156,-6.39453 z m 2.322265,20.91406 c -0.66932,-0.0128 -1.472628,0.013 -2.435546,0.0684 -4.604745,0.26489 -5.007813,0.47638 -5.007813,2.625 0,1.70589 0.641689,2.48967 2.378906,2.90625 4.902839,1.17567 9.409643,-1.20123 8.208985,-4.33008 -0.329816,-0.85944 -1.136572,-1.23119 -3.144532,-1.26953 z" /></g></svg>
