<?xml version="1.0" encoding="UTF-8" standalone="no"?>
<svg
   viewBox="0 0 232 232"
   version="1.1"
   id="svg1"
   sodipodi:docname="5.3_integrating_disciplines_v2.svg"
   inkscape:version="1.3 (0e150ed6c4, 2023-07-21)"
   width="232"
   height="232"
   xml:space="preserve"
   xmlns:inkscape="http://www.inkscape.org/namespaces/inkscape"
   xmlns:sodipodi="http://sodipodi.sourceforge.net/DTD/sodipodi-0.dtd"
   xmlns="http://www.w3.org/2000/svg"
   xmlns:svg="http://www.w3.org/2000/svg"><defs
     id="defs1" /><sodipodi:namedview
     id="namedview1"
     pagecolor="#505050"
     bordercolor="#eeeeee"
     borderopacity="1"
     inkscape:showpageshadow="0"
     inkscape:pageopacity="0"
     inkscape:pagecheckerboard="0"
     inkscape:deskcolor="#505050"
     inkscape:zoom="1.6815883"
     inkscape:cx="140.34351"
     inkscape:cy="121.61122"
     inkscape:window-width="1920"
     inkscape:window-height="986"
     inkscape:window-x="-11"
     inkscape:window-y="-11"
     inkscape:window-maximized="1"
     inkscape:current-layer="svg1" /><!--!Font Awesome Free 6.5.2 by @fontawesome - https://fontawesome.com License - https://fontawesome.com/license/free Copyright 2024 Fonticons, Inc.--><path
     style="fill:#f9f6f1;fill-opacity:1;stroke-width:0.30304"
     d="m -435.22379,169.44169 c -0.73438,-0.33519 -9.36896,-5.73383 -9.82189,-6.14096 -0.0685,-0.0616 0.44868,-0.79187 1.14933,-1.6228 1.78869,-2.12129 2.2646,-3.38606 2.28417,-6.0703 0.0138,-1.89463 -0.1245,-2.56287 -0.82807,-4.00091 -1.04032,-2.12634 -3.26319,-4.18356 -5.54021,-5.12732 -1.68811,-0.69969 -1.69308,-0.7056 -1.51703,-1.80658 0.0971,-0.6075 0.0297,-1.90678 -0.1498,-2.88727 -0.9099,-4.96928 -4.64374,-8.08011 -9.81971,-8.18126 l -2.42432,-0.0473 -0.195,-1.55662 c -0.75917,-6.06034 -6.7022,-10.06963 -12.44969,-8.39878 -0.93031,0.27042 -1.75118,0.4917 -1.82415,0.4917 -0.073,0 -0.30599,-0.57956 -0.51781,-1.28791 -0.99748,-3.33563 -2.93179,-5.72609 -5.62008,-6.94544 -1.2046,-0.54635 -2.04322,-0.68475 -4.09104,-0.67508 -4.03645,0.0191 -5.06367,0.72965 -11.86505,8.20826 l -1.7058,1.87564 -5.1089,-2.88543 c -2.80989,-1.58702 -6.23393,-3.50029 -7.60898,-4.25171 -1.37504,-0.75145 -2.50008,-1.40572 -2.50008,-1.4539 0,-0.0859 10.39983,-27.465946 15.19719,-40.010196 1.33856,-3.50012 2.54587,-6.48142 2.68292,-6.62515 0.13763,-0.14437 2.94016,0.63223 6.26078,1.7349 6.9651,2.31284 9.53937,2.80785 12.12469,2.33141 0.97127,-0.17897 5.31153,-1.49526 9.64499,-2.92507 12.39676,-4.09022 16.97882,-5.27759 20.2852,-5.25656 1.51023,0.01 3.2908,0.11412 3.95684,0.23225 l 1.21098,0.21476 -1.05946,0.62924 c -0.58271,0.34607 -3.57452,1.98024 -6.64849,3.63151 -6.42707,3.4525 -7.8113,4.64212 -10.19626,8.7627 -0.8184,1.41399 -2.35994,4.03738 -3.42564,5.82974 -5.87945,9.88841 -5.58481,9.26745 -5.7325,12.08131 -0.12553,2.39192 -0.073,2.67883 0.82452,4.501946 1.77451,3.60455 4.55965,5.31254 8.66284,5.31254 5.59685,0 9.83204,-2.59251 15.64252,-9.575366 1.97056,-2.36817 3.93181,-4.58027 4.35834,-4.91576 0.97775,-0.76912 7.62114,-2.88264 8.11684,-2.5823 0.5384,0.32623 13.24592,11.409456 33.09742,28.866936 17.83293,15.68229 17.25618,15.06403 17.26707,18.5105 0.008,2.54445 -0.75161,4.05741 -2.70074,5.37897 -1.2541,0.85029 -1.71054,0.98488 -3.34042,0.98488 -1.38169,0 -2.22635,-0.18283 -3.15033,-0.68185 -0.69436,-0.37501 -6.61372,-5.33696 -13.15414,-11.02657 -17.1862,-14.95048 -17.5605,-15.26215 -18.32826,-15.26215 -0.89188,0 -1.89702,1.02039 -1.89702,1.92582 0,0.85072 0.77448,1.59477 9.82483,9.43861 14.36994,12.45428 17.58555,15.32888 18.15713,16.23164 2.50269,3.95273 -0.41351,9.64828 -4.95091,9.66952 -2.65003,0.0125 -3.11127,-0.27652 -9.89138,-6.19574 -4.12415,-3.60048 -8.70266,-7.56388 -16.6379,-14.40265 -3.836,-3.30595 -4.10604,-3.51453 -4.85216,-3.74803 -0.95111,-0.29762 -2.01066,0.83639 -1.89435,2.02746 0.0779,0.79836 0.70178,1.47263 3.88089,4.19471 2.08341,1.78391 7.26272,6.2185 11.50959,9.85465 5.07127,4.34202 7.95594,7.02726 8.40437,7.82338 0.79395,1.4095 0.92348,3.86246 0.28453,5.38869 -0.55478,1.32522 -2.62934,3.13737 -4.04015,3.52914 -3.13306,0.86999 -3.39532,0.71108 -14.49282,-8.78116 -5.46144,-4.67145 -10.21446,-8.69286 -10.56226,-8.93647 -0.90968,-0.63717 -1.80973,-0.54651 -2.56596,0.25846 -1.15962,1.23434 -0.87712,1.78748 2.29574,4.49514 9.95721,8.49725 12.43924,10.83572 12.96655,12.21643 1.37302,3.59524 -0.93702,7.3406 -4.86023,7.88013 -0.72969,0.10034 -1.57401,0.003 -2.12128,-0.24831 z m -22.72801,-1.91285 c -1.06768,-0.28649 -2.62716,-1.6649 -3.06256,-2.70694 -0.56347,-1.34858 -0.53416,-3.27913 0.0691,-4.55039 0.27032,-0.56965 2.34292,-3.04488 4.60579,-5.50051 3.91505,-4.24856 4.17535,-4.46921 5.37478,-4.55542 1.03902,-0.0747 1.48935,0.085 2.56326,0.90913 0.71653,0.54986 1.57651,1.36906 1.91105,1.8205 0.83707,1.12956 1.0349,3.77534 0.38302,5.12245 -0.54329,1.12272 -6.51047,7.88773 -7.79452,8.83667 -0.80668,0.59615 -2.93343,0.92409 -4.0499,0.62451 z m -11.73855,-8.56916 c -1.62051,-0.51832 -2.92047,-1.56435 -3.54347,-2.8513 -0.79185,-1.63575 -0.8371,-4.22108 -0.0973,-5.55733 0.95268,-1.72075 10.23791,-11.77584 11.37054,-12.31331 1.21466,-0.57638 3.4058,-0.66336 4.67086,-0.1854 2.83373,1.07067 4.47427,4.89049 3.30363,7.69222 -0.54921,1.31443 -10.49047,12.3611 -11.56462,12.85051 -1.11165,0.5065 -3.13803,0.68499 -4.13968,0.36461 z m -12.8077,-8.77416 c -2.32708,-0.58526 -4.18245,-2.55187 -4.68321,-4.96401 -0.56747,-2.73345 -0.0893,-3.93119 2.97446,-7.45006 4.9872,-5.72812 7.77404,-8.72983 8.73888,-9.41261 2.95932,-2.09418 6.96166,-1.03172 8.82863,2.34366 0.84184,1.52198 0.96049,3.92497 0.2722,5.51233 -0.61743,1.42395 -10.54836,12.40321 -11.97231,13.23612 -1.32864,0.77718 -2.89151,1.05324 -4.15865,0.73457 z m -13.69023,-12.3107 c -2.26048,-1.35492 -3.38368,-4.07674 -2.80187,-6.78961 0.29936,-1.39593 0.76776,-2.03662 4.58686,-6.27439 2.67047,-2.96319 4.63047,-4.87721 5.26649,-5.14295 1.29358,-0.54051 3.79433,-0.54363 5.08019,-0.007 2.81255,1.17516 4.50267,6.03638 2.96315,8.52276 -0.3096,0.50002 -1.74185,2.18276 -3.18278,3.73942 -1.44093,1.55669 -3.12059,3.44139 -3.73257,4.18823 -1.48172,1.80824 -2.95273,2.52796 -5.15933,2.52436 -1.32955,-0.003 -2.06112,-0.18662 -3.02014,-0.76145 z m 112.88453,-9.48485 c -2.64569,-2.3929 -38.25267,-33.572146 -42.59571,-37.298966 l -4.00943,-3.44051 0.7678,-0.91247 c 0.95822,-1.1388 0.87029,-2.22196 -0.24787,-3.0531 l -0.83206,-0.61851 -3.71354,1.88539 c -2.20375,1.11886 -4.67429,2.11801 -6.07662,2.4576 -2.85969,0.69251 -3.74625,1.33268 -6.6371,4.79261 -6.8273,8.171316 -10.24938,10.723066 -14.41533,10.749156 -3.67243,0.023 -5.82787,-1.806 -5.82787,-4.945206 0,-2.02101 0.39722,-2.95652 3.33447,-7.85323 1.44967,-2.41674 3.30389,-5.60524 4.12049,-7.08557 1.68881,-3.06145 3.24084,-4.95446 5.12474,-6.25062 1.95803,-1.34717 14.54117,-7.98129 19.58593,-10.32615 6.25063,-2.90537 6.99889,-3.11728 10.35264,-2.93237 l 2.78623,0.15364 9.24272,4.10023 c 5.0835,2.2551 10.56578,4.71945 12.18287,5.47636 7.92466,3.70914 10.36129,3.59739 21.7354,-0.99695 2.90454,-1.17324 5.31969,-2.09443 5.36701,-2.04712 0.10973,0.10973 17.84385,45.307886 18.09804,46.125636 0.19587,0.63014 -1.39208,1.45593 -14.63149,7.60879 -1.90398,0.88484 -4.56764,2.34475 -5.91925,3.24422 -4.85281,3.22951 -5.41819,3.31417 -7.79207,1.16714 z m -141.27884,-10.92215 c -1.69635,-0.64144 -19.70378,-8.11386 -20.3466,-8.44308 -0.77656,-0.39771 -1.47229,-1.763 -1.47229,-2.88925 0,-0.30371 2.01465,-4.79849 6.19021,-15.595286 4.17557,-10.79677 8.9038,-23.03972 10.50719,-27.20652 1.63215,-4.24153 3.22206,-7.90277 3.6123,-8.31845 0.47377,-0.50465 1.01512,-0.73781 1.69017,-0.72799 1.46692,0.0212 21.72447,8.69582 22.58476,9.671 1.33929,1.5182 1.0622,2.71012 -3.28226,14.11834 -11.6222,30.519106 -14.72914,37.696456 -14.99477,38.197206 -0.55048,1.03767 -3.10511,1.71723 -4.48871,1.19403 z m 175.22662,-0.56016 c -0.55657,-0.50102 -1.82091,-2.38502 -8.76271,-20.088046 -11.99462,-30.58878 -11.49692,-29.27127 -11.49692,-30.43456 0,-0.55644 0.23154,-1.19646 0.53031,-1.46587 1.01691,-0.9169 21.50912,-10.36854 23.14602,-10.67561 0.87613,-0.16437 1.23316,-0.0628 1.97569,0.56198 1.13292,0.95328 0.56253,-0.39834 9.16195,21.71038 3.98697,10.25033 8.7092,21.89479 10.1577,26.002196 1.87187,5.30793 2.66111,5.88231 -3.72067,8.32548 -2.23029,0.85384 -7.00618,2.72097 -10.61308,4.14917 -7.34697,2.90912 -8.94605,3.20416 -10.37829,1.91488 z"
     id="path3"
     sodipodi:nodetypes="ssssssssscssssssscsssssssssscsssssssssssssssssssssssssssssssssssscsssssssssssssssssssssssssssscssssscssscsscsssssssssscsssssssssssssscssssssssssssssssss" /><path
     style="fill:#000000;stroke-width:0.169188"
     d="m 248.42448,-225.2999 c 0.0275,-0.34895 0.27462,-3.8321 0.54908,-7.74034 0.47171,-6.71692 0.67373,-8.2673 1.17944,-9.05154 0.11481,-0.17804 0.49489,-0.26163 1.27349,-0.28007 1.05616,-0.025 1.1217,-0.003 1.3551,0.44799 0.13489,0.26086 0.32157,0.8148 0.41483,1.23099 0.14756,0.65842 1.1925,14.29619 1.19294,15.56929 l 1.6e-4,0.4724 -0.77923,-0.45666 c -0.59045,-0.34603 -1.07205,-0.47478 -1.98795,-0.53145 -1.10153,-0.0681 -1.29653,-0.0283 -2.19874,0.44953 -0.54451,0.28837 -1.00332,0.52432 -1.0196,0.52432 -0.0163,0 -0.007,-0.28551 0.0205,-0.63446 z m -35.46113,-15.46686 c -2.9167,-1.45575 -5.90945,-2.05659 -10.26068,-2.05997 -4.78667,-0.004 -8.12421,0.68894 -12.22382,2.53689 -0.16762,0.0756 -0.21148,-1.64158 -0.21148,-8.27947 0,-7.81849 0.0197,-8.38259 0.29607,-8.49215 4.66584,-1.84939 10.20632,-3.24656 15.86136,-3.99981 3.87855,-0.51663 11.90605,-0.56371 15.56527,-0.0913 3.31718,0.42826 6.54823,1.03634 9.21879,1.73498 2.40326,0.62872 6.52402,1.96766 7.32999,2.38171 l 0.47594,0.24451 -0.0358,8.2935 c -0.0324,7.51971 -0.061,8.28539 -0.30676,8.20641 -0.14905,-0.0479 -0.91814,-0.3546 -1.7091,-0.68153 -3.12127,-1.29017 -6.36937,-1.85892 -10.57423,-1.85158 -4.36741,0.008 -7.41964,0.62038 -10.29046,2.06586 l -1.55268,0.78178 z m 37.41789,-2.83871 c -0.50214,-0.22797 -0.81079,-0.52123 -1.05743,-1.00467 -0.43929,-0.86109 -0.43911,-1.37762 8.5e-4,-2.23989 0.43389,-0.8505 1.56055,-1.42454 2.46345,-1.25515 0.76032,0.14264 1.70742,0.99029 1.90467,1.7047 0.33929,1.22879 -0.44097,2.61606 -1.66221,2.95532 -0.7883,0.219 -0.82074,0.21584 -1.64927,-0.16031 z m 0.35665,-5.5781 c -0.0388,-0.0388 -0.0705,-2.83569 -0.0705,-6.21538 v -6.14488 l 0.61282,-0.25605 c 0.33705,-0.14083 0.64159,-0.25606 0.67675,-0.25606 0.0352,0 0.0639,2.91215 0.0639,6.47143 v 6.47144 h -0.60625 c -0.33344,0 -0.63798,-0.0317 -0.67675,-0.0705 z m -70.49006,-13.60719 c -4.99896,-1.87565 -9.09119,-3.44977 -9.09384,-3.49805 -0.006,-0.10807 43.09402,-16.29524 43.38771,-16.29524 0.42985,0 43.38971,16.20789 43.27067,16.32516 -0.068,0.067 -4.19375,1.64812 -9.16827,3.51356 l -9.04459,3.39173 -2.93019,-1.01005 c -4.86695,-1.67767 -10.14599,-2.83191 -15.60978,-3.41302 -3.0901,-0.32865 -10.78118,-0.2787 -13.8734,0.0901 -5.30161,0.63231 -10.31726,1.76849 -14.97311,3.39183 -1.48886,0.51911 -2.74508,0.93718 -2.7916,0.92905 -0.0465,-0.008 -4.17465,-1.54941 -9.1736,-3.42506 z"
     id="path5"
     sodipodi:nodetypes="sssscsscssssssscsscsssscssscscssssssssssscssscsssscssscsssscss" /><path
     d="m 256.37006,-88.44028 c -0.30409,-0.20528 0.87297,-11.44396 1.28943,-12.31157 l 0.32761,-0.68251 1.39839,0.008 1.3984,0.008 0.31734,0.6474 c 0.4547,0.92761 1.59985,12.09737 1.2622,12.3114 -0.27658,0.17532 -5.73616,0.19261 -5.99337,0.019 z m 32.16062,-9.79011 c -5.28286,-3.8945 -14.35377,-7.63793 -22.50197,-9.28623 l -2.707,-0.5476 -0.0441,-7.19027 -0.0441,-7.19028 4.52758,1.64309 c 2.49016,0.9037 6.8116,2.46546 9.6032,3.47059 2.7916,1.00513 6.62657,2.38806 8.52217,3.07319 1.8956,0.68513 3.53918,1.24569 3.6524,1.24569 0.1845,0 6.76922,-2.35037 21.12786,-7.54146 2.68339,-0.97013 4.94922,-1.76387 5.03517,-1.76387 0.0938,0 0.13864,2.85406 0.11215,7.13987 l -0.0441,7.13986 -1.61621,0.29013 c -4.77212,0.85665 -10.5828,2.7074 -15.4778,4.92981 -3.3562,1.52377 -5.76949,2.90355 -8.36875,4.7848 l -0.76134,0.55103 z m -30.2732,-4.45229 c -0.66199,-0.43639 -0.92871,-0.95897 -0.93594,-1.8338 -0.0105,-1.26596 0.83701,-2.0666 2.18753,-2.0666 0.99413,0 1.86873,0.82331 1.98318,1.86688 0.19288,1.75867 -1.77503,2.99579 -3.23477,2.03352 z m 0.41156,-13.64009 c 0,-8.22983 0.0168,-8.71958 0.29608,-8.63661 0.16285,0.0484 0.50545,0.1379 0.76135,0.19893 l 0.46526,0.11097 v 8.52564 8.52564 h -0.76134 -0.76135 z m 29.0157,0.18101 c -1.50404,-0.55988 -6.87172,-2.49883 -17.08796,-6.17262 -8.38215,-3.01425 -8.81332,-3.17987 -8.54398,-3.28203 0.13958,-0.0529 1.8526,-0.66278 3.80672,-1.35521 1.95412,-0.69242 5.26597,-1.86763 7.35967,-2.61157 5.05541,-1.79632 10.88015,-3.86216 13.74569,-4.87513 l 2.32553,-0.82208 8.4e-4,-0.97283 c 5.1e-4,-0.53505 -0.0263,-0.97283 -0.0595,-0.97283 -0.0332,0 -3.13564,1.09512 -6.8944,2.43359 -3.75876,1.33848 -10.52663,3.74751 -15.03972,5.35341 l -8.2056,2.91982 -1.09972,-0.37843 c -3.42683,-1.17919 -10.1513,-3.65966 -10.1513,-3.74452 0,-0.0966 2.40379,-0.98187 13.28124,-4.89112 2.88465,-1.03672 7.52885,-2.71137 10.32045,-3.72145 13.77975,-4.9859 17.94804,-6.47771 18.10309,-6.47902 0.0931,-8.5e-4 5.34633,1.86906 11.67395,4.1552 6.32762,2.28614 13.4462,4.85509 15.81906,5.70878 4.69638,1.68961 11.68924,4.20758 13.23894,4.76702 0.53505,0.19316 0.97283,0.40435 0.97283,0.46933 0,0.065 -0.24744,0.19832 -0.54986,0.29632 -0.30243,0.098 -4.24239,1.51364 -8.75547,3.14585 -22.73176,8.22122 -32.24058,11.6201 -32.47712,11.60879 -0.14339,-0.007 -0.94592,-0.26752 -1.7834,-0.57927 z"
     style="fill:#000000;stroke-width:0.169188"
     id="path1" /><g
     id="g9"
     transform="translate(0.0154076,10)"
     style="fill:#f9f6f1;fill-opacity:1"><path
       style="fill:#f9f6f1;fill-opacity:1;stroke-width:0.876973"
       d="m 8.0964962,153.28658 c -3.0590991,-1.35204 -5.1593214,-2.66102 -5.1593214,-3.21561 0,-0.29893 0.6882635,-1.2113 1.5294764,-2.02748 3.1008895,-3.0086 5.5969678,-7.46239 6.7843908,-12.10548 0.877834,-3.43255 0.854766,-4.11863 -0.16546,-4.92114 -2.4433643,-1.92195 -2.4424562,-6.02314 0.0017,-7.80615 0.726952,-0.53031 0.91309,-1.06526 1.324035,-3.80527 0.540453,-3.60346 1.386871,-6.11435 2.826273,-8.38406 0.542025,-0.85468 0.879558,-1.61356 0.750073,-1.68642 -0.129486,-0.0729 -2.407337,-0.84386 -5.06189,-1.71338 -2.6545552,-0.86953 -5.1634831,-1.79188 -5.5753974,-2.04967 -0.9153885,-0.57291 -1.0057612,-2.12338 -0.1664289,-2.85537 0.3203769,-0.2794 11.1050223,-4.00903 23.9658803,-8.288074 l 23.383378,-7.780071 23.383374,7.780071 c 12.860863,4.279044 23.645502,8.008674 23.965874,8.288074 0.839337,0.732 0.748987,2.28247 -0.166426,2.85529 -0.411908,0.25776 -11.195468,3.94311 -23.963469,8.18966 l -23.214563,7.72102 -12.806303,-4.26393 c -7.043467,-2.34516 -12.619807,-4.36828 -12.391868,-4.49585 1.111315,-0.62193 18.216282,-7.35581 21.864762,-8.60773 2.288409,-0.78524 4.441593,-1.68993 4.784854,-2.01045 1.322163,-1.23456 0.346566,-3.643215 -1.475634,-3.643215 -0.503126,0 -2.464586,0.536402 -4.3588,1.192028 -4.734443,1.638667 -20.63873,7.984657 -23.082731,9.210257 -5.479149,2.74769 -7.233441,5.26313 -8.124237,11.64922 -0.307725,2.20606 -0.296448,2.26326 0.628685,3.18839 1.816753,1.81676 1.908491,4.6283 0.215251,6.5968 -0.696648,0.80991 -0.732053,1.03405 -0.433831,2.74665 0.178597,1.02561 0.339184,4.26135 0.356861,7.19052 0.02906,4.81525 -0.04058,5.50585 -0.726499,7.20468 -1.047593,2.59458 -2.48177,4.46642 -4.310883,5.62641 -1.837111,1.16506 -2.383987,1.19136 -4.5811794,0.22028 z M 46.375335,142.19446 c -3.4389,-0.35853 -8.378732,-1.23463 -11.202625,-1.98682 -3.648946,-0.97196 -8.560052,-3.27119 -10.399334,-4.86865 l -1.297532,-1.12694 0.964673,-1.45772 c 0.839765,-1.26897 0.963392,-1.76255 0.954786,-3.81204 -0.0115,-2.73312 -0.811014,-4.60557 -2.546584,-5.96385 l -1.077053,-0.84293 0.365302,-2.53568 c 0.200917,-1.39463 0.429157,-2.59954 0.507202,-2.67759 0.07805,-0.078 6.64584,2.02737 14.595103,4.6787 7.949263,2.65132 14.831481,4.8206 15.293819,4.8206 0.462337,0 7.541699,-2.23493 15.731913,-4.96652 l 14.891305,-4.96653 v 7.49589 c 0,8.56306 -0.0769,8.88988 -2.621747,11.13584 -4.866983,4.29545 -14.582855,6.89987 -26.503461,7.10448 -3.478382,0.0596 -6.923476,0.0461 -7.655767,-0.0302 z"
       id="path6" /><path
       style="fill:#f9f6f1;fill-opacity:1;stroke-width:0.876973"
       d="m 223.87269,152.22706 c 3.05908,-1.35202 5.15932,-2.66101 5.15932,-3.21561 0,-0.29893 -0.68826,-1.2113 -1.52948,-2.02748 -3.10089,-3.00859 -5.59697,-7.46239 -6.78439,-12.10548 -0.87783,-3.43254 -0.85476,-4.11864 0.16547,-4.92113 2.44335,-1.92195 2.44245,-6.02314 -0.001,-7.80615 -0.72696,-0.53032 -0.91309,-1.06527 -1.32404,-3.80526 -0.54045,-3.60348 -1.38687,-6.11437 -2.82627,-8.38407 -0.54202,-0.85468 -0.87956,-1.61357 -0.75008,-1.68642 0.1295,-0.073 2.40734,-0.84387 5.0619,-1.71338 2.65455,-0.86954 5.16349,-1.79187 5.57539,-2.04967 0.9154,-0.57291 1.00577,-2.12339 0.16644,-2.85537 -0.32039,-0.27938 -11.10503,-4.009023 -23.96589,-8.288065 l -23.38337,-7.780082 -23.38338,7.780082 c -12.86085,4.279042 -23.6455,8.008685 -23.96588,8.288065 -0.83933,0.73199 -0.74896,2.28248 0.16644,2.85529 0.41191,0.25776 11.19547,3.9431 23.96347,8.18966 l 23.21454,7.72101 12.80632,-4.26393 c 7.04347,-2.34515 12.6198,-4.36828 12.39187,-4.49585 -1.11131,-0.62192 -18.21628,-7.35581 -21.86476,-8.60772 -2.28842,-0.78522 -4.44159,-1.68993 -4.78485,-2.01045 -1.32217,-1.234551 -0.34657,-3.643208 1.47563,-3.643208 0.50312,0 2.46458,0.536413 4.3588,1.192026 4.73444,1.638672 20.63872,7.984642 23.08272,9.210262 5.47916,2.74768 7.23345,5.26311 8.12425,11.64921 0.30772,2.20605 0.29644,2.26325 -0.62869,3.1884 -1.81675,1.81675 -1.90848,4.62829 -0.21526,6.59678 0.69666,0.80992 0.73206,1.03405 0.43384,2.74665 -0.17861,1.02561 -0.33919,4.26136 -0.35686,7.19052 -0.0291,4.81525 0.0406,5.50585 0.72651,7.20468 1.04758,2.59458 2.48176,4.46642 4.31087,5.62642 1.83711,1.16507 2.38398,1.19135 4.58118,0.22027 z m -38.27883,-11.09212 c 3.43889,-0.35853 8.37872,-1.23463 11.20261,-1.98682 3.64894,-0.97195 8.56006,-3.27119 10.39934,-4.86865 l 1.29753,-1.12693 -0.96468,-1.45772 c -0.83977,-1.26899 -0.96337,-1.76255 -0.95477,-3.81204 0.0117,-2.73313 0.81101,-4.60557 2.54658,-5.96386 l 1.07704,-0.84292 -0.3653,-2.53569 c -0.20092,-1.39462 -0.42915,-2.59954 -0.5072,-2.67759 -0.078,-0.078 -6.64584,2.02738 -14.5951,4.6787 -7.94926,2.65135 -14.83148,4.8206 -15.29381,4.8206 -0.46234,0 -7.5417,-2.23493 -15.73192,-4.96652 l -14.8913,-4.96652 v 7.49589 c 0,8.56304 0.077,8.88987 2.62174,11.13584 4.86699,4.29544 14.58285,6.89986 26.50347,7.10447 3.47838,0.0596 6.92347,0.0461 7.65577,-0.0302 z"
       id="path6-1" /></g><path
     id="path6-6"
     style="fill:#f9f6f1;fill-opacity:1;stroke-width:0.876973"
     d="m 85.245115,51.071393 v 1.783747 c -0.02964,0.1626 -0.05284,0.340015 -0.05953,0.54268 l -0.05725,1.731082 0.11678,0.0916 v 3.347673 c 0,6.698359 0.05286,8.35489 1.291442,9.834651 l -0.07327,0.09846 1.666968,1.435699 c 0.112419,0.09763 0.268629,0.204418 0.403003,0.306832 2.412549,1.895962 5.801915,3.43599 9.93998,4.545234 0.002,6.1e-4 0.005,0.0016 0.007,0.0023 0.0155,0.0041 0.0327,0.0096 0.0481,0.01374 0.048,0.01278 0.11799,0.02608 0.16716,0.03892 1.345732,0.353691 2.773402,0.658587 4.263592,0.920496 2.30126,0.431723 4.77593,0.819885 6.7732,1.028117 0.6931,0.07224 3.85338,0.08344 7.135,0.03435 2.44042,0.01688 4.61476,0.0063 5.1589,-0.05038 1.48399,-0.154719 3.25083,-0.413906 5.00318,-0.709835 7.44498,-1.086064 13.3908,-3.283714 16.86202,-6.3473 0.15185,-0.134021 0.26822,-0.246144 0.40301,-0.368656 l 1.00063,-0.863251 -0.0618,-0.08243 c 1.22743,-1.476343 1.27998,-3.145505 1.27998,-9.823202 v -3.377499 l 0.11669,-0.09159 -0.0572,-1.731081 c -0.007,-0.203487 -0.0297,-0.379576 -0.0596,-0.54268 v -1.75169 l -11.04823,3.684272 c -1.49963,0.493285 -2.63391,0.856266 -4.30253,1.412801 -7.94925,2.65133 -14.83117,4.82001 -15.2935,4.82001 -0.46234,0 -7.54065,-2.234966 -15.73087,-4.966557 z" /><path
     style="fill:#f9f6f1;fill-opacity:1;stroke-width:0.876973"
     d="m 79.454455,33.455678 c -0.129485,0.07292 -2.407336,0.843874 -5.06189,1.713387 -2.654554,0.869526 -5.163482,1.791878 -5.575397,2.049671 -0.915388,0.572903 -1.005761,2.123378 -0.166428,2.855361 0.320376,0.2794 11.105022,4.009034 23.96588,8.288077 L 116,56.14225 139.38338,48.362174 c 12.86086,-4.279043 23.6455,-8.008677 23.96588,-8.288077 0.83933,-0.731995 0.74897,-2.282469 -0.16643,-2.855279 -0.41192,-0.257769 -11.19547,-3.9431 -23.96348,-8.189656 l -23.21457,-7.721012 -12.8063,4.263919 c -7.043462,2.345156 -12.619802,4.368284 -12.391864,4.49585 1.111316,0.62192 18.216284,7.355806 21.864764,8.607725 2.28841,0.785231 4.44159,1.68994 4.78485,2.010455 1.32217,1.234543 0.34656,3.643206 -1.47563,3.643206 -0.50313,0 -2.46458,-0.536407 -4.3588,-1.192021 -4.73444,-1.638672 -20.638733,-7.984656 -23.082732,-9.210266 -1.527756,-0.766133 -3.070934,-1.078477 -4.08153,-1.89745"
     id="path6-8"
     sodipodi:nodetypes="csssscsssscsssssssc" /><path
     id="path1-9"
     style="fill:#f9f6f1;fill-opacity:1;stroke-width:0.876973"
     d="m 81.655643,66.469912 c -1.307025,2.798663 -3.051036,5.336113 -5.046699,7.272374 -0.841212,0.816182 -1.52958,1.727533 -1.52958,2.026465 0,0.554603 2.099802,1.86513 5.1589,3.217156 2.19719,0.971087 2.744761,0.942946 4.581869,-0.222109 1.307205,-0.829009 2.408789,-2.027967 3.315618,-3.588102 -1.22139,-0.625645 -2.312575,-1.306903 -3.251503,-2.044784 -0.134374,-0.102418 -0.290589,-0.209197 -0.403004,-0.306832 l -1.666967,-1.435698 0.07327,-0.09846 c -0.840728,-1.004444 -1.129514,-2.131134 -1.231908,-4.820014 z"
     sodipodi:nodetypes="csssscccccc" /></svg>
