<?xml version="1.0" encoding="UTF-8" standalone="no"?>
<svg
   viewBox="0 0 232 232"
   version="1.1"
   id="svg1"
   sodipodi:docname="5.3_easier_collaboration.svg"
   inkscape:version="1.3 (0e150ed6c4, 2023-07-21)"
   width="232"
   height="232"
   xml:space="preserve"
   xmlns:inkscape="http://www.inkscape.org/namespaces/inkscape"
   xmlns:sodipodi="http://sodipodi.sourceforge.net/DTD/sodipodi-0.dtd"
   xmlns="http://www.w3.org/2000/svg"
   xmlns:svg="http://www.w3.org/2000/svg"><defs
     id="defs1" /><sodipodi:namedview
     id="namedview1"
     pagecolor="#505050"
     bordercolor="#eeeeee"
     borderopacity="1"
     inkscape:showpageshadow="0"
     inkscape:pageopacity="0"
     inkscape:pagecheckerboard="0"
     inkscape:deskcolor="#505050"
     inkscape:zoom="1.1890625"
     inkscape:cx="19.34297"
     inkscape:cy="70.22339"
     inkscape:window-width="1920"
     inkscape:window-height="986"
     inkscape:window-x="-11"
     inkscape:window-y="-11"
     inkscape:window-maximized="1"
     inkscape:current-layer="svg1" /><!--!Font Awesome Free 6.5.2 by @fontawesome - https://fontawesome.com License - https://fontawesome.com/license/free Copyright 2024 Fonticons, Inc.--><path
     style="fill:#f9f6f1;fill-opacity:1;stroke-width:0.30304"
     d="m 115.63035,179.26561 c -0.73438,-0.33519 -9.36896,-5.73383 -9.82189,-6.14096 -0.0685,-0.0616 0.44868,-0.79187 1.14933,-1.6228 1.78869,-2.12129 2.2646,-3.38606 2.28417,-6.0703 0.0138,-1.89463 -0.1245,-2.56287 -0.82807,-4.00091 -1.04032,-2.12634 -3.26319,-4.18356 -5.54021,-5.12732 -1.68811,-0.69969 -1.69308,-0.7056 -1.51703,-1.80658 0.0971,-0.6075 0.0297,-1.90678 -0.1498,-2.88727 -0.9099,-4.96928 -4.643745,-8.08011 -9.819711,-8.18126 l -2.424325,-0.0473 -0.194992,-1.55662 c -0.759172,-6.06034 -6.702209,-10.06963 -12.449697,-8.39878 -0.930309,0.27042 -1.751178,0.4917 -1.824147,0.4917 -0.07301,0 -0.305986,-0.57956 -0.517807,-1.28791 -0.997488,-3.33563 -2.93179,-5.72609 -5.620081,-6.94544 -1.2046,-0.54635 -2.043227,-0.68475 -4.091039,-0.67508 -4.036453,0.0191 -5.063669,0.72965 -11.865051,8.20826 l -1.705803,1.87564 -5.108903,-2.88543 c -2.809891,-1.58702 -6.233931,-3.50029 -7.608979,-4.25171 -1.37504,-0.75145 -2.500076,-1.40572 -2.500076,-1.4539 0,-0.0859 10.399824,-27.46595 15.197184,-40.0102 1.33856,-3.50012 2.545876,-6.48142 2.682926,-6.62515 0.137631,-0.14437 2.940163,0.63223 6.260775,1.7349 6.965104,2.31284 9.539377,2.80785 12.12469,2.33141 0.971275,-0.17897 5.311529,-1.49526 9.644996,-2.92507 12.396754,-4.09022 16.978822,-5.27759 20.2852,-5.25656 1.51023,0.01 3.2908,0.11412 3.95684,0.23225 l 1.21098,0.21476 -1.05946,0.62924 c -0.58271,0.34607 -3.57452,1.98024 -6.64849,3.63151 -6.427071,3.4525 -7.811305,4.64212 -10.19626,8.7627 -0.818402,1.41399 -2.359945,4.03738 -3.425642,5.82974 -5.879454,9.88841 -5.584806,9.26745 -5.732496,12.08131 -0.125537,2.39192 -0.07301,2.67883 0.824516,4.50195 1.77451,3.60455 4.559649,5.31254 8.66284,5.31254 5.59685,0 9.832041,-2.59251 15.642522,-9.57537 1.97056,-2.36817 3.93181,-4.58027 4.35834,-4.91576 0.97775,-0.76912 7.62114,-2.88264 8.11684,-2.5823 0.5384,0.32623 13.24592,11.40946 33.09742,28.86694 17.83293,15.68229 17.25618,15.06403 17.26707,18.5105 0.008,2.54445 -0.75161,4.05741 -2.70074,5.37897 -1.2541,0.85029 -1.71054,0.98488 -3.34042,0.98488 -1.38169,0 -2.22635,-0.18283 -3.15033,-0.68185 -0.69436,-0.37501 -6.61372,-5.33696 -13.15414,-11.02657 -17.1862,-14.95048 -17.5605,-15.26215 -18.32826,-15.26215 -0.89188,0 -1.89702,1.02039 -1.89702,1.92582 0,0.85072 0.77448,1.59477 9.82483,9.43861 14.36994,12.45428 17.58555,15.32888 18.15713,16.23164 2.50269,3.95273 -0.41351,9.64828 -4.95091,9.66952 -2.65003,0.0125 -3.11127,-0.27652 -9.89138,-6.19574 -4.12415,-3.60048 -8.70266,-7.56388 -16.6379,-14.40265 -3.836,-3.30595 -4.10604,-3.51453 -4.85216,-3.74803 -0.95111,-0.29762 -2.01066,0.83639 -1.89435,2.02746 0.0779,0.79836 0.70178,1.47263 3.88089,4.19471 2.08341,1.78391 7.26272,6.2185 11.50959,9.85465 5.07127,4.34202 7.95594,7.02726 8.40437,7.82338 0.79395,1.4095 0.92348,3.86246 0.28453,5.38869 -0.55478,1.32522 -2.62934,3.13737 -4.04015,3.52914 -3.13306,0.86999 -3.39532,0.71108 -14.49282,-8.78116 -5.46144,-4.67145 -10.21446,-8.69286 -10.56226,-8.93647 -0.90968,-0.63717 -1.80973,-0.54651 -2.56596,0.25846 -1.15962,1.23434 -0.87712,1.78748 2.29574,4.49514 9.95721,8.49725 12.43924,10.83572 12.96655,12.21643 1.37302,3.59524 -0.93702,7.3406 -4.86023,7.88013 -0.72969,0.10034 -1.57401,0.003 -2.12128,-0.24831 z m -22.728015,-1.91285 c -1.067675,-0.28649 -2.627158,-1.6649 -3.062553,-2.70694 -0.563473,-1.34858 -0.534169,-3.27913 0.06911,-4.55039 0.270311,-0.56965 2.342917,-3.04488 4.605781,-5.50051 3.915051,-4.24856 4.175354,-4.46921 5.374787,-4.55542 1.03902,-0.0747 1.48935,0.085 2.56326,0.90913 0.71653,0.54986 1.57651,1.36906 1.91105,1.8205 0.83707,1.12956 1.0349,3.77534 0.38302,5.12245 -0.54329,1.12272 -6.510472,7.88773 -7.794519,8.83667 -0.806683,0.59615 -2.933435,0.92409 -4.0499,0.62451 z m -11.73855,-8.56916 c -1.620508,-0.51832 -2.92047,-1.56435 -3.543472,-2.8513 -0.791848,-1.63575 -0.837091,-4.22108 -0.09726,-5.55733 0.952686,-1.72075 10.237915,-11.77584 11.370543,-12.31331 1.214666,-0.57638 3.405799,-0.66336 4.670859,-0.1854 2.833729,1.07067 4.474272,4.89049 3.303635,7.69222 -0.549212,1.31443 -10.490468,12.3611 -11.564621,12.85051 -1.111647,0.5065 -3.13803,0.68499 -4.13968,0.36461 z M 68.35609,160.00944 c -2.327078,-0.58526 -4.182456,-2.55187 -4.68321,-4.96401 -0.567469,-2.73345 -0.08927,-3.93119 2.974459,-7.45006 4.987202,-5.72812 7.774036,-8.72983 8.738882,-9.41261 2.959317,-2.09418 6.961656,-1.03172 8.828629,2.34366 0.841834,1.52198 0.960486,3.92497 0.272197,5.51233 -0.617429,1.42395 -10.548361,12.40321 -11.972306,13.23612 -1.328643,0.77718 -2.891515,1.05324 -4.158651,0.73457 z m -13.690236,-12.3107 c -2.26048,-1.35492 -3.383681,-4.07674 -2.801868,-6.78961 0.299366,-1.39593 0.76776,-2.03662 4.58686,-6.27439 2.670474,-2.96319 4.630467,-4.87721 5.266493,-5.14295 1.293583,-0.54051 3.794332,-0.54363 5.080189,-0.007 2.812549,1.17516 4.50267,6.03638 2.963146,8.52276 -0.309599,0.50002 -1.741851,2.18276 -3.182774,3.73942 -1.440931,1.55669 -3.120595,3.44139 -3.732576,4.18823 -1.481714,1.80824 -2.95273,2.52796 -5.159328,2.52436 -1.329548,-0.003 -2.061119,-0.18662 -3.020142,-0.76145 z m 112.884536,-9.48485 c -2.64569,-2.3929 -38.25267,-33.57215 -42.59571,-37.29897 l -4.00943,-3.44051 0.7678,-0.91247 c 0.95822,-1.1388 0.87029,-2.22196 -0.24787,-3.0531 l -0.83206,-0.61851 -3.71354,1.88539 c -2.20375,1.11886 -4.67429,2.11801 -6.07662,2.4576 -2.85969,0.69251 -3.74625,1.33268 -6.6371,4.79261 -6.827301,8.17132 -10.249381,10.72307 -14.415332,10.74916 -3.672432,0.023 -5.827874,-1.806 -5.827874,-4.94521 0,-2.02101 0.39722,-2.95652 3.334476,-7.85323 1.449669,-2.41674 3.303892,-5.60524 4.120484,-7.08557 1.688809,-3.06145 3.240842,-4.95446 5.124743,-6.25062 1.958032,-1.34717 14.541173,-7.98129 19.585933,-10.32615 6.25063,-2.90537 6.99889,-3.11728 10.35264,-2.93237 l 2.78623,0.15364 9.24272,4.10023 c 5.0835,2.2551 10.56578,4.71945 12.18287,5.47636 7.92466,3.70914 10.36129,3.59739 21.7354,-0.99695 2.90454,-1.17324 5.31969,-2.09443 5.36701,-2.04712 0.10973,0.10973 17.84385,45.30789 18.09804,46.12564 0.19587,0.63014 -1.39208,1.45593 -14.63149,7.60879 -1.90398,0.88484 -4.56764,2.34475 -5.91925,3.24422 -4.85281,3.22951 -5.41819,3.31417 -7.79207,1.16714 z M 26.271546,127.29174 c -1.696351,-0.64144 -19.703775,-8.11386 -20.3465959,-8.44308 -0.7765647,-0.39771 -1.4722951,-1.763 -1.4722951,-2.88925 0,-0.30371 2.0146545,-4.79849 6.190216,-15.59529 4.175562,-10.79677 8.903799,-23.03972 10.507188,-27.20652 1.632153,-4.24153 3.222054,-7.90277 3.612296,-8.31845 0.473777,-0.50465 1.015123,-0.73781 1.690171,-0.72799 1.466921,0.0212 21.724476,8.69582 22.584757,9.671 1.339299,1.5182 1.062201,2.71012 -3.282255,14.11834 -11.622199,30.51911 -14.729139,37.69646 -14.994775,38.19721 -0.550474,1.03767 -3.105104,1.71723 -4.488707,1.19403 z m 175.226624,-0.56016 c -0.55657,-0.50102 -1.82091,-2.38502 -8.76271,-20.08805 -11.99462,-30.58878 -11.49692,-29.27127 -11.49692,-30.43456 0,-0.55644 0.23154,-1.19646 0.53031,-1.46587 1.01691,-0.9169 21.50912,-10.36854 23.14602,-10.67561 0.87613,-0.16437 1.23316,-0.0628 1.97569,0.56198 1.13292,0.95328 0.56253,-0.39834 9.16195,21.71038 3.98697,10.25033 8.7092,21.89479 10.1577,26.0022 1.87187,5.30793 2.66111,5.88231 -3.72067,8.32548 -2.23029,0.85384 -7.00618,2.72097 -10.61308,4.14917 -7.34697,2.90912 -8.94605,3.20416 -10.37829,1.91488 z"
     id="path3"
     sodipodi:nodetypes="ssssssssscssssssscsssssssssscsssssssssssssssssssssssssssssssssssscsssssssssssssssssssssssssssscssssscssscsscsssssssssscsssssssssssssscssssssssssssssssss" /><path
     d="m 432.19039,-392.40742 c -1.23282,-0.54265 -23.68749,-23.07133 -24.61186,-24.71056 -0.66719,-1.18312 -0.64815,-2.92682 0.0465,-4.26723 0.84482,-1.63003 5.67547,-6.11802 6.92184,-6.43084 2.3125,-0.5804 3.80241,0.55987 10.01959,6.89119 l 9.11296,9.28026 0.8883,-1.0727 c 0.48857,-0.58999 6.77463,-8.12155 13.96902,-16.73678 7.19438,-8.61525 13.95703,-16.81357 15.02809,-18.21848 3.63206,-4.76423 5.77291,-4.8066 10.53557,-0.20864 3.0398,2.93465 3.88458,4.63 3.20189,6.42562 -0.23564,0.61975 -2.68432,3.81496 -5.44156,7.10052 -2.75723,3.28551 -11.66613,13.91381 -19.79756,23.61841 -8.13142,9.70456 -15.10267,17.8114 -15.49168,18.01515 -1.37151,0.71845 -3.16968,0.84732 -4.38117,0.31408 z"
     style="fill:#f9f6f1;fill-opacity:1;stroke-width:0.408214"
     id="path1-8"
     sodipodi:nodetypes="cccsscsscssssccc" /></svg>
