<?xml version="1.0" encoding="UTF-8" standalone="no"?>
<svg
   width="232"
   height="232"
   xml:space="preserve"
   overflow="hidden"
   version="1.1"
   id="svg12"
   sodipodi:docname="5.1_immediate_adoption_v2.svg"
   inkscape:version="1.3 (0e150ed6c4, 2023-07-21)"
   xmlns:inkscape="http://www.inkscape.org/namespaces/inkscape"
   xmlns:sodipodi="http://sodipodi.sourceforge.net/DTD/sodipodi-0.dtd"
   xmlns="http://www.w3.org/2000/svg"
   xmlns:svg="http://www.w3.org/2000/svg"><sodipodi:namedview
     id="namedview12"
     pagecolor="#505050"
     bordercolor="#eeeeee"
     borderopacity="1"
     inkscape:showpageshadow="0"
     inkscape:pageopacity="0"
     inkscape:pagecheckerboard="0"
     inkscape:deskcolor="#505050"
     inkscape:zoom="0.7071068"
     inkscape:cx="203.64675"
     inkscape:cy="150.61374"
     inkscape:window-width="1920"
     inkscape:window-height="986"
     inkscape:window-x="-11"
     inkscape:window-y="-11"
     inkscape:window-maximized="1"
     inkscape:current-layer="layer2"
     showguides="false" /><defs
     id="defs1"><clipPath
       id="clip0"><rect
         x="170"
         y="537"
         width="232"
         height="232"
         id="rect1" /></clipPath></defs><g
     inkscape:groupmode="layer"
     id="layer4"
     inkscape:label="frame" /><g
     inkscape:groupmode="layer"
     id="layer3"
     inkscape:label="person" /><g
     inkscape:groupmode="layer"
     id="layer1"
     inkscape:label="progress bars" /><g
     inkscape:groupmode="layer"
     id="layer2"
     inkscape:label="rule box"><g
       id="g1"
       transform="matrix(0.97706958,0,0,0.97706958,-686.63876,361.59418)"><path
         id="path1"
         style="fill:#f9f6f1;fill-opacity:1;stroke-width:0.513779"
         d="m 168.18945,125.6543 c -0.93575,-0.0289 -1.52023,-0.029 -1.52929,0.006 -0.0182,0.0698 -0.1744,1.10789 -0.34571,2.30664 -0.76746,5.37036 -5.2824,8.34868 -10.65429,7.02734 -1.76642,-0.43449 -4.85797,-3.18498 -5.29493,-4.71094 -0.18437,-0.64387 -0.82828,-0.51752 -3.59179,0.70703 -1.85168,0.82051 -3.91194,1.86799 -4.57813,2.32618 l -1.21093,0.83203 0.95703,2.67383 c 0.673,1.87857 0.83244,3.18661 0.5332,4.39648 -1.3832,5.59255 -7.91677,8.48372 -12.31836,5.45117 l -1.58984,-1.0957 -1.0586,1.33594 c -1.77816,2.24435 -4.21982,6.76813 -3.7539,6.95507 3.49555,1.40256 5.87105,5.70625 5.07812,9.20118 -0.9418,4.15092 -4.56029,6.92767 -8.72461,6.69531 l -2.1875,-0.12305 -0.21484,3.97656 c -0.31728,5.87431 -0.15802,6.29605 2.44726,6.44141 5.6451,0.31499 9.42116,7.31507 6.56055,12.16406 -0.82191,1.39324 -3.4827,3.67279 -4.66211,3.99414 -0.69067,0.1882 0.60627,3.46229 2.81641,7.10938 l 1.35742,2.23828 1.92969,-0.99609 c 4.22926,-2.18733 9.41251,-0.33233 11.22656,4.01757 1.17745,2.82341 1.08122,4.76733 -0.35742,7.23829 -0.701,1.20407 -0.9626,2.15562 -0.69336,2.51953 0.23803,0.32171 1.92639,1.47717 3.7539,2.5664 3.22444,1.92183 3.34185,1.95039 3.97071,1.00196 1.25587,-1.89404 3.74486,-3.65673 5.75781,-4.08008 5.18043,-1.08953 10.0688,3.1538 9.77148,8.48242 l -0.10351,1.84766 5.06445,0.28125 5.0625,0.28125 0.47266,-2.48438 c 1.17792,-6.20426 7.20341,-9.13122 12.47461,-6.06055 1.06804,0.62219 2.31296,1.84871 2.76758,2.72657 0.45461,0.87787 1.03477,1.60702 1.28711,1.62109 0.61362,0.0343 6.10668,-2.54623 7.6289,-3.58398 l 1.21094,-0.82618 -0.95899,-2.67382 c -1.54536,-4.31371 0.14912,-8.44204 4.19727,-10.23047 2.62888,-1.16141 4.98459,-1.05665 7.36328,0.32812 2.12143,1.23506 1.98593,1.3245 4.82031,-3.20117 l 1.98243,-3.16406 -2.08399,-2.2461 c -5.247,-5.65022 -2.45417,-13.18105 5.26172,-14.1875 1.64041,-0.21399 1.93404,-0.47075 2.31836,-2.0332 0.24191,-0.98348 0.36384,-3.27018 0.27148,-5.08203 -0.16392,-3.21442 -0.20465,-3.29748 -1.66406,-3.37891 -3.57842,-0.19919 -7.10068,-3.40151 -7.55273,-6.86718 -0.41589,-3.18829 0.48832,-5.42744 3.09765,-7.66602 2.71397,-2.32832 2.74612,-1.83415 -0.49804,-7.68945 l -1.81055,-3.26758 -2.53516,0.9082 c -2.95742,1.0595 -5.21942,0.7053 -7.78125,-1.2207 -3.10338,-2.33309 -4.07775,-7.05351 -2.13672,-10.34375 0.49549,-0.83989 0.71726,-1.72194 0.49415,-1.95899 -0.22312,-0.23706 -1.94256,-1.38457 -3.82227,-2.55078 -3.25412,-2.01893 -3.44707,-2.07516 -4.01758,-1.17187 -1.16996,1.85241 -3.49996,3.53307 -5.59375,4.03515 -5.31786,1.27524 -10.26816,-2.83336 -9.96484,-8.26953 l 0.11523,-2.07812 -5.1289,-0.28516 c -1.4107,-0.0787 -2.69707,-0.13712 -3.63282,-0.16601 z m 0.92969,21.77343 a 29.75,29.75 0 0 1 29.75,29.75 29.75,29.75 0 0 1 -29.75,29.75 29.75,29.75 0 0 1 -29.75,-29.75 29.75,29.75 0 0 1 29.75,-29.75 z" /><path
         d="m 163.82374,12.870525 c -0.17515,0.374683 -1.0518,3.014281 -1.94813,5.865793 l -1.62971,5.184542 -2.35259,1.084979 -2.35258,1.084998 -5.62468,-2.532852 -5.62468,-2.532853 -2.0865,2.403632 c -1.14759,1.321998 -2.08538,2.441146 -2.08399,2.48699 0.001,0.0458 1.22661,2.471354 2.72267,5.390003 l 2.72018,5.306636 -0.83719,2.277118 c -0.46043,1.252391 -0.88687,2.331762 -0.94759,2.398581 -0.0606,0.06691 -2.58965,1.081205 -5.61976,2.254189 l -5.50933,2.132696 -0.0104,3.21834 -0.0104,3.218351 4.08771,1.298972 c 7.97337,2.533755 7.37443,2.198728 8.55547,4.785468 l 1.05455,2.309653 -2.44004,5.535285 -2.44001,5.535283 2.32312,2.186676 2.32308,2.186654 5.18811,-2.663809 c 2.85344,-1.46508 5.44002,-2.671411 5.74794,-2.680728 0.30792,-0.0093 1.47564,0.355359 2.59492,0.810404 l 2.03503,0.827347 2.18326,5.612712 2.18325,5.6127 3.20867,-0.100131 3.20868,-0.100131 1.85698,-5.729551 1.85699,-5.72955 1.98602,-0.951149 c 1.09231,-0.523115 2.19199,-0.961334 2.44374,-0.973794 0.25179,-0.01276 2.90639,1.035466 5.89917,2.328721 l 5.44136,2.351418 2.17059,-2.306059 2.1706,-2.306039 -2.79518,-5.401208 -2.79519,-5.401209 0.74866,-2.028189 c 0.97555,-2.642736 1.14857,-2.857809 2.76286,-3.434514 0.74945,-0.267722 3.24682,-1.216142 5.54964,-2.107605 l 4.18704,-1.620805 -0.20488,-3.203917 -0.20474,-3.20393 -5.60458,-1.782924 c -3.08254,-0.980591 -5.66854,-1.844584 -5.74666,-1.919957 -0.0782,-0.07539 -0.61247,-1.121236 -1.18739,-2.324097 l -1.04533,-2.18704 2.4329,-5.548531 2.43289,-5.548519 -2.32478,-2.229891 -2.32476,-2.2299 -5.35291,2.770223 -5.35292,2.770202 -2.33834,-0.849489 -2.33835,-0.849489 -2.26338,-5.699333 -2.2634,-5.699311 -3.04872,-0.01638 c -2.61917,-0.0142 -3.09362,0.07958 -3.36713,0.664825 z m 6.70468,18.70561 c 3.37816,0.517336 6.14057,1.892759 8.76481,4.364051 2.75796,2.597282 4.32516,5.373982 5.01768,8.890211 1.37756,6.9945 -2.25929,14.320049 -8.8283,17.782435 -2.3873,1.258279 -2.69177,1.322993 -6.81096,1.447624 -4.07927,0.123427 -4.45154,0.06941 -6.89878,-1.000338 -7.31335,-3.196889 -11.38672,-11.090107 -9.64909,-18.697575 0.71056,-3.110977 1.72674,-5.046352 3.94986,-7.522903 2.32924,-2.594735 4.80664,-4.120994 7.96721,-4.908383 2.94504,-0.733696 3.73358,-0.77686 6.48757,-0.355122 z"
         style="fill:#f9f6f1;fill-opacity:1;stroke-width:0.375125"
         id="path1-1" /><g
         id="g33"
         transform="matrix(0.97436817,-7.2254968e-4,-7.2254968e-4,-0.97436817,-11.337578,210.56411)"
         style="fill:#f9f6f1;fill-opacity:1"><path
           id="path1-2"
           style="fill:#f9f6f1;fill-opacity:1;stroke-width:0.567953"
           d="m 98.39258,38.621094 -0.62696,2.462886 c -1.11058,4.36455 -4.5329,6.97175 -9.14257,6.96875 -4.42801,-0.0034 -8.6815,-3.58382 -8.6875,-7.312496 -0.002,-1.288318 -0.12969,-1.333121 -2.77344,-0.982422 -1.52488,0.20228 -4.06292,0.750801 -5.63867,1.21875 l -2.86524,0.849608 0.31641,3.05078 c 0.25927,2.51212 0.08227,3.46151 -1.00195,5.39063 -3.23886,5.76275 -10.29337,6.57032 -14.79688,1.69336 l -2.05273,-2.22266 -3.62696,2.64453 c -1.9948,1.45508 -3.70217,2.7059 -3.79297,2.7793 -0.09078,0.0734 0.37949,1.05323 1.04297,2.17773 1.29641,2.19726 1.58432,5.91653 0.64453,8.32227 -0.30506,0.78094 -1.28336,2.10615 -2.17382,2.94531 -3.13068,2.95028 -6.72577,3.48406 -10.5,1.5586 -1.26732,-0.64654 -2.3627,-1.09404 -2.4336,-0.99414 -1.38374,1.94976 -2.80282,4.15914 -4.20703,6.54492 l -1.74023,2.95312 1.89648,1.17188 c 3.88951,2.40384 5.05533,8.45394 2.40235,12.46289 -1.7682,2.67192 -4.53666,4.02734 -8.22852,4.02734 H 17.5625 l -0.60352,3.83399 c -1.14083,7.25203 -1.15604,7.14061 0.99805,7.58398 2.22758,0.4585 4.34078,1.91503 5.99805,4.13477 0.86533,1.15902 1.17187,2.42077 1.17187,4.83593 0,4.08795 -1.83092,6.79513 -5.6582,8.36914 -2.77898,1.14289 -2.99975,1.71917 -2.04297,5.31836 0.29064,1.09331 0.7938,3.01027 1.11719,4.25977 l 0.58789,2.27148 h 3.84961 c 4.40791,0 6.13084,0.92721 8.07031,4.33789 2.15897,3.79669 1.18905,8.71827 -2.24805,11.40821 l -1.85546,1.45312 1.32421,1.90821 c 0.72752,1.04957 2.04209,2.83867 2.92188,3.97656 l 1.59961,2.06836 2.10742,-1.07422 c 7.12035,-3.63017 14.98234,2.887 12.7207,10.54492 -0.37274,1.26209 -0.73012,2.63353 -0.79492,3.04883 -0.06478,0.4153 1.97413,2.04235 4.5293,3.61523 L 56,181.08594 l 1.79688,-2.04492 c 3.05001,-3.47378 7.60171,-4.04171 11.81054,-1.47461 2.29588,1.40031 4.28381,5.53457 3.9668,8.25 l -0.2207,1.89453 4,0.6582 c 2.20001,0.36236 4.25599,0.73949 4.56836,0.83789 1.96471,0.6186 2.99632,0.19611 3.30664,-1.35547 0.40032,-2.00162 2.81741,-4.95195 4.96875,-6.06445 1.90988,-0.98765 5.78437,-1.08682 7.52343,-0.19336 2.15074,1.10497 4.31504,3.45736 4.94922,5.37891 0.57629,1.7462 0.73323,1.83377 2.71094,1.51953 1.15456,-0.18345 3.63161,-0.74437 5.50586,-1.2461 l 3.4082,-0.91211 0.004,-2.83007 c 0.006,-5.39301 3.78839,-9.36329 8.92187,-9.36329 3.08508,10e-6 4.51673,0.56845 6.80664,2.70313 l 1.53125,1.42969 2.72852,-1.78906 c 1.49995,-0.98329 3.30835,-2.27867 4.01953,-2.87891 l 1.29297,-1.0918 -1.14844,-1.88281 c -2.35281,-3.8591 -1.09639,-9.01806 2.92188,-11.99414 2.19432,-1.62521 6.51028,-1.87378 8.96875,-0.51758 l 1.96875,1.08594 1.46093,-2.04492 c 0.80374,-1.12482 2.16824,-3.26462 3.03125,-4.75391 l 1.56836,-2.70703 -1.99414,-1.88281 c -3.37013,-3.17845 -4.10062,-7.12231 -2.05859,-11.125 1.5172,-2.97397 4.45241,-4.71094 7.96484,-4.71094 1.74788,0 2.87655,-0.2721 3.05469,-0.73633 0.81116,-2.11384 1.67833,-10.14629 1.11523,-10.33398 -2.57464,-0.85822 -5.79018,-3.03369 -6.85937,-4.64258 -1.67666,-2.523 -1.74477,-6.95798 -0.14844,-9.57617 1.21449,-1.99191 4.21116,-4.10833 5.82422,-4.11133 1.25111,-0.003 1.24468,-0.21171 -0.18945,-6.32031 l -1.1836,-5.03907 -3.21875,-0.0039 c -3.76866,-0.0025 -6.34449,-1.31228 -8.03125,-4.08594 -2.3647,-3.88845 -1.89999,-8.13713 1.23438,-11.27148 1.78169,-1.7817 1.78462,-1.79734 0.82031,-3.58008 -0.53262,-0.98467 -1.80924,-2.79017 -2.83789,-4.01172 l -1.87109,-2.2207 -1.7168,1.26953 c -3.9419,2.91436 -10.12908,1.62332 -12.78125,-2.66797 -1.74622,-2.8255 -1.75419,-7.17559 -0.0156,-9.61719 l 1.26562,-1.77734 -1.56836,-1.11329 c -0.86309,-0.61284 -3.07622,-2.021 -4.91797,-3.1289 l -3.34961,-2.01367 -1.19531,1.7539 c -4.13182,6.06672 -12.27737,5.7009 -15.57227,-0.69922 -0.96757,-1.87941 -1.24789,-3.19333 -1.0625,-4.97656 0.13854,-1.33253 0.0362,-2.554415 -0.22656,-2.716795 -0.26274,-0.16238 -2.72366,-0.621109 -5.46875,-1.017578 z M 91.41406,61.19531 a 52.855995,52.855995 0 0 1 52.85547,52.85547 52.855995,52.855995 0 0 1 -52.85547,52.85547 52.855995,52.855995 0 0 1 -52.85742,-52.85547 52.855995,52.855995 0 0 1 52.85742,-52.85547 z" /><path
           style="fill:#f9f6f1;fill-opacity:1"
           d="m 84.832065,172.89958 -0.0334,-0.63656 -2.28213,-0.31962 -23.17787,-9.99043 c -1.41126,-0.77946 -5.16685,-3.29283 -6.84638,-4.58182 l -1.49765,-1.1494 -0.64185,0.61153 -6.59312,-10.45931 -11.99078,-23.17791 -0.31997,-2.28213 v -13.55016 l 0.31997,-2.28213 16.5726,-28.024546 1.14941,-1.49765 -0.61154,-0.64184 18.37946,-13.48514 41.303655,-5.47607 c 0.50144,0.15248 1.01247,0.27773 1.13562,0.27833 0.14067,6.8e-4 0.43159,-0.43636 0.78257,-1.17564 5.58185,6.12783 27.98307,29.49091 32.79229,27.93398 l 8.10564,22.088316 v 18.11442 l -27.56979,40.75729 c -1.57619,0.87055 -1.49838,0.73568 -1.08762,1.88515 l -14.15872,4.48293 c -1.55018,0.47138 -5.53793,1.28709 -7.93152,1.62245 l -2.282135,0.31974 -0.0365,0.77909 z m 0.0379,-22.80569 v -14.82237 l -0.74883,-0.24854 c -4.43507,-1.47202 -8.8853,-5.10424 -11.51957,-9.40212 -0.69653,-1.13641 -1.54578,-2.92619 -1.91193,-4.02938 l -0.24854,-0.74883 h -14.82237 c -11.76305,0 -14.82228,0.0368 -14.82191,0.1783 0.003,1.18682 1.61783,8.07142 2.27515,9.69995 0.071,0.17601 0.42165,1.09023 0.77914,2.03161 0.80053,2.10804 2.43864,5.46954 3.68389,7.55955 5.79798,9.73131 15.04604,17.57549 25.3787,21.52614 0.9669,0.36969 1.90201,0.73055 2.07802,0.8019 1.60394,0.65019 8.11761,2.19089 9.55732,2.26062 l 0.32093,0.0155 z m 15.04778,14.60416 c 2.466315,-0.41748 6.961065,-1.54033 8.237965,-2.05795 0.17601,-0.0714 1.11112,-0.43221 2.07802,-0.8019 10.33266,-3.95065 19.58072,-11.79483 25.3787,-21.52614 1.24524,-2.09001 2.88336,-5.45151 3.68389,-7.55955 0.35749,-0.94138 0.7081,-1.8556 0.77914,-2.03161 0.65732,-1.62853 2.27212,-8.51313 2.27515,-9.69995 3.6e-4,-0.1415 -3.05886,-0.1783 -14.82191,-0.1783 h -14.82238 l -0.24853,0.74883 c -1.95784,5.89879 -7.53271,11.47367 -13.431495,13.4315 l -0.74883,0.24854 v 14.82237 c 0,11.76305 0.0368,14.82228 0.17829,14.82192 0.0981,-2.5e-4 0.75596,-0.0982 1.46199,-0.21776 z m -5.27742,-41.33506 c 2.84422,-0.92563 5.11739,-3.20004 6.155505,-6.15885 0.36116,-1.02938 0.40014,-1.32607 0.40274,-3.06524 0.003,-1.73784 -0.0358,-2.03803 -0.3935,-3.07951 -0.49033,-1.4275 -1.552615,-3.07106 -2.608825,-4.03638 -0.7907,-0.72265 -1.201936,-1.24351 -3.02105,-1.93717 -1.819114,-0.69366 -4.604098,-1.19167 -7.01578,-0.0656 -2.556954,1.19393 -4.95571,3.4079 -5.85898,6.12334 -0.47543,1.42929 -0.54732,3.73622 -0.16369,5.25327 0.90738,3.58819 3.47894,6.21266 7.01215,7.15642 1.53217,0.40926 3.90135,0.32715 5.49137,-0.19031 z m -23.95069,-16.67666 c 1.95783,-5.8988 7.53271,-11.473676 13.4315,-13.431516 l 0.74883,-0.24853 v -14.82238 c 0,-11.76305 -0.0368,-14.82227 -0.17829,-14.82191 -1.18801,0.003 -8.08556,1.62127 -9.69996,2.27571 -0.17601,0.0713 -1.11112,0.4322 -2.07802,0.80189 -10.33266,3.95066 -19.58072,11.79484 -25.3787,21.52614 -1.24525,2.09001 -2.88336,5.45152 -3.68389,7.55955 -0.35749,0.94138 -0.7081,1.8556 -0.77914,2.03161 -0.65732,1.628532 -2.27212,8.513136 -2.27515,9.699966 -3.7e-4,0.14149 3.05886,0.17829 14.82191,0.17829 h 14.82237 z m 71.660975,0.57053 c -0.003,-1.18683 -1.61783,-8.071434 -2.27515,-9.699966 -0.071,-0.17601 -0.42165,-1.09023 -0.77914,-2.03161 -0.80053,-2.10803 -2.43865,-5.46954 -3.68389,-7.55955 -5.79798,-9.7313 -15.04604,-17.57548 -25.3787,-21.52614 -0.9669,-0.36969 -1.90201,-0.73054 -2.07802,-0.80189 -1.6144,-0.65444 -8.511945,-2.27268 -9.699955,-2.27571 -0.14149,-3.6e-4 -0.17829,3.05886 -0.17829,14.82191 v 14.82238 l 0.74883,0.24853 c 4.435065,1.47202 8.885295,5.10424 11.519555,9.402126 0.69654,1.13642 1.54578,2.9262 1.91194,4.02939 l 0.24853,0.74882 h 14.82238 c 11.76305,0 14.82227,-0.0368 14.82191,-0.17829 z"
           id="path33"
           sodipodi:nodetypes="ccccsccccccccccccscccccccscccccssscscsssssscccssssssscsscsscsscsszsssssssscssssssssscssssssssscssscss" /></g></g><path
       style="fill:#f6f5f2;fill-opacity:0.996078;stroke-width:0.287691"
       d="m 32.066282,152.80243 c -4.598004,-4.63925 -5.54922,-5.74185 -5.71479,-6.62448 -0.378143,-2.01564 0.82878,-3.63848 2.705968,-3.63848 0.861091,0 1.354861,0.36436 3.936477,2.90481 l 2.951876,2.90481 0.190942,-2.25751 c 0.886373,-10.48023 4.623053,-19.14581 11.358704,-26.34154 4.498546,-4.80582 11.472091,-9.71956 13.793923,-9.71956 2.738913,0 3.653429,4.1181 1.244645,5.60484 -4.790992,2.95706 -6.548877,4.293 -9.44712,7.1795 -4.387865,4.37012 -7.141704,8.65619 -9.161251,14.25854 -1.210509,3.35805 -2.597073,10.93222 -2.001307,10.93222 0.124792,0 1.478721,-1.22987 3.008705,-2.73306 2.44626,-2.4034 2.903421,-2.73305 3.790209,-2.73305 2.092351,0 3.561181,2.24928 2.680608,4.10492 -0.251138,0.52924 -2.888871,3.38231 -5.86164,6.34015 -5.382331,5.3553 -5.410396,5.3779 -6.682407,5.38069 l -1.277384,0.003 z m 151.772308,-0.11431 -5.7195,-5.75686 v -1.35496 c 0,-1.8662 1.12118,-3.03685 2.9085,-3.03685 1.1747,0 1.34783,0.12349 4.0909,2.91682 l 2.86429,2.91683 -0.2068,-2.12569 c -0.6283,-6.45838 -3.11813,-13.28957 -6.68351,-18.33707 -2.9405,-4.16287 -8.28466,-8.9981 -12.63259,-11.42961 -2.89225,-1.61744 -3.60342,-3.00879 -2.56465,-5.01758 0.99672,-1.92742 2.62601,-1.92159 5.89468,0.0211 9.70015,5.76516 16.46511,14.09302 19.86917,24.45955 1.07603,3.2769 1.99528,8.39968 1.99528,11.11937 v 1.33934 l 2.97904,-2.93152 c 2.7013,-2.65822 3.07887,-2.93154 4.04979,-2.93154 1.62433,0 2.75264,1.24704 2.75264,3.04228 v 1.3604 l -5.55528,5.59546 c -5.44047,5.47984 -5.58386,5.5987 -6.93885,5.75143 l -1.38359,0.15595 z"
       id="path2"
       sodipodi:nodetypes="csscssssssssssscccccssscssssssscssscssccc" /><path
       d="m 10.865434,226.50215 c -0.482267,-0.29403 -0.956589,-0.8843 -1.2578341,-1.56532 -0.4268088,-0.96487 -0.4670049,-1.38214 -0.3421647,-3.55215 0.1550072,-2.69436 0.9353698,-6.13293 1.8682648,-8.23228 2.200208,-4.95128 6.923447,-9.13505 12.522769,-11.09248 3.216421,-1.1244 3.59392,-1.13715 5.608695,-0.18941 2.49031,1.17143 6.045221,1.85743 8.741494,1.68687 2.576851,-0.163 5.275789,-0.83546 7.245964,-1.80537 1.657514,-0.81599 2.041692,-0.81055 4.770858,0.0675 5.343964,1.71939 10.086976,5.69247 12.482307,10.45605 1.664406,3.31001 2.721146,8.53692 2.341021,11.57932 -0.143008,1.14464 -0.306625,1.49269 -1.052137,2.2382 l -0.882783,0.88279 -25.636117,-6.6e-4 c -25.321519,-6.7e-4 -25.645622,-0.007 -26.410337,-0.47291 z m 22.881481,-29.04429 c -1.855344,-0.45297 -3.048758,-0.9862 -4.775435,-2.13373 -4.226345,-2.80879 -6.749058,-7.90009 -6.384281,-12.88468 0.430682,-5.88528 3.979033,-10.75908 9.424821,-12.94534 1.712999,-0.6877 1.948405,-0.72078 5.177959,-0.7274 3.256127,-0.007 3.450879,0.0204 5.177966,0.72045 8.111741,3.28793 11.662632,12.28781 7.90609,20.03827 -2.544933,5.25068 -7.506722,8.33217 -13.296379,8.25764 -1.102402,-0.0142 -2.556236,-0.16053 -3.230741,-0.32521 z"
       style="fill:#f6f5f2;fill-opacity:0.996078;stroke-width:0.233337"
       id="path1-3" /><path
       d="m 88.504549,211.86613 c -0.482267,-0.29403 -0.956589,-0.8843 -1.257834,-1.56532 -0.426809,-0.96487 -0.467005,-1.38214 -0.342165,-3.55215 0.155007,-2.69436 0.93537,-6.13293 1.868265,-8.23228 2.200208,-4.95128 6.923447,-9.13505 12.522765,-11.09248 3.21642,-1.1244 3.59392,-1.13715 5.6087,-0.18941 2.49031,1.17143 6.04522,1.85743 8.74149,1.68687 2.57685,-0.163 5.27579,-0.83546 7.24597,-1.80537 1.65751,-0.81599 2.04169,-0.81055 4.77085,0.0675 5.34397,1.71939 10.08698,5.69247 12.48231,10.45605 1.66441,3.31001 2.72115,8.53692 2.34102,11.57932 -0.14301,1.14464 -0.30662,1.49269 -1.05214,2.2382 l -0.88278,0.88279 -25.63612,-6.6e-4 c -25.321513,-6.7e-4 -25.645616,-0.007 -26.410331,-0.47291 z m 22.881481,-29.04429 c -1.85535,-0.45297 -3.04876,-0.9862 -4.77544,-2.13373 -4.22634,-2.80879 -6.749049,-7.90009 -6.38428,-12.88468 0.43068,-5.88528 3.97904,-10.75908 9.42482,-12.94534 1.713,-0.6877 1.94841,-0.72078 5.17796,-0.7274 3.25613,-0.007 3.45088,0.0204 5.17797,0.72045 8.11174,3.28793 11.66263,12.28781 7.90609,20.03827 -2.54493,5.25068 -7.50672,8.33217 -13.29638,8.25764 -1.1024,-0.0142 -2.55624,-0.16053 -3.23074,-0.32521 z"
       style="fill:#f6f5f2;fill-opacity:0.996078;stroke-width:0.233337"
       id="path1-3-4" /><path
       d="m 166.14367,226.50215 c -0.48227,-0.29403 -0.95659,-0.8843 -1.25784,-1.56532 -0.42681,-0.96487 -0.467,-1.38214 -0.34216,-3.55215 0.15501,-2.69436 0.93537,-6.13293 1.86826,-8.23228 2.20021,-4.95128 6.92345,-9.13505 12.52277,-11.09248 3.21642,-1.1244 3.59392,-1.13715 5.60869,-0.18941 2.49031,1.17143 6.04523,1.85743 8.7415,1.68687 2.57685,-0.163 5.27579,-0.83546 7.24596,-1.80537 1.65752,-0.81599 2.04169,-0.81055 4.77086,0.0675 5.34396,1.71939 10.08698,5.69247 12.48231,10.45605 1.6644,3.31001 2.72114,8.53692 2.34102,11.57932 -0.14301,1.14464 -0.30663,1.49269 -1.05214,2.2382 l -0.88278,0.88279 -25.63612,-6.6e-4 c -25.32151,-6.7e-4 -25.64562,-0.007 -26.41033,-0.47291 z m 22.88147,-29.04429 c -1.85534,-0.45297 -3.04875,-0.9862 -4.77543,-2.13373 -4.22635,-2.80879 -6.74906,-7.90009 -6.38428,-12.88468 0.43068,-5.88528 3.97903,-10.75908 9.42482,-12.94534 1.713,-0.6877 1.9484,-0.72078 5.17796,-0.7274 3.25613,-0.007 3.45088,0.0204 5.17796,0.72045 8.11175,3.28793 11.66264,12.28781 7.90609,20.03827 -2.54493,5.25068 -7.50672,8.33217 -13.29637,8.25764 -1.10241,-0.0142 -2.55624,-0.16053 -3.23075,-0.32521 z"
       style="fill:#f6f5f2;fill-opacity:0.996078;stroke-width:0.233337"
       id="path1-3-9" /><path
       style="fill:#f7f6f3;fill-opacity:1;stroke:#f7f6f3;stroke-width:0.662287;stroke-dasharray:none;stroke-opacity:1"
       d="m 148.61968,111.7551 c -1.73666,-0.46765 -2.90983,-1.13509 -4.11712,-2.3424 -1.29722,-1.29723 -2.10283,-2.81789 -2.46319,-4.64965 l -0.26821,-1.36466 -26.45954,-4.40857 C 89.597164,94.705387 88.837924,94.56477 88.346124,93.995956 c -0.27817,-0.321937 -0.50599,-0.837262 -0.50599,-1.14522 0,-0.75838 0.94672,-1.665098 1.7328,-1.659621 0.34572,0.0024 12.368556,1.964055 26.717296,4.359206 18.66275,3.115249 26.1356,4.282299 26.25362,4.100069 0.0907,-0.14014 0.13379,-0.35598 0.0953,-0.47963 -0.0397,-0.12364 -8.14495,-6.501908 -18.01443,-14.173806 l -17.94456,-13.948938 -1.37133,0.679708 c -2.40351,1.191283 -5.26115,0.870101 -7.68519,-0.863763 -0.416576,-0.29803 -1.325026,0.220741 -12.312266,7.030663 -6.524323,4.043819 -11.962108,7.452118 -12.083968,7.573993 -0.145704,0.14557 -0.135103,0.685507 0.02654,1.572992 l 0.251008,1.351398 2.93234,0.497246 c 1.612738,0.27346 3.165931,0.650367 3.451518,0.837451 0.689307,0.451679 0.907929,1.384221 0.496708,2.118162 -0.600692,1.071654 -1.124823,1.141301 -4.489111,0.596456 l -3.057064,-0.49506 -0.621883,1.187807 c -0.809254,1.545701 -2.261646,2.86388 -4.131281,3.749655 -1.36041,0.644474 -1.705196,0.711716 -3.650535,0.711716 -2.027524,0 -2.243703,-0.04703 -3.847768,-0.839948 -2.046866,-1.011638 -3.321828,-2.313961 -4.31242,-4.404857 -0.643747,-1.358584 -0.711753,-1.706591 -0.711753,-3.638821 0,-1.932232 0.06826,-2.280245 0.711753,-3.638829 1.342599,-2.834003 3.696836,-4.649501 6.763088,-5.215405 L 64.547698,79.580021 68.96166,58.788723 C 71.389275,47.3535 73.479183,37.519181 73.605954,36.934671 l 0.230465,-1.06274 -1.162569,-0.877757 c -0.800844,-0.604669 -1.403002,-1.323629 -1.935278,-2.310781 -0.709179,-1.315325 -0.772234,-1.590062 -0.767718,-3.3447 0.004,-1.624441 0.09466,-2.084254 0.602011,-3.060341 0.880642,-1.694774 1.562213,-2.400403 3.140373,-3.251429 1.294304,-0.697919 1.583072,-0.764201 3.328853,-0.764201 1.745861,0 2.034615,0.06623 3.328933,0.764201 2.17779,1.174368 3.49952,3.099673 3.78285,5.510361 l 0.14702,1.252267 6.99715,2.258018 c 3.84842,1.241916 7.229596,2.354943 7.513776,2.473394 0.28413,0.11848 0.68892,0.211933 0.89959,0.207561 0.24241,-0.0049 1.88514,-2.162489 4.47547,-5.878129 l 4.09255,-5.87035 -0.54108,-0.709733 c -1.38254,-1.81261 -2.22926,-4.916204 -1.70812,-6.261105 0.48281,-1.245573 2.4494,-1.346385 3.06441,-0.157095 0.18345,0.354589 0.33379,0.884822 0.33379,1.17817 0,1.854109 1.92759,4.36408 3.73736,4.866598 2.15031,0.597054 3.83518,0.157227 5.40268,-1.410275 1.57379,-1.573729 2.00666,-3.247304 1.40437,-5.429205 -0.33378,-1.209497 -2.25051,-3.126213 -3.46004,-3.460064 -1.98607,-0.548242 -3.68478,-0.189216 -5.16453,1.091497 -0.55433,0.479893 -1.22073,0.940031 -1.4806,1.022494 -0.6629,0.210408 -1.68287,-0.266969 -1.98443,-0.928728 -0.44373,-0.973796 -0.28941,-1.479054 0.75627,-2.481228 5.20625,-4.9884858 13.66936,-2.191942 14.98566,4.951867 0.4371,2.372713 -0.0696,4.427117 -1.75797,7.125555 -0.35764,0.571754 -0.32783,0.618048 6.66824,10.302088 l 7.0276,9.727732 0.70792,-0.181532 c 1.45578,-0.373266 3.56397,-0.194051 4.88358,0.414923 2.60511,1.202371 4.12016,3.57884 4.13625,6.487926 0.0132,2.46118 -1.04011,4.486331 -3.11076,5.97885 l -0.6464,0.465854 0.47751,2.034449 c 0.26293,1.118941 0.47751,2.23842 0.47751,2.487726 0,0.667677 -0.68983,1.382577 -1.48139,1.535255 -1.19849,0.231139 -1.81799,-0.55003 -2.40563,-3.033511 l -0.50003,-2.113811 -1.34862,-0.374789 c -1.66361,-0.462408 -2.51677,-0.902711 -3.4647,-1.78821 l -0.73315,-0.684872 -11.56342,5.200663 -11.5634,5.200662 v 1.056397 c 0,0.581023 -0.1371,1.513062 -0.30533,2.071205 l -0.30531,1.014798 17.88296,13.920697 c 9.83564,7.656373 18.00319,13.950373 18.15008,13.986646 0.33247,0.08205 2.13634,-1.078887 2.13634,-1.374962 0,-0.119351 -1.5181,-6.722627 -3.37349,-14.67389 -1.85547,-7.951264 -3.37357,-14.655804 -3.37357,-14.898969 0,-0.657519 0.69488,-1.372393 1.4814,-1.524105 0.53117,-0.102445 0.83686,-0.0099 1.30141,0.392871 0.56294,0.488702 0.85514,1.590536 4.03875,15.246491 l 3.43171,14.7197 1.51638,0.279884 c 4.15294,0.766465 6.86905,3.435631 7.62333,7.491551 0.48281,2.59512 -0.51593,5.66952 -2.4802,7.63343 -1.26735,1.26733 -2.40497,1.90664 -4.24619,2.38623 -1.574,0.40995 -2.73591,0.4069 -4.28885,-0.0119 z m 4.59661,-3.77701 c 4.60978,-2.38381 3.601,-9.36647 -1.47042,-10.177415 -2.15441,-0.344455 -4.23268,0.559705 -5.44897,2.370695 -1.89295,2.81852 -0.55565,6.82229 2.683,8.03379 1.02502,0.38347 3.29064,0.262 4.23639,-0.2271 z M 66.110721,93.836948 c 1.235302,-0.364986 3.098454,-2.228115 3.463441,-3.463468 0.58877,-1.992738 0.194712,-3.673134 -1.233455,-5.261765 -2.131032,-2.370222 -5.307369,-2.419231 -7.609218,-0.117424 -2.275231,2.275264 -2.275231,5.159291 0,7.439448 1.577633,1.581014 3.276994,2.02431 5.379232,1.403197 z m 17.231083,-18.917732 11.80732,-7.3114 V 65.61788 c 0,-1.79965 0.0716,-2.135237 0.7478,-3.509498 0.41127,-0.835761 0.71487,-1.597611 0.67473,-1.693 -0.30001,-0.711675 -5.03444,-7.198832 -5.15789,-7.067222 -0.33114,0.352868 -20.216671,28.844787 -20.216671,28.966071 0,0.07034 0.07618,0.08027 0.168886,0.02252 0.09269,-0.05828 5.482028,-3.395869 11.976025,-7.41715 z m -4.414347,-9.985341 c 5.643947,-8.068727 10.261747,-14.77589 10.261747,-14.90481 0,-0.12895 -2.13998,-3.293592 -4.75556,-7.032617 -2.6155,-3.73902 -4.766155,-6.814342 -4.779132,-6.834057 -0.0742,-0.112595 -2.385105,0.459959 -2.385105,0.59096 0,0.144179 -8.85293,42.059178 -9.093996,43.056353 -0.08872,0.365846 -0.05968,0.382669 0.193379,0.112457 0.163593,-0.174843 4.914909,-6.919565 10.558931,-14.988285 z m 24.729423,3.680797 c 2.31079,-0.965502 2.87413,-3.994953 1.07702,-5.792032 -1.45883,-1.458842 -3.54193,-1.458842 -5.00074,0 -2.781276,2.781257 0.28742,7.31132 3.92372,5.792032 z m 16.07406,-13.120534 11.31254,-5.082822 -0.0675,-0.892345 -0.0675,-0.892347 -6.6346,-2.124376 c -6.95271,-2.226221 -7.64672,-2.567822 -7.64672,-3.764074 0,-0.851662 0.82601,-1.70502 1.64692,-1.701417 0.39273,0.0017 3.64954,0.952708 7.23675,2.11328 5.43467,1.75833 6.57414,2.060704 6.83402,1.813524 0.17152,-0.163186 0.25432,-0.43095 0.18478,-0.595197 -0.0702,-0.164248 -3.20939,-4.549209 -6.97623,-9.744442 -5.02774,-6.934374 -6.96044,-9.437868 -7.26886,-9.415754 -0.23113,0.01656 -1.22172,0.173917 -2.20144,0.349621 l -1.78136,0.319489 -1.63406,6.280582 c -0.89873,3.454314 -1.61527,6.294132 -1.59222,6.310703 0.02,0.01656 0.72508,0.254583 1.56009,0.528837 2.07158,0.680461 2.69564,1.667934 1.83261,2.900014 -0.60134,0.858655 -1.27344,0.974556 -2.83411,0.488834 -0.7684,-0.239086 -1.42631,-0.405453 -1.46214,-0.369623 -0.11457,0.114567 -4.33991,16.512581 -4.33495,16.8232 0.002,0.16418 0.40732,0.583344 0.89959,0.931516 0.49208,0.34823 0.89482,0.738536 0.89482,0.867443 0,0.31015 -0.75592,0.63156 12.09974,-5.144579 z M 101.39232,58.2094 c 0.99456,-0.166301 0.65302,0.815177 3.31456,-9.529119 1.00243,-3.896425 1.87175,-7.251409 1.93168,-7.455514 0.0881,-0.299221 -0.40995,-0.544666 -2.57106,-1.267652 l -2.68016,-0.896552 -3.84033,5.485061 -3.840416,5.485063 2.97031,4.272731 c 2.464366,3.544969 3.046846,4.253544 3.420046,4.16007 0.24769,-0.06225 0.83031,-0.176301 1.29537,-0.25412 z m 38.24884,-5.787655 c 2.3108,-0.96551 2.87415,-3.994954 1.07702,-5.792047 -1.45882,-1.458826 -3.54192,-1.458826 -5.00074,0 -2.78128,2.781266 0.28744,7.311329 3.92372,5.792047 z M 94.699244,42.383155 c 1.66995,-2.391502 2.992416,-4.392049 2.938826,-4.445648 -0.053,-0.05364 -3.317526,-1.136962 -7.253106,-2.407469 -7.07853,-2.285112 -7.71791,-2.414953 -7.71791,-1.567371 0,0.316045 8.78942,12.975135 8.91897,12.845618 0.0398,-0.0424 1.44326,-2.033622 3.11322,-4.42513 z M 109.08552,31.778952 c 0.78342,-3.01202 1.39975,-5.502752 1.36962,-5.534952 -0.0463,-0.05166 -6.33187,8.866208 -6.72322,9.541436 -0.10138,0.174512 0.50533,0.483206 1.8175,0.925044 1.08312,0.364722 2.00131,0.636525 2.04046,0.604007 0.0397,-0.03245 0.71216,-2.523503 1.49564,-5.535535 z m -30.617633,0.851431 c 2.310787,-0.96551 2.874127,-3.994961 1.077016,-5.792039 -1.458822,-1.458842 -3.541916,-1.458842 -5.000738,0 -2.781275,2.781257 0.287434,7.311319 3.923722,5.792039 z m 5.179097,61.030066 c -0.62785,-0.25061 -1.20483,-1.087383 -1.20483,-1.746831 0,-0.75687 0.96196,-1.626493 1.79923,-1.626493 0.85375,0 1.79925,0.874386 1.79925,1.663991 0,0.642022 -0.79905,1.619063 -1.46188,1.787456 -0.24769,0.06293 -0.66672,0.02782 -0.93177,-0.07808 z"
       id="path10" /><path
       style="fill:#000000;stroke-width:0.192982"
       d="m 88.85072,-65.318632 c 0,-16.578604 0.05089,-21.051774 0.241228,-21.202541 0.280116,-0.221884 36.505512,-20.088127 36.920072,-20.247207 0.24002,-0.0921 0.2773,2.69483 0.2773,20.731151 v 20.837561 l -18.59927,10.446247 c -10.2296,5.745438 -18.653285,10.44625 -18.719301,10.44625 -0.06601,0 -0.120029,-9.455157 -0.120029,-21.011461 z M 66.995454,-54.977315 49.289311,-65.188066 v -20.84336 c 0,-16.597704 0.04914,-20.823624 0.241228,-20.746484 0.334416,0.13431 34.344174,19.849781 34.858646,20.207576 l 0.416232,0.289474 -0.05191,20.757147 -0.05191,20.757149 z m 1.059813,-46.402515 c -10.323026,-6.01926 -18.740648,-11.02959 -18.705826,-11.13405 0.06377,-0.1913 37.349599,-21.91086 37.620097,-21.91427 0.122754,-0.002 11.728829,6.43244 34.292822,19.01071 2.7014,1.5059 4.9371,2.81583 4.96822,2.91097 0.0311,0.0951 -7.86728,4.59763 -17.55199,10.00555 -9.684715,5.407912 -18.488946,10.336202 -19.564962,10.951752 -1.076015,0.615551 -2.031278,1.117898 -2.122808,1.116323 -0.09153,-0.0015 -8.612528,-4.927715 -18.935553,-10.946985 z"
       id="path3" /><path
       d="m 112.56896,143.62861 c -0.49032,-0.31707 -3.13127,-2.84054 -5.8688,-5.60773 -4.87219,-4.92497 -4.97734,-5.05801 -4.97734,-6.29724 0,-1.779 1.21828,-3.00318 2.98871,-3.00318 1.17771,0 1.41558,0.16089 4.03445,2.72914 l 2.78293,2.72912 v -6.39747 -5.80622 c 0,-16.33112 5.94308,-15.19639 5.94308,0.0443 v 5.19942 6.96182 l 2.96979,-2.91776 c 2.89822,-2.84745 2.99668,-2.91347 4.08587,-2.74032 1.52344,0.24218 2.75045,1.61812 2.75045,3.08429 0,1.02289 -0.36351,1.45888 -5.59645,6.71221 -5.34275,5.3636 -5.65592,5.62435 -6.90884,5.75222 -0.96439,0.0984 -1.54877,-0.019 -2.20385,-0.44252 z"
       style="fill:#f6f5f2;fill-opacity:0.996078;stroke-width:0.297155"
       id="path1-8"
       sodipodi:nodetypes="cssssccssccssssscc" /></g></svg>
