<?xml version="1.0" encoding="UTF-8" standalone="no"?>
<svg
   width="232"
   height="232"
   xml:space="preserve"
   overflow="hidden"
   version="1.1"
   id="svg12"
   sodipodi:docname="1.7_easy_communication_of_results.svg"
   inkscape:version="1.3 (0e150ed6c4, 2023-07-21)"
   xmlns:inkscape="http://www.inkscape.org/namespaces/inkscape"
   xmlns:sodipodi="http://sodipodi.sourceforge.net/DTD/sodipodi-0.dtd"
   xmlns="http://www.w3.org/2000/svg"
   xmlns:svg="http://www.w3.org/2000/svg"><sodipodi:namedview
     id="namedview12"
     pagecolor="#505050"
     bordercolor="#eeeeee"
     borderopacity="1"
     inkscape:showpageshadow="0"
     inkscape:pageopacity="0"
     inkscape:pagecheckerboard="0"
     inkscape:deskcolor="#505050"
     inkscape:zoom="5.6568543"
     inkscape:cx="78.135299"
     inkscape:cy="25.897786"
     inkscape:window-width="2880"
     inkscape:window-height="1526"
     inkscape:window-x="2869"
     inkscape:window-y="-11"
     inkscape:window-maximized="1"
     inkscape:current-layer="layer4" /><defs
     id="defs1"><clipPath
       id="clip0"><rect
         x="170"
         y="537"
         width="232"
         height="232"
         id="rect1" /></clipPath></defs><g
     inkscape:groupmode="layer"
     id="layer4"
     inkscape:label="frame"
     style="display:inline"><g
       id="g1"
       transform="matrix(1.3805668,0,0,1.3805668,-43.598254,-44.075869)"
       style="display:inline"><path
         style="color:#000000;display:inline;fill:#f9f6f1;fill-opacity:1;stroke:none;-inkscape-stroke:none"
         d="m 44.67481,17.45898 c -14.50852,0 -26.3418,11.83523 -26.3418,26.34375 v 144.39648 c 0,14.50852 11.83346,26.3418 26.3418,26.3418 h 142.64843 c 14.50834,0 26.34375,-11.83346 26.34375,-26.3418 V 43.80273 c 0,-14.50834 -11.83523,-26.34375 -26.34375,-26.34375 z m 0,6.81055 h 142.64843 c 10.82746,0 19.53125,8.70556 19.53125,19.5332 v 144.39648 c 0,10.82764 -8.70361,19.53125 -19.53125,19.53125 H 44.67481 c -10.82764,0 -19.53125,-8.70379 -19.53125,-19.53125 V 43.80273 c 0,-10.82746 8.70379,-19.5332 19.53125,-19.5332 z"
         id="path1" /><path
         style="fill:#f9f6f1;fill-opacity:1"
         d="m 46.616353,186.70218 c -1.6254,-1.18858 -1.7123,-1.64014 -0.578,-3.00683 1.2028,-1.44931 8.1158,-1.6067 69.962297,-1.5929 41.9165,0.009 69.2113,0.38749 70.1275,0.97153 1.1616,0.74046 1.2498,1.35751 0.3911,2.73469 -1.0427,1.67236 -5.1922,1.79379 -69.5495,2.0353 -57.349297,0.21521 -68.750597,0.0302 -70.353397,-1.14179 z m 76.827697,-17.12554 c -1.0752,-0.78656 -1.3186,-3.77826 -1.0986,-13.5 l 0.2827,-12.4895 10.5,-0.5 c 5.775,-0.275 11.9625,-0.33827 13.75,-0.1406 l 3.25,0.35941 v 13.39059 c 0,10.02718 -0.314,13.39937 -1.25,13.42552 -16.1786,0.45202 -24.3089,0.27767 -25.4341,-0.54542 z m 21.6841,-12.9895 v -8.5 h -9 -9 v 8.5 8.5 h 9 9 z m -99.564797,12.19178 c -0.2761,-0.71952 -0.3745,-6.68202 -0.2186,-13.25 l 0.2834,-11.94178 13.75,-0.27822 13.75,-0.27822 v 13.52822 13.52822 h -13.5314 c -10.2237,0 -13.6541,-0.31978 -14.0334,-1.30822 z m 22.5648,-12.19178 v -8.5 h -8.5 -8.5 v 8.5 8.5 h 8.5 8.5 z m 14.607,11.91821 c -0.3338,-0.86998 -0.607,-10.55612 -0.607,-21.52475 v -19.94296 l 2.5651,-0.97525 c 2.8006,-1.06479 19.567997,-1.31427 23.184897,-0.34497 2.2464,0.60202 2.25,0.63781 2.25,22.48635 v 21.88337 H 96.735153 c -11.2902,0 -13.4883,-0.24836 -14,-1.58179 z m 22.392997,-20.41821 v -17 h -8.499997 -8.5 v 17 17 h 8.5 8.499997 z m 54.4666,20.77347 c -0.2712,-0.70666 -0.3746,-17.03229 -0.2298,-36.27916 l 0.2632,-34.994307 h 13.5 13.5 v 35.999997 36 l -13.2702,0.27916 c -10.0918,0.21231 -13.3883,-0.0286 -13.7632,-1.00569 z m 22.2977,-35.02347 -0.2643,-31.25 h -8.5 -8.5 l -0.2642,31.25 -0.2643,31.25 h 9.0285 9.0285 z M 56.548453,106.25793 c -6.3288,-3.97492 -6.9875,-12.832848 -1.3096,-17.610508 3.2628,-2.74544 8.4591,-3.39606 11.9978,-1.50223 1.6691,0.89326 3.2808,0.0924 10.3483,-5.1421 7.9559,-5.89242 8.3455,-6.35914 7.8516,-9.40327 -1.0372,-6.39112 4.6414,-12.51268 11.6072,-12.51268 1.9462,0 4.267697,1.10006 6.549597,3.10359 3.0993,2.72125 3.5348,3.67927 3.5348,7.77655 v 4.67296 l 9.3875,6.31886 c 8.0263,5.40266 9.6842,6.16003 11.4342,5.22345 1.1258,-0.60248 4.2139,-1.13519 6.8626,-1.18381 l 4.8157,-0.0884 9.3075,-10.97247 c 9.2583,-10.91451 9.3014,-10.99062 8.1724,-14.4116 -2.3246,-7.04362 3.061,-14.43166 10.5201,-14.43166 4.4868,0 9.1087,3.27682 10.4792,7.42944 1.0309,3.12379 0.9091,4.16236 -0.935,7.97187 -2.4432,5.04697 -6.2762,7.13981 -11.5183,6.28913 -3.3496,-0.54358 -3.6915,-0.26509 -12.8778,10.49056 l -9.4369,11.04895 0.5135,5.66302 c 0.4604,5.077038 0.2363,5.992518 -2.1659,8.847278 -3.3377,3.96662 -7.8897,4.9765 -12.9331,2.86923 -4.0751,-1.7027 -7.1416,-7.137907 -6.3534,-11.261208 0.5076,-2.65539 0.084,-3.0727 -10.5654,-10.41219 -6.7626,-4.6607 -8.05,-5.21037 -9.7364,-4.1572 -2.365497,1.47729 -8.407297,1.58542 -11.001797,0.19691 -1.5615,-0.83569 -3.3194,0.0102 -9.872,4.75 l -7.9723,5.76673 -0.062,4.734231 c -0.1203,9.159387 -9.2244,14.595237 -16.6419,9.936557 z m 10.3241,-5.37363 c 1.775,-1.473127 1.5579,-5.805678 -0.3994,-7.968418 -2.172,-2.40001 -5.8492,-2.32455 -8.345,0.17126 -2.5458,2.54586 -2.5188,4.070681 0.1318,7.440458 1.7028,2.16471 2.6577,2.57821 4.7444,2.05446 1.437,-0.36064 3.1776,-1.12463 3.8682,-1.69776 z m 70.033097,0.64613 c 2.6567,-1.860797 2.9296,-6.004428 0.5675,-8.614548 -3.0461,-3.36594 -8.4167,-1.77515 -9.8061,2.90461 -0.4837,1.628961 0.018,2.914401 1.8536,4.749998 2.9223,2.92235 4.3233,3.10446 7.385,0.95994 z m -36.6062,-26.098278 c 2.6966,-2.4404 2.3547,-6.95425 -0.677197,-8.94084 -2.1124,-1.38412 -2.976,-1.4472 -5.5,-0.40173 -2.8504,1.18067 -3.5654,2.8247 -3.0434,6.99756 0.4707,3.76288 6.078,5.18896 9.220597,2.34501 z m 71,-14 c 3.6927,-3.34185 1.1508,-10.34501 -3.7548,-10.34501 -5.7396,0 -7.723,9.25112 -2.4165,11.27111 2.6584,1.01194 4.3024,0.76524 6.1713,-0.9261 z"
         id="path18"
         sodipodi:nodetypes="ssssssssscsscssscccccccccsscccccsscccccccccsscssscsscccccccccsscccccsscccccccccsssssssscssscssssssscsssssssscsssssssssssssssssssssss" /></g><path
       d="m -1157.7371,283.92878 c -0.9936,-0.6308 -1.2031,-15.44704 -1,-70.73469 0.254,-69.18446 0.2783,-69.93674 2.2568,-69.93674 1.9778,0 2.0029,0.75233 2.257,67.75 l 0.257,67.75 h 67.3706 c 58.665,0 67.5314,0.19383 68.6154,1.5 0.9932,1.19671 0.9932,1.80328 0,3 -1.0847,1.30694 -10.0774,1.49803 -69.8724,1.48468 -37.7452,-0.008 -69.1932,-0.37438 -69.8844,-0.81325 z m 16.7923,-17.14947 c -2.4213,-1.49647 -0.5923,-4.2874 3.6248,-5.53106 5.7552,-1.69729 9.7365,-4.75981 14.4074,-11.08256 4.5747,-6.19257 7.3417,-8.26015 12.6597,-9.45982 5.833,-1.31583 11.5106,0.59298 16.6652,5.60273 5.0226,4.88156 9.9163,6.39185 14.5253,4.48276 3.8561,-1.59723 5.5661,-3.65461 13.4903,-16.22995 9.886,-15.68866 18.1752,-22.99053 30.4471,-26.82057 6.8169,-2.12752 16.6156,-2.64857 17.6718,-0.93969 1.1544,1.86784 -1.687,3.95592 -5.3995,3.96807 -4.7996,0.0157 -12.5776,2.14631 -18.0522,4.94503 -6.5316,3.33901 -13.7985,11.23193 -21.0298,22.84125 -3.5281,5.66398 -7.5691,11.46448 -8.9801,12.89 -4.7299,4.77852 -12.4843,6.62393 -18.3933,4.37731 -1.3519,-0.51399 -4.7712,-2.98899 -7.5985,-5.5 -4.628,-4.11033 -5.6327,-4.56546 -10.0788,-4.56546 -5.3603,0 -4.6555,-0.52992 -15.5086,11.66188 -5.7156,6.42056 -15.3219,11.29384 -18.4508,9.36008 z m 50.4645,-44.31064 c -3.2026,-1.80611 -4.9354,-4.01736 -8.6928,-11.09302 -2.581,-4.86048 -4.8893,-9.03372 -5.1294,-9.27385 -0.2401,-0.24014 -3.1729,0.95386 -6.5172,2.65333 -8.9455,4.54576 -24.4315,7.37043 -29.5788,5.39523 -0.87,-0.33385 -1.5818,-1.4107 -1.5818,-2.39301 0,-2.38357 1.9472,-3 9.4765,-3 7.0286,0 18.079,-3.00971 21.6413,-5.89428 l 2.3155,-1.87499 -4.9513,-3.14 c -5.9201,-3.75445 -9.4031,-4.76632 -19.982,-5.80515 -7.0715,-0.6944 -8,-1.01772 -8,-2.78558 0,-1.86173 0.6223,-1.99079 9,-1.86673 10.3619,0.15344 15.5161,1.72082 23.3912,7.11318 l 5.3911,3.69154 3.4541,-3.969 c 4.1819,-4.80538 7.4081,-11.03393 14.2312,-27.47522 3.4869,-8.40205 6.3117,-13.64003 8.6253,-15.99377 3.1624,-3.2171 3.9181,-3.5 9.3504,-3.5 7.6038,0 10.5302,2.1021 14.7373,10.5861 1.7493,3.52764 3.8738,7.66524 4.7211,9.19466 l 1.5406,2.78076 3.8499,-2.43037 c 8.3327,-5.26017 22.6444,-8.21991 25.1498,-5.2011 1.9083,2.29945 0.6645,3.05255 -7.3794,4.46794 -6.8805,1.2107 -17.5626,5.50231 -17.5626,7.05594 0,2.96795 15.4028,10.04607 21.8615,10.04607 3.3145,0 4.7437,2.25281 2.5724,4.05483 -3.3469,2.77775 -17.3153,-1.24987 -24.6253,-7.10043 -2.0302,-1.62492 -4.0552,-2.95439 -4.5,-2.95437 -1.1141,4e-5 -5.6244,5.77659 -7.813,10.00669 -0.9941,1.9213 -4.6587,10.21047 -8.1436,18.42037 -3.4848,8.2099 -7.3522,16.01516 -8.594,17.34501 -5.2558,5.62815 -11.6614,6.65933 -18.258,2.93922 z m 13.8224,-5.4732 c 1.0745,-0.95597 2.6032,-3.31312 3.397,-5.23812 10.3884,-25.1908 14.0516,-32.86873 17.987,-37.70038 l 4.377,-5.37376 -1.8993,-2.71293 c -1.0446,-1.49211 -3.1617,-5.55177 -4.7045,-9.02145 -1.9704,-4.43113 -3.6857,-6.76384 -5.7639,-7.8385 -3.4984,-1.80912 -8.6947,-1.13868 -11.0108,1.42066 -0.8634,0.95399 -4.482,8.53397 -8.0413,16.84441 -8.2071,19.16204 -8.6053,19.909 -13.6923,25.68213 l -4.2296,4.80017 4.8792,9.55849 c 3.7073,7.26289 5.5996,9.8926 7.8791,10.94967 3.536,1.63972 8.0868,1.06348 10.8224,-1.37039 z"
       style="display:none;fill:#000000"
       id="path1-4" /><path
       id="rect2"
       style="display:none;fill:#f9f6f1;stroke:#f9f6f1;stroke-width:0.130357;stroke-miterlimit:4.3;paint-order:fill markers stroke"
       d="m 17.516073,152.74805 h 38.04134 v 37.09275 h -38.04134 z" /><path
       id="rect2-4"
       style="display:none;fill:#f9f6f1;stroke:#f9f6f1;stroke-width:0.1689;stroke-miterlimit:4.3;paint-order:fill markers stroke"
       d="m 69.887668,127.48825 h 38.002802 v 62.33328 H 69.887668 Z" /><path
       id="rect2-4-5"
       style="display:none;fill:#f9f6f1;stroke:#f9f6f1;stroke-width:0.131589;stroke-miterlimit:4.3;paint-order:fill markers stroke"
       d="m 122.22134,152.04156 h 38.04012 v 37.79863 h -38.04012 z" /><path
       id="rect2-4-5-7"
       style="display:none;fill:#f9f6f1;stroke:#f9f6f1;stroke-width:0.214679;stroke-miterlimit:4.3;paint-order:fill markers stroke"
       d="m 174.61522,88.973825 h 37.95702 V 189.79864 h -37.95702 z" /><path
       id="rect2-4-5-7-9"
       style="display:none;fill:#f9f6f1;stroke:#f9f6f1;stroke-width:0.134644;stroke-miterlimit:4.3;paint-order:fill markers stroke"
       d="M 17.518217,205.75608 H 212.61777 v 7.71608 H 17.518217 Z" /><circle
       style="display:none;fill:none;stroke:#f9f6f1;stroke-width:7.016;stroke-miterlimit:4.3;stroke-dasharray:none;paint-order:fill markers stroke"
       id="path2"
       cx="40.83559"
       cy="88.658829"
       r="11.168497" /><circle
       style="display:none;fill:none;stroke:#f9f6f1;stroke-width:7.016;stroke-miterlimit:4.3;stroke-dasharray:none;paint-order:fill markers stroke"
       id="path2-6"
       cx="88.163567"
       cy="52.159996"
       r="11.168497" /><circle
       style="display:none;fill:none;stroke:#f9f6f1;stroke-width:7.016;stroke-miterlimit:4.3;stroke-dasharray:none;paint-order:fill markers stroke"
       id="path2-65"
       cx="138.92093"
       cy="87.269272"
       r="11.168497" /><circle
       style="display:none;fill:none;stroke:#f9f6f1;stroke-width:7.016;stroke-miterlimit:4.3;stroke-dasharray:none;paint-order:fill markers stroke"
       id="path2-7"
       cx="186.20862"
       cy="33.274326"
       r="11.168497" /><path
       style="display:none;fill:none;stroke:#f9f6f1;stroke-width:7.016;stroke-miterlimit:4.3;stroke-dasharray:none;paint-order:fill markers stroke"
       d="M 48.967144,81.8136 79.497736,58.043416"
       id="path3"
       sodipodi:nodetypes="cc" /><path
       style="display:none;fill:none;stroke:#f9f6f1;stroke-width:7.016;stroke-miterlimit:4.3;stroke-dasharray:none;paint-order:fill markers stroke"
       d="m 97.727182,57.168416 32.380468,24.32564"
       id="path4"
       sodipodi:nodetypes="cc" /><path
       style="display:none;fill:none;stroke:#f9f6f1;stroke-width:7.016;stroke-miterlimit:4.3;stroke-dasharray:none;paint-order:fill markers stroke"
       d="M 147.60854,79.726289 180.4069,42.43897"
       id="path5"
       sodipodi:nodetypes="cc" /></g></svg>
