<svg id="svg" xmlns="http://www.w3.org/2000/svg" xmlns:xlink="http://www.w3.org/1999/xlink" width="400" height="398.6409966024915" viewBox="0, 0, 400,398.6409966024915">
<g id="svgg">
<path id="path0" d="M185.277 0.295 C 171.582 1.587,161.581 3.219,150.892 5.905 C 43.776 32.819,-21.028 141.267,5.944 248.471 C 31.130 348.581,129.815 412.805,232.843 396.135 C 316.801 382.551,384.146 315.385,397.480 231.937 C 399.582 218.784,399.773 216.058,399.773 199.320 C 399.773 95.494,322.290 10.536,218.614 0.685 C 212.160 0.072,190.346 -0.184,185.277 0.295 M208.607 13.589 C 229.147 14.996,243.370 17.727,260.023 23.463 C 266.543 25.708,275.969 29.451,279.049 31.017 C 279.672 31.334,280.946 31.839,281.880 32.140 C 282.814 32.440,283.579 32.963,283.579 33.300 C 283.579 34.002,285.153 34.629,285.843 34.202 C 286.096 34.046,286.417 34.213,286.555 34.575 C 286.694 34.937,287.355 35.346,288.024 35.486 C 290.576 36.018,303.712 44.258,312.344 50.744 C 324.070 59.553,340.423 75.688,347.688 85.617 C 353.450 93.491,354.198 94.546,355.399 96.489 C 356.092 97.610,357.218 99.241,357.901 100.113 C 359.489 102.142,365.836 113.469,366.540 115.531 C 366.835 116.395,367.451 117.587,367.909 118.181 C 368.368 118.775,368.743 119.476,368.743 119.737 C 368.743 119.999,369.447 121.574,370.309 123.238 C 377.085 136.333,384.129 161.832,385.757 179.162 C 390.337 227.919,377.543 273.944,348.859 311.891 C 342.978 319.673,329.932 333.703,325.143 337.398 C 322.752 339.242,318.187 339.782,317.287 338.327 C 317.155 338.114,316.659 337.939,316.184 337.939 C 315.709 337.939,314.624 337.327,313.772 336.580 C 312.921 335.832,312.039 335.221,311.811 335.221 C 310.999 335.221,308.168 330.851,306.477 326.988 C 303.788 320.845,300.892 318.924,291.966 317.366 C 289.789 316.987,287.770 316.478,287.478 316.235 C 287.186 315.993,285.467 315.486,283.657 315.109 C 279.565 314.256,275.757 312.012,272.181 308.346 C 268.999 305.084,268.917 304.410,270.656 295.871 C 273.575 281.535,272.285 273.277,264.408 255.878 C 260.150 246.474,259.502 244.322,259.112 238.279 C 258.593 230.232,258.257 229.362,253.962 224.968 C 250.227 221.146,247.585 217.991,243.468 212.436 C 242.211 210.740,240.253 208.359,239.117 207.144 C 232.918 200.517,232.765 194.034,238.758 191.973 C 250.732 187.856,270.048 186.124,279.502 188.320 C 282.865 189.102,287.656 189.955,290.147 190.217 C 315.451 192.874,319.130 193.165,327.746 193.184 L 336.806 193.205 340.883 191.691 C 354.570 186.609,363.768 179.013,365.647 171.241 C 367.970 161.634,367.777 155.345,364.843 145.114 C 362.504 136.960,354.391 118.844,353.484 119.751 C 353.319 119.917,354.994 126.641,357.001 133.862 C 360.061 144.873,360.036 159.804,356.948 166.184 C 354.043 172.185,339.400 181.209,332.587 181.197 C 327.936 181.189,308.747 178.415,307.003 177.498 C 305.693 176.810,309.608 173.891,316.412 170.485 C 329.366 164.000,332.849 159.646,335.020 147.225 C 335.701 143.328,335.993 127.746,335.413 126.234 C 334.904 124.909,334.411 125.863,334.106 128.765 C 331.786 150.823,326.500 159.078,311.685 163.779 C 307.498 165.108,296.490 170.181,294.645 171.632 C 294.010 172.132,292.334 172.781,290.921 173.074 C 288.157 173.648,288.041 173.630,279.955 171.418 C 271.560 169.122,250.809 169.603,236.796 172.418 L 235.540 172.670 236.702 169.574 C 239.414 162.353,250.470 144.402,254.258 141.069 C 256.961 138.690,262.020 137.099,270.668 135.906 C 303.604 131.367,317.553 128.708,322.991 125.934 C 326.629 124.078,330.757 117.968,334.158 109.408 C 337.195 101.762,334.917 90.280,328.630 81.548 C 320.592 70.384,317.096 68.075,322.779 77.683 C 331.988 93.253,331.020 104.387,319.523 115.135 C 316.473 117.985,312.607 118.881,298.301 120.051 C 289.715 120.753,281.430 121.708,276.784 122.532 C 269.069 123.900,269.084 124.292,276.517 115.506 C 297.467 90.742,299.144 86.345,295.789 65.006 C 294.132 54.467,292.784 51.616,287.322 47.092 C 270.378 33.060,246.365 23.964,227.783 24.539 C 220.667 24.759,220.328 25.906,227.214 26.465 C 243.608 27.795,274.450 43.475,281.945 54.291 C 284.076 57.366,285.212 66.311,284.494 74.359 C 283.661 83.679,283.619 83.750,271.142 96.434 C 262.228 105.497,260.184 107.371,246.003 119.503 C 233.145 130.501,225.004 141.357,213.178 163.269 C 211.037 167.235,209.198 170.568,209.091 170.675 C 208.984 170.782,207.763 169.114,206.379 166.968 C 204.995 164.822,202.763 161.771,201.420 160.188 L 198.977 157.309 198.635 131.995 C 198.115 93.579,198.068 94.058,202.894 87.882 C 204.160 86.263,208.766 80.209,213.130 74.429 C 224.092 59.911,225.539 58.478,231.063 56.667 C 235.986 55.053,244.216 53.553,250.396 53.142 C 255.203 52.824,255.539 52.515,252.208 51.479 C 245.719 49.461,238.551 49.276,230.499 50.918 C 221.820 52.689,220.352 53.768,209.490 66.365 C 206.697 69.604,202.767 73.739,200.756 75.555 L 197.099 78.856 196.577 76.914 C 193.653 66.051,191.895 62.346,187.914 58.661 C 183.916 54.959,170.519 47.192,162.490 43.920 L 159.862 42.849 160.905 42.035 C 166.563 37.624,184.796 30.750,204.077 25.760 L 209.966 24.236 205.033 24.106 C 189.851 23.709,166.297 29.394,150.700 37.221 L 146.205 39.477 140.713 38.696 C 134.273 37.781,124.502 37.642,122.587 38.439 C 120.820 39.174,120.865 39.193,127.067 40.292 C 133.122 41.366,139.533 42.980,139.508 43.424 C 139.499 43.584,138.632 44.264,137.583 44.936 C 134.673 46.798,131.064 50.133,129.503 52.403 C 126.085 57.370,123.651 77.368,124.613 92.580 C 125.635 108.729,126.505 112.505,130.692 118.969 C 131.802 120.682,132.714 122.242,132.720 122.436 C 132.776 124.477,100.004 116.485,88.132 111.562 C 81.042 108.623,78.867 105.530,77.209 96.029 C 75.047 83.646,84.579 68.220,101.594 56.567 C 106.244 53.382,106.331 52.976,102.067 54.370 C 86.215 59.553,71.944 73.181,68.397 86.523 C 65.527 97.321,68.677 112.884,75.198 120.121 C 77.359 122.519,100.566 131.581,111.629 134.347 C 124.004 137.441,136.746 141.096,138.165 141.958 C 139.550 142.800,142.975 146.224,149.785 153.576 C 150.820 154.692,153.524 157.028,155.794 158.766 C 160.984 162.739,167.407 168.987,170.085 172.668 C 173.614 177.518,173.225 177.679,164.131 175.129 C 160.190 174.023,153.805 172.392,149.943 171.503 C 146.082 170.614,140.300 169.068,137.095 168.067 C 130.123 165.890,127.436 165.516,123.953 166.240 C 119.078 167.252,86.312 166.965,81.087 165.865 C 70.570 163.651,63.849 159.754,59.655 153.441 C 58.790 152.140,57.653 150.688,57.128 150.213 C 56.602 149.738,56.172 149.154,56.172 148.916 C 56.172 148.677,55.266 147.026,54.159 145.248 C 49.475 137.729,47.391 132.487,47.194 127.731 C 46.800 118.240,48.229 109.927,51.881 100.473 C 54.299 94.211,53.876 93.845,50.369 99.162 C 45.309 106.831,40.023 121.376,39.563 128.896 C 39.024 137.710,46.675 156.687,54.142 165.058 C 57.141 168.420,57.137 168.384,54.539 168.774 C 42.352 170.601,32.162 161.740,29.672 147.149 C 28.525 140.430,28.414 140.435,27.651 147.252 C 25.432 167.066,35.004 174.912,64.553 177.498 C 68.173 177.815,70.893 178.381,74.500 179.569 C 83.887 182.661,86.495 182.949,105.323 182.971 C 126.717 182.996,128.794 183.262,135.943 186.884 C 137.202 187.522,139.899 188.634,141.936 189.355 C 143.973 190.076,150.227 192.527,155.832 194.803 C 161.438 197.078,169.007 200.027,172.653 201.356 C 182.578 204.973,182.143 204.624,186.146 212.196 C 187.189 214.171,188.813 216.719,189.753 217.859 C 190.694 218.999,192.112 220.889,192.905 222.058 C 193.697 223.227,195.844 225.408,197.676 226.905 C 199.507 228.402,202.098 230.972,203.433 232.617 C 204.768 234.263,206.521 236.017,207.329 236.517 C 209.885 238.096,215.045 245.908,217.471 251.869 C 218.138 253.508,219.087 255.655,219.581 256.643 C 221.877 261.235,221.620 264.948,218.798 267.952 C 217.727 269.092,215.952 272.391,215.225 274.594 C 214.925 275.505,214.383 276.364,214.021 276.503 C 213.659 276.642,213.364 277.139,213.364 277.607 C 213.364 280.409,208.423 284.921,203.048 287.028 C 198.289 288.892,196.972 289.557,192.400 292.404 C 189.006 294.517,188.714 294.610,184.391 294.945 C 176.895 295.525,166.970 298.417,162.854 301.220 C 162.106 301.729,161.106 302.147,160.630 302.149 C 160.117 302.151,157.071 304.885,153.155 308.858 C 140.279 321.922,132.734 325.134,113.703 325.650 L 102.152 325.964 98.652 324.464 L 95.153 322.965 87.780 323.430 C 69.118 324.607,67.829 324.791,65.989 326.533 L 64.707 327.746 61.578 324.471 C 38.190 299.990,19.536 260.780,15.156 226.893 C 13.759 216.085,13.652 214.827,13.345 205.638 C 12.682 185.731,14.821 167.427,19.934 149.264 C 21.625 143.257,25.794 131.321,27.101 128.744 C 27.822 127.323,29.174 124.326,30.105 122.084 C 31.037 119.841,32.408 116.886,33.153 115.515 C 33.898 114.145,35.326 111.495,36.328 109.626 C 39.116 104.423,41.244 101.019,41.709 101.019 C 41.940 101.019,42.129 100.734,42.129 100.386 C 42.129 100.038,42.588 98.954,43.148 97.978 C 44.226 96.101,44.586 95.614,49.048 89.992 C 50.600 88.038,52.625 85.387,53.550 84.103 C 54.475 82.818,55.923 81.155,56.769 80.408 C 57.615 79.660,58.645 78.391,59.057 77.588 C 60.706 74.377,80.139 55.704,84.879 52.775 C 85.685 52.276,86.831 51.411,87.424 50.851 C 88.891 49.467,102.112 40.692,104.643 39.422 C 105.764 38.860,106.988 38.142,107.361 37.826 C 107.735 37.511,108.550 37.104,109.173 36.921 C 109.796 36.738,110.920 36.129,111.670 35.567 C 113.367 34.298,119.514 31.213,122.537 30.115 C 123.783 29.662,125.132 29.013,125.536 28.671 C 127.359 27.132,144.062 21.291,146.641 21.291 C 147.101 21.291,147.879 21.013,148.370 20.674 C 148.862 20.334,151.200 19.712,153.567 19.291 C 155.934 18.871,158.788 18.241,159.909 17.891 C 162.578 17.059,175.725 14.706,181.200 14.081 C 183.567 13.811,186.116 13.518,186.863 13.431 C 189.670 13.104,202.936 13.200,208.607 13.589 M154.551 49.856 C 163.654 52.923,175.698 61.850,179.731 68.519 C 183.095 74.085,183.210 86.747,180.310 132.276 C 179.527 144.566,179.435 144.957,177.760 143.095 C 177.285 142.568,174.016 139.717,170.495 136.760 C 146.274 116.419,138.400 100.934,139.202 75.219 C 139.672 60.139,141.066 56.364,148.268 50.671 C 150.837 48.640,150.912 48.630,154.551 49.856 M178.572 319.547 C 173.294 325.273,170.479 330.058,169.873 334.334 C 169.339 338.098,168.236 340.146,165.603 342.263 C 164.687 342.999,162.657 344.831,161.091 346.335 C 158.118 349.188,153.728 351.674,150.665 352.237 L 148.896 352.562 149.215 350.120 C 149.390 348.777,149.718 345.695,149.945 343.270 C 150.626 335.984,151.306 334.376,154.097 333.457 C 155.012 333.156,156.005 332.614,156.305 332.253 C 156.604 331.892,157.108 331.597,157.424 331.597 C 158.468 331.597,162.005 328.270,166.207 323.336 C 170.949 317.768,170.178 318.114,178.880 317.638 L 180.410 317.554 178.572 319.547 M241.240 320.304 C 242.143 322.051,242.073 324.363,240.958 329.628 C 238.144 342.914,238.353 346.979,242.000 349.892 C 242.818 350.546,243.811 351.385,244.206 351.758 C 244.600 352.130,245.161 352.435,245.451 352.435 C 246.417 352.435,245.980 354.416,243.652 360.589 C 239.748 370.941,239.618 371.390,239.091 376.365 C 238.462 382.288,239.136 381.643,232.390 382.777 C 229.275 383.300,226.394 383.828,225.987 383.950 C 225.072 384.225,224.821 383.316,224.015 376.790 C 223.599 373.416,223.122 371.461,222.469 370.442 C 219.024 365.071,218.100 357.943,219.704 349.119 C 220.670 343.809,220.770 343.612,225.569 337.640 C 227.203 335.607,229.621 332.346,230.943 330.392 C 239.562 317.657,239.767 317.456,241.240 320.304 M207.237 324.462 C 204.103 329.511,199.042 341.789,198.414 345.866 C 198.222 347.112,197.628 349.762,197.094 351.755 C 196.469 354.092,196.037 357.391,195.878 361.042 C 195.616 367.095,194.682 373.305,193.604 376.158 C 193.240 377.122,192.748 379.449,192.509 381.328 C 192.036 385.065,191.862 385.475,191.084 384.697 C 190.692 384.305,190.434 384.355,190.037 384.897 C 189.568 385.538,188.987 385.557,184.789 385.074 C 175.581 384.013,174.277 383.515,175.651 381.587 C 176.157 380.876,177.107 378.969,177.763 377.350 C 178.418 375.730,179.686 373.338,180.581 372.033 L 182.209 369.661 182.596 362.293 C 183.186 351.097,183.868 346.539,185.396 343.583 C 185.781 342.839,186.423 341.105,186.823 339.729 C 187.604 337.043,190.968 330.956,192.368 329.697 C 192.837 329.275,195.358 328.268,197.969 327.461 C 200.581 326.653,203.040 325.724,203.433 325.397 C 203.827 325.070,204.478 324.802,204.880 324.802 C 205.283 324.802,206.184 324.299,206.883 323.684 C 208.595 322.178,208.620 322.234,207.237 324.462 M263.761 325.923 C 267.742 329.321,273.092 331.392,279.049 331.840 C 281.416 332.019,283.760 332.370,284.258 332.622 C 286.041 333.522,290.002 337.187,290.442 338.344 C 290.688 338.992,291.199 339.865,291.578 340.283 C 292.448 341.245,292.196 345.088,290.883 350.842 C 290.372 353.081,289.834 356.342,289.686 358.090 C 289.538 359.838,289.323 361.723,289.209 362.279 C 289.000 363.296,286.655 364.873,286.130 364.349 C 285.976 364.194,285.491 364.384,285.054 364.771 C 284.191 365.534,274.029 370.687,272.367 371.205 C 270.928 371.653,271.009 371.013,273.396 363.080 C 276.767 351.881,276.722 351.494,271.643 347.982 C 268.430 345.760,258.544 336.694,257.790 335.278 C 257.179 334.130,259.603 323.443,260.475 323.443 C 260.684 323.443,262.163 324.559,263.761 325.923 M88.057 331.433 L 90.170 331.723 88.007 333.220 C 86.817 334.043,85.232 335.062,84.485 335.484 C 82.759 336.457,79.648 339.201,79.025 340.300 C 78.565 341.110,76.552 339.563,70.044 333.398 C 68.757 332.179,82.532 330.676,88.057 331.433 M141.336 350.344 L 141.336 360.030 139.523 361.669 C 138.526 362.570,137.284 363.307,136.763 363.307 C 136.243 363.307,135.298 363.715,134.665 364.213 C 134.031 364.711,133.280 365.119,132.995 365.119 C 132.229 365.119,129.073 368.317,128.593 369.579 C 127.679 371.983,119.133 368.352,103.873 359.078 C 94.744 353.530,93.500 352.738,92.558 351.879 L 91.571 350.978 97.767 346.837 L 103.964 342.695 120.272 342.419 C 133.281 342.199,136.946 342.004,138.392 341.453 C 141.520 340.261,141.336 339.708,141.336 350.344 M307.621 341.746 C 309.329 342.906,313.408 344.281,315.145 344.281 C 317.236 344.281,314.283 347.052,306.040 352.823 C 301.949 355.688,301.689 354.959,303.964 346.999 C 304.711 344.384,305.323 341.887,305.323 341.451 C 305.323 340.398,305.711 340.448,307.621 341.746 M212.454 357.871 C 212.932 360.487,213.458 364.054,213.624 365.798 C 213.974 369.492,214.564 371.125,216.286 373.167 C 217.497 374.604,218.945 384.147,218.083 385.014 C 217.939 385.159,214.699 385.342,210.884 385.422 L 203.948 385.566 204.573 382.583 C 204.917 380.942,205.611 378.792,206.115 377.803 C 206.704 376.650,207.269 374.018,207.695 370.450 C 209.391 356.220,209.932 352.907,210.818 351.302 C 211.280 350.466,211.329 350.500,211.452 351.755 C 211.525 352.503,211.976 355.255,212.454 357.871 M168.080 359.603 C 167.303 367.948,164.879 374.850,162.294 376.077 C 161.605 376.404,160.692 377.373,160.264 378.230 C 159.094 380.573,158.669 380.641,152.874 379.414 C 146.175 377.995,145.255 377.259,147.022 374.736 C 147.409 374.184,148.043 372.661,148.431 371.351 C 149.573 367.499,150.723 365.683,153.017 364.109 C 157.565 360.988,160.170 358.870,164.161 355.052 L 168.290 351.101 168.445 352.560 C 168.530 353.363,168.366 356.533,168.080 359.603 M255.629 356.995 C 260.071 358.229,259.634 364.904,254.416 375.538 C 253.097 378.226,246.820 381.045,245.350 379.610 C 244.392 378.675,245.810 372.147,248.447 365.345 C 249.124 363.601,249.952 361.289,250.288 360.206 C 251.381 356.689,252.375 356.091,255.629 356.995 " stroke="none" fill="#46372b" fill-rule="evenodd"></path></g></svg>