<?xml version="1.0" encoding="UTF-8" standalone="no"?>
<!--?xml version="1.0" encoding="UTF-8" standalone="no"?-->

<svg
   viewBox="0 0 16 16"
   version="1.1"
   class="si-glyph si-glyph-global"
   id="svg5"
   sodipodi:docname="network.svg"
   inkscape:version="1.3 (0e150ed6c4, 2023-07-21)"
   xml:space="preserve"
   xmlns:inkscape="http://www.inkscape.org/namespaces/inkscape"
   xmlns:sodipodi="http://sodipodi.sourceforge.net/DTD/sodipodi-0.dtd"
   xmlns="http://www.w3.org/2000/svg"
   xmlns:svg="http://www.w3.org/2000/svg"
   xmlns:rdf="http://www.w3.org/1999/02/22-rdf-syntax-ns#"
   xmlns:cc="http://creativecommons.org/ns#"
   xmlns:dc="http://purl.org/dc/elements/1.1/"><sodipodi:namedview
     id="namedview5"
     pagecolor="#505050"
     bordercolor="#eeeeee"
     borderopacity="1"
     inkscape:showpageshadow="0"
     inkscape:pageopacity="0"
     inkscape:pagecheckerboard="0"
     inkscape:deskcolor="#505050"
     inkscape:zoom="57.054678"
     inkscape:cx="11.059566"
     inkscape:cy="5.3720397"
     inkscape:window-width="2880"
     inkscape:window-height="1526"
     inkscape:window-x="2869"
     inkscape:window-y="-11"
     inkscape:window-maximized="1"
     inkscape:current-layer="svg5" /><!-- Generator: Sketch 3.0.3 (7891) - http://www.bohemiancoding.com/sketch --><title
     id="title1">108</title><defs
     id="defs1" /><g
     stroke="none"
     stroke-width="1"
     fill="none"
     fill-rule="evenodd"
     id="g5"
     style="fill:#f7f6f3;fill-opacity:1"
     transform="translate(19.197521,1.1897754)"><g
       fill="#434343"
       id="g4"
       style="fill:#f7f6f3;fill-opacity:1"><path
         d="m 8.048,0 c -4.4175492,0 -8,3.582 -8,8 0,4.418 3.5824508,8 8,8 4.418558,0 8,-3.582 8,-8 0,-4.418 -3.581442,-8 -8,-8 z M 8,15 C 4.1353341,15 1,11.867147 1,8 1,4.1338416 4.1353341,1 8,1 c 3.864666,0 7,3.1338416 7,7 0,3.868135 -3.135334,7 -7,7 z"
         class="si-glyph-fill"
         id="path1"
         style="fill:#f7f6f3;fill-opacity:1" /><path
         d="M 2.959,2.684 C 2.689,4.028 3.694,6.083 5.831,6.583 7.967,7.083 7.049,6.667 6.717,6 6.383,5.333 6.682,4.833 7.199,4.667 7.717,4.5 7.586,4.96 8.354,4 8.548,2 6.882,3.973 6.716,3.14 8.366,1.223 5.95,0.5 5.249,0.75 4.548,1 3.229,1.339 2.959,2.684 Z"
         class="si-glyph-fill"
         id="path2"
         style="fill:#f7f6f3;fill-opacity:1" /><path
         d="M 6.873,7.694 C 6.749,7.749 6.171,8.11 5.972,8.36 c -0.199,0.25 -0.286,0.778 0,1 0.286,0.223 -0.016,1.279 0.755,1.473 0.771,0.194 1.543,0.307 1.572,0.917 0.027,0.61 -0.072,2.027 -0.443,2.167 0.5,0.277 1.717,-1.195 2.145,-1.973 0.429,-0.777 0.572,-1.889 0.543,-2.167 -0.029,-0.277 0.171,-0.86 0.257,-1.61 0.085,-0.75 -0.57,-0.8 -0.655,-1.133 C 10.059,6.7 9.943,6.333 6.873,7.694 Z"
         class="si-glyph-fill"
         id="path3"
         style="fill:#f7f6f3;fill-opacity:1" /><path
         d="m 13.125,4 c 0,0 -2.012,0.861 -0.644,2.14 1.366,1.277 2.062,2.49 1.995,2.768 -0.062,0.276 -1.38,1.706 -0.623,1.594 0.761,-0.111 1.322,-1.611 1.443,-2.501 C 15.415,7.111 14.372,5.362 14.329,5.224 14.293,5.083 13.607,4.015 13.125,4 Z"
         class="si-glyph-fill"
         id="path4"
         style="fill:#f7f6f3;fill-opacity:1" /></g></g><metadata
     id="metadata5"><rdf:RDF><cc:Work
         rdf:about=""><dc:title>108</dc:title></cc:Work></rdf:RDF></metadata><path
     style="fill:#f7f6f3;fill-opacity:1;stroke:#000000;stroke-width:0;stroke-miterlimit:4.3;stroke-opacity:0.09;paint-order:fill markers stroke"
     d="m 37.750581,-2.3671572 c 0.02479,-0.00413 0.04957,-0.00826 0.07436,-0.012393"
     id="path5" /><path
     style="fill:#f7f6f3;fill-opacity:1;stroke:#000000;stroke-width:0;stroke-miterlimit:4.3;stroke-opacity:0.09;paint-order:fill markers stroke"
     d="m 4.697134,-0.59488768 v -0.0123935"
     id="path6" /><path
     style="fill:none;fill-opacity:1;stroke:#f7f6f3;stroke-width:0.7;stroke-miterlimit:4.3;stroke-dasharray:none;stroke-opacity:1;paint-order:fill markers stroke"
     d="m 43.612703,4.697134 c 2.850504,-3.5073586 4.065066,-4.96979092 4.065066,-4.96979092"
     id="path7"
     sodipodi:nodetypes="cc" /><circle
     style="fill:none;fill-opacity:1;stroke:#f7f6f3;stroke-width:0.444;stroke-miterlimit:4.3;stroke-dasharray:none;stroke-opacity:1;paint-order:fill markers stroke"
     id="path8"
     cx="42.88773"
     cy="5.3850183"
     r="1.2225001" /><circle
     style="fill:none;fill-opacity:1;stroke:#f7f6f3;stroke-width:0.444;stroke-miterlimit:4.3;stroke-dasharray:none;stroke-opacity:1;paint-order:fill markers stroke"
     id="path8-5"
     cx="48.267891"
     cy="-1.0566615"
     r="0.80294877" /><circle
     style="fill:none;fill-opacity:1;stroke:#f7f6f3;stroke-width:0.444;stroke-miterlimit:4.3;stroke-dasharray:none;stroke-opacity:1;paint-order:fill markers stroke"
     id="path8-5-3"
     cx="42.413795"
     cy="-1.8162597"
     r="0.80294877" /><path
     style="fill:none;fill-opacity:1;stroke:#f7f6f3;stroke-width:0.444;stroke-miterlimit:4.3;stroke-dasharray:none;stroke-opacity:1;paint-order:fill markers stroke"
     d="m 43.129357,-1.834237 4.452717,0.5918801"
     id="path9"
     sodipodi:nodetypes="cc" /><path
     style="fill:#f7f6f3;fill-opacity:1;stroke-width:0.1;stroke:#f7f6f3;stroke-opacity:1;stroke-dasharray:none"
     d="m 14.143392,15.812772 c -0.262222,-0.07061 -0.439357,-0.17139 -0.621651,-0.353684 -0.19587,-0.19587 -0.317507,-0.425477 -0.37192,-0.702057 L 13.109284,14.550979 9.1141149,13.885321 C 5.2314439,13.238407 5.1167957,13.217175 5.0425407,13.131289 5.0005155,13.08268 4.966135,13.004869 4.966135,12.95837 c 0,-0.114509 0.1429426,-0.251416 0.2616334,-0.250589 0.052208,3.65e-4 1.867553,0.296556 4.0340941,0.658204 2.8179135,0.470377 3.9462575,0.646592 3.9640815,0.619077 0.01371,-0.02116 0.02016,-0.05375 0.01435,-0.07242 -0.0058,-0.01867 -1.229826,-0.981735 -2.720038,-2.140128 L 7.8107806,9.6663403 7.6037187,9.7689697 C 7.2408101,9.9488437 6.809326,9.900348 6.4433178,9.6385491 c -0.06291,-0.044995 -0.2000685,0.03333 -1.859044,1.0615719 -0.9851204,0.610583 -1.8061848,1.125208 -1.824587,1.14361 -0.021976,0.02198 -0.020437,0.103506 0.00448,0.237509 l 0.037948,0.20405 0.4427523,0.07508 c 0.2435135,0.04129 0.4780318,0.0982 0.5211527,0.126448 0.1040824,0.0682 0.137093,0.209006 0.074979,0.319825 -0.090696,0.161811 -0.1698355,0.172327 -0.677819,0.09006 L 2.701588,12.821953 2.607691,13.001302 c -0.122194,0.233388 -0.3414873,0.432422 -0.6237958,0.566167 -0.2054035,0.09731 -0.2574645,0.107463 -0.5511932,0.107463 -0.3061405,0 -0.3387831,-0.0071 -0.58097763,-0.126825 C 0.54266252,13.395358 0.35014591,13.198718 0.20057589,12.88301 0.10339718,12.677875 0.09311462,12.625329 0.09311462,12.333578 c 0,-0.291751 0.0102744,-0.344298 0.10746127,-0.549433 0.20272782,-0.427911 0.55819868,-0.702036 1.02117051,-0.787483 L 1.44962,10.954606 2.1160852,7.8152924 C 2.4826408,6.0886679 2.7982046,4.6037671 2.8173386,4.5155112 L 2.8521269,4.3550461 2.6765875,4.2225124 C 2.5556665,4.131215 2.4647483,4.0226549 2.3843847,3.8736027 2.2773036,3.6749999 2.2677815,3.633517 2.2684603,3.3685812 2.2690892,3.1233043 2.2827405,3.0538756 2.3593297,2.906495 2.4923047,2.6505982 2.5952108,2.5440543 2.8335045,2.415556 3.0289281,2.3101761 3.0725271,2.3001677 3.3361348,2.3001677 c 0.2636087,0 0.3072077,0.00999 0.5026303,0.1153883 0.3288318,0.1773201 0.5284029,0.4680255 0.5711823,0.8320186 l 0.02222,0.1890826 1.0565123,0.340942 c 0.5810816,0.187519 1.0916144,0.3555769 1.1345172,0.3734623 0.042902,0.017888 0.1040273,0.031995 0.1358331,0.031343 0.036602,-7.441e-4 0.2846407,-0.326518 0.6757621,-0.8875493 L 8.0527264,2.4084811 7.9709899,2.3013175 C 7.7622371,2.027628 7.6343911,1.5590113 7.7130769,1.355942 7.7859457,1.1678715 8.0829228,1.1526495 8.1757848,1.3322232 c 0.027694,0.053543 0.050342,0.1336009 0.050342,0.177894 0,0.279955 0.29105,0.6589398 0.5643165,0.7348154 0.3246751,0.090146 0.5790807,0.023739 0.815761,-0.21294 C 9.8438258,1.7943726 9.9091906,1.5416773 9.818255,1.2122278 9.7678513,1.0296044 9.4784373,0.74019551 9.2958149,0.68978673 8.9959287,0.60701052 8.7394377,0.66121615 8.5160122,0.85459405 8.4322881,0.92705508 8.3316887,0.99653063 8.2924543,1.0089822 8.1923604,1.0407534 8.0383514,0.96866947 7.992824,0.86875193 7.9258263,0.72171688 7.9490864,0.64542741 8.1070085,0.49410728 8.8931134,-0.25911341 10.17097,0.16314209 10.369721,1.2417983 c 0.06601,0.3582596 -0.01052,0.6684579 -0.265437,1.0759001 -0.05401,0.086334 -0.0495,0.093316 1.006848,1.5555292 l 1.061105,1.4688073 0.106893,-0.027409 c 0.219807,-0.056356 0.538132,-0.029304 0.737382,0.062655 0.393351,0.1815481 0.622113,0.5403754 0.624534,0.9796234 0.002,0.3716174 -0.157046,0.6773991 -0.469695,0.9027571 l -0.09759,0.070341 0.07211,0.3071843 c 0.03967,0.1689517 0.07211,0.3379835 0.07211,0.3756258 0,0.1008145 -0.104157,0.2087585 -0.223678,0.2318116 -0.180966,0.034904 -0.274503,-0.083047 -0.363231,-0.4580346 l -0.07552,-0.319168 -0.20363,-0.056591 C 12.100733,7.3410105 11.971913,7.2745286 11.828784,7.1408258 L 11.718083,7.0374162 9.9721019,7.822673 8.2261202,8.6079298 v 0.1595075 c 0,0.087729 -0.020753,0.2284596 -0.046112,0.3127343 l -0.046113,0.1532267 2.7001858,2.1019097 c 1.4851,1.156049 2.718329,2.106391 2.740507,2.111868 0.0502,0.01239 0.322576,-0.162903 0.322576,-0.207608 0,-0.01802 -0.229219,-1.015061 -0.509374,-2.215636 -0.280157,-1.2005754 -0.509375,-2.2129048 -0.509375,-2.2496208 0,-0.099284 0.104911,-0.20722 0.223678,-0.2301274 0.0802,-0.015468 0.126362,-0.00153 0.196497,0.059324 0.08505,0.073794 0.129117,0.2401582 0.609824,2.3020942 l 0.518153,2.222553 0.228967,0.04226 c 0.627058,0.11573 1.037168,0.518752 1.151058,1.131161 0.07287,0.391841 -0.07795,0.85605 -0.374494,1.152585 -0.191358,0.191358 -0.363128,0.287888 -0.641137,0.3603 -0.237665,0.0619 -0.413098,0.06144 -0.647576,-0.0017 z m 0.694053,-0.570298 c 0.696039,-0.359935 0.543711,-1.414258 -0.222021,-1.536704 -0.325305,-0.05201 -0.639101,0.08451 -0.822753,0.357955 -0.285817,0.425572 -0.08393,1.03011 0.405106,1.213035 0.154777,0.0579 0.496868,0.03956 0.639668,-0.03429 z M 1.6852157,13.10728 C 1.871743,13.05217 2.1530588,12.770853 2.2081706,12.584325 2.2970726,12.283438 2.2375876,12.029712 2.0219287,11.789842 1.7001595,11.431958 1.220562,11.424558 0.87300492,11.772112 c -0.3435442,0.343546 -0.3435442,0.77901 0,1.123295 0.23820708,0.23872 0.49479808,0.305654 0.81221078,0.211871 z M 4.2869665,10.250859 6.069778,9.1468977 V 8.8464343 c 0,-0.2717319 0.010794,-0.3224035 0.1129114,-0.5299052 C 6.2447945,8.1903361 6.2906339,8.0753029 6.2845671,8.0609 6.2392802,7.9534432 5.5244091,6.9739356 5.5057725,6.9938076 5.4558071,7.0470857 2.4532212,11.349132 2.4532212,11.367445 c 0,0.01062 0.011457,0.01212 0.025472,0.0034 0.014005,-0.0088 0.8277346,-0.512748 1.8082805,-1.119928 z M 3.620436,8.7431549 C 4.4726325,7.5248443 5.1698831,6.5121175 5.1698831,6.4926522 c 0,-0.019468 -0.3231228,-0.4973055 -0.7180492,-1.0618676 -0.3949274,-0.564561 -0.7196546,-1.028909 -0.7216146,-1.0318853 -0.011202,-0.017002 -0.360127,0.069454 -0.360127,0.089228 0,0.021772 -1.3367262,6.3505877 -1.3731259,6.5011527 -0.013353,0.05524 -0.00897,0.05778 0.029162,0.01698 0.024677,-0.0264 0.7421166,-1.0447965 1.594312,-2.2631073 z M 7.354381,9.2989254 C 7.7032897,9.153142 7.7883471,8.6957203 7.517002,8.4243758 7.2967302,8.2041034 6.982201,8.2041034 6.7619292,8.4243758 6.3419814,8.844323 6.8053508,9.5283253 7.354381,9.2989254 Z M 9.7814261,7.3178335 11.489533,6.5503693 11.47934,6.4156319 11.469147,6.2808945 10.467376,5.9601324 C 9.4175757,5.6239913 9.3127931,5.5724124 9.3127931,5.3917878 c 0,-0.1285942 0.1247178,-0.2574441 0.248662,-0.2568998 0.059343,2.599e-4 0.5510569,0.1438508 1.0926909,0.3190884 0.820598,0.2654924 0.992643,0.3111483 1.031884,0.2738261 0.0259,-0.024636 0.03844,-0.065071 0.02786,-0.08987 C 11.703306,5.6131328 11.229302,4.9510394 10.660543,4.166602 9.9013879,3.1195691 9.6095694,2.7415618 9.5630003,2.744901 9.5281103,2.747451 9.3785299,2.771158 9.2305989,2.79769 L 8.9616338,2.8459326 8.7148994,3.7942487 C 8.5791957,4.3158224 8.4710108,4.7446115 8.4744896,4.7471129 c 0.00347,0.00255 0.1094815,0.038437 0.2355621,0.079851 C 9.022845,4.9297077 9.1170658,5.0788079 8.9867633,5.2648418 8.8959551,5.3944919 8.7944842,5.411992 8.5588253,5.3386483 8.4428143,5.3025452 8.3434685,5.27743 8.3380572,5.2828424 c -0.017297,0.017297 -0.6552918,2.493263 -0.6545375,2.5401634 3.985e-4,0.024789 0.061524,0.088077 0.135833,0.1406517 0.074306,0.052574 0.1351084,0.1115128 0.1351084,0.1309768 0,0.046831 -0.1141386,0.09536 1.826961,-0.7767896 z M 7.0124503,7.7278147 C 7.1626156,7.7026995 7.1110663,7.8508996 7.5129167,6.2889969 7.6642827,5.7006691 7.7955361,5.1940942 7.8045915,5.1632761 7.8178626,5.1180911 7.7427208,5.0810401 7.4163791,4.9718705 L 7.0117032,4.8364991 6.4318366,5.6646985 5.8519699,6.4928968 6.3004577,7.1380437 c 0.3720975,0.5352617 0.4600547,0.64225 0.5164039,0.6281359 0.037357,-0.00938 0.1253691,-0.026624 0.1955887,-0.038366 z M 12.787712,6.8539269 c 0.348909,-0.1457834 0.433966,-0.6032053 0.162621,-0.8745504 -0.220272,-0.2202717 -0.534801,-0.2202717 -0.755072,0 -0.419948,0.4199479 0.04342,1.1039499 0.592451,0.8745504 z M 6.0018477,5.3381835 C 6.2539997,4.9770862 6.4536829,4.6750198 6.4455888,4.6669267 6.4375364,4.6588743 5.944674,4.4952545 5.3504303,4.3034187 4.2816315,3.9583864 4.1850919,3.9387814 4.1850919,4.0667589 c 0,0.047723 1.3271276,1.9591378 1.3466836,1.9395818 0.00642,-0.00642 0.2179213,-0.3070599 0.4700722,-0.6681572 z M 8.1740571,3.7370362 C 8.2923493,3.2822461 8.3854111,2.9061663 8.380859,2.9013043 c -0.00724,-0.00775 -0.9560596,1.338724 -1.0151466,1.4406781 -0.015269,0.026349 0.076304,0.07296 0.2744264,0.1396738 0.1635414,0.055072 0.3021826,0.096108 0.3080935,0.091196 0.00591,-0.00489 0.1075316,-0.3810285 0.2258248,-0.8358196 z M 3.5510492,3.8655947 C 3.8999579,3.7198113 3.9850153,3.2623894 3.7136701,2.9910453 3.4933984,2.7707725 3.1788702,2.7707725 2.9585974,2.9910453 2.5386496,3.4109921 3.002019,4.0949941 3.5510492,3.8655947 Z M 4.3330484,13.08063 c -0.094763,-0.03784 -0.181915,-0.164186 -0.181915,-0.263757 0,-0.114281 0.1452503,-0.245587 0.2716672,-0.245587 0.1289132,0 0.2716662,0.132025 0.2716662,0.251249 0,0.09694 -0.1206478,0.244465 -0.2207294,0.269891 -0.037357,0.0095 -0.1006647,0.0042 -0.140689,-0.01179 z"
     id="path10" /></svg>
